<?xml version="1.0" encoding="utf-8"?>
<!-- Generator: Adobe Illustrator 16.0.4, SVG Export Plug-In . SVG Version: 6.00 Build 0)  -->
<!DOCTYPE svg PUBLIC "-//W3C//DTD SVG 1.1//EN" "http://www.w3.org/Graphics/SVG/1.1/DTD/svg11.dtd">
<svg version="1.1" id="Layer_1" xmlns="http://www.w3.org/2000/svg" xmlns:xlink="http://www.w3.org/1999/xlink" x="0px" y="0px"
	 width="718.464px" height="172.491px" viewBox="0 0 718.464 172.491" enable-background="new 0 0 718.464 172.491"
	 xml:space="preserve">
<g>
	<g>
		<path d="M35.307,73.783v-8.582h8.025c5.642,0,11.601-1.508,11.681-6.672c0-3.181-2.543-7.393-11.442-7.393
			c-4.926,0-11.601,1.75-11.601,6.834H21.48c0-11.998,11.92-16.369,22.17-16.369c10.487,0,21.77,5.086,21.85,16.928
			c0,4.369-2.86,9.453-7.707,10.963c5.324,1.749,9.057,6.991,9.057,11.681c0,13.589-12.793,17.639-23.519,17.639
			c-10.568,0-22.644-4.45-22.724-17.083h10.567c0,5.721,7.707,7.709,12.237,7.709c5.323,0,12.395-2.227,12.395-8.186
			c0-3.338-1.827-7.469-11.839-7.469H35.307z"/>
		<path d="M124.524,69.73c0.239,14.064-8.343,28.286-27.81,28.286c-6.832,0-15.016,0-21.849,0V42.397c6.833,0,15.017,0,21.849,0
			C115.785,42.397,124.286,55.984,124.524,69.73z M85.274,87.925h11.44c12.634,0,17.64-9.217,17.401-18.274
			c-0.238-8.66-5.323-17.321-17.401-17.321h-11.44V87.925z"/>
		<path d="M147.472,98.016v-55.54h39.968v10.092h-29.479v15.176h27.89v9.694h-27.89v20.578H147.472z"/>
		<path d="M234.149,87.528h-29.08l-4.768,10.488h-11.362l24.95-55.619h11.439l24.952,55.619h-11.443L234.149,87.528z
			 M219.609,54.078L209.28,77.755h20.66L219.609,54.078z"/>
		<path d="M300.723,91.024c-5.72,5.643-13.11,8.265-21.135,8.265c-20.658,0-29.399-14.223-29.479-28.685
			c-0.08-14.54,9.375-29.319,29.479-29.319c7.549,0,14.7,2.86,20.419,8.502l-6.991,6.753c-3.652-3.575-8.581-5.243-13.428-5.243
			c-13.428,0-19.229,10.01-19.148,19.308c0.078,9.217,5.402,18.833,19.148,18.833c4.847,0,10.33-1.988,13.985-5.643L300.723,91.024z
			"/>
		<path d="M320.179,51.931h-17.64v-9.534c16.049,0,29.64,0,45.767,0v9.534h-17.638v46.085h-10.489V51.931z"/>
		<path d="M484.224,98.016h-12.477l-16.208-18.593h-10.093v18.593h-10.487V42.318c8.819,0,17.641,0.079,26.459,0.079
			c13.11,0.079,20.024,8.819,20.024,18.435c0,7.628-3.496,15.335-14.064,17.48l16.846,18.989V98.016z M445.446,52.169v17.799h15.972
			c6.678,0,9.535-4.448,9.535-8.898c0-4.451-2.939-8.9-9.535-8.9H445.446z"/>
		<path d="M511.941,65.359l14.779-22.962h12.633v0.478l-22.17,32.18v22.962h-10.486V75.054l-21.375-32.18v-0.478h12.475
			L511.941,65.359z"/>
		<path d="M608.465,57.732l-18.116,24.154h-2.066l-17.72-24.234v40.443h-10.489V42.476h12.078l17.402,23.916l17.401-23.916h11.999
			v55.619h-10.489V57.732z"/>
		<path d="M666.531,42.397h11.523v0.478l-18.833,27.014l19.386,27.811v0.317H666.85l-14.224-20.897l-14.223,20.897h-11.76v-0.317
			l19.309-27.811l-18.751-27.014v-0.478h11.52l13.905,20.738L666.531,42.397z"/>
	</g>
	<path fill="#0099B0" d="M420.623,73.367v-8.9l-9.624-2.072c-0.584-2.01-1.413-3.914-2.462-5.68l0.011,0.009l5.312-7.988
		l-6.39-6.294l-8.271,5.227c-1.854-1.023-3.846-1.83-5.949-2.369h0.003l-1.974-9.352h-9.038l-2.1,9.492h0.028
		c-1.924,0.532-3.743,1.281-5.444,2.225l-8.26-5.223l-6.39,6.294l5.307,7.972c-1.052,1.77-1.882,3.676-2.467,5.691l-9.617,2.068v8.9
		l9.456,1.939c0.587,2.221,1.472,4.319,2.62,6.252l-5.299,7.96l6.39,6.294l8.248-5.212c0.862,0.479,1.756,0.913,2.685,1.291
		l3.66-9.13c-5.432-2.266-9.243-7.569-9.243-13.752c0-8.242,6.776-14.928,15.146-14.928s15.149,6.686,15.149,14.928
		c0,6.367-4.053,11.787-9.752,13.932l3.762,9.107c1.069-0.418,2.1-0.906,3.09-1.459l8.26,5.223l6.39-6.294l-5.308-7.976
		c1.142-1.928,2.021-4.021,2.604-6.236L420.623,73.367z"/>
	<g>
		<path d="M177.707,136.275l-2.102-4.692h-11.406l-2.074,4.692h-1.582l8.569-19.102h1.609l8.569,19.102H177.707z M175.032,130.216
			l-5.13-11.627l-5.131,11.627H175.032z"/>
		<path d="M198.338,126.507c0.11,4.857-3.001,9.768-9.688,9.768c-2.156,0-4.309,0-6.466,0v-19.102c2.157,0,4.31,0,6.466,0
			C195.118,117.173,198.229,121.812,198.338,126.507z M183.657,118.565v16.292h4.992c5.678,0,8.297-4.258,8.215-8.35
			c-0.081-3.984-2.701-7.942-8.215-7.942H183.657z"/>
		<path d="M217.687,126.507c0.111,4.857-3,9.768-9.687,9.768c-2.155,0-4.311,0-6.467,0v-19.102c2.156,0,4.312,0,6.467,0
			C214.468,117.173,217.579,121.812,217.687,126.507z M203.007,118.565v16.292H208c5.677,0,8.296-4.258,8.215-8.35
			c-0.082-3.984-2.701-7.942-8.215-7.942H203.007z"/>
		<path d="M221.347,136.275v-19.102h1.445v19.102H221.347z"/>
		<path d="M242.769,133.629c-1.91,1.91-4.448,2.865-6.959,2.865c-6.44,0-9.797-4.504-9.823-9.661
			c-0.056-5.104,3.273-9.879,9.823-9.879c2.511,0,5.049,0.955,6.959,2.865l-1.01,0.873c-1.638-1.637-3.792-2.43-5.949-2.43
			c-5.566,0-8.432,3.932-8.404,8.517c0.055,4.474,2.893,8.351,8.404,8.351c2.157,0,4.339-0.82,5.978-2.43L242.769,133.629z"/>
		<path d="M251.367,118.509h-6.904v-1.309h15.281v1.309h-6.904v17.766h-1.473V118.509z"/>
		<path d="M262.557,136.275v-19.102h1.445v19.102H262.557z"/>
		<path d="M284.06,117.173l-7.859,19.159h-1.583l-7.859-19.159h1.584l7.067,17.463l7.067-17.463H284.06z"/>
		<path d="M288.047,125.986h11.188v1.34h-11.188v7.532h12.062v1.418h-13.51v-19.102h13.182v1.392h-11.733V125.986z"/>
		<path d="M327.534,119.301l-7.313,11.188h-0.491l-7.367-11.188v16.974h-1.474v-19.102c0.709,0,1.038,0,1.748,0l7.312,11.133
			l7.23-11.133h1.804v19.102h-1.448V119.301z"/>
		<path d="M348.384,136.275l-2.098-4.692h-11.409l-2.072,4.692h-1.584l8.57-19.102h1.609l8.57,19.102H348.384z M345.711,130.216
			l-5.13-11.627l-5.131,11.627H345.711z"/>
		<path d="M353.082,117.173l12.849,15.799v-15.799h1.451v19.102h-0.573l-12.882-15.774v15.774h-1.477v-19.102H353.082z"/>
		<path d="M386.263,117.173v11.869c0,9.991-14.628,10.016-14.628,0v-11.869h1.445v11.869c0,8.215,11.738,8.188,11.738,0v-11.869
			H386.263z"/>
		<path d="M391.749,126.261h11.001v1.39h-11.001v8.65h-1.473v-19.127h12.854v1.473h-11.381V126.261z"/>
		<path d="M421.577,136.275l-2.1-4.692h-11.409l-2.07,4.692h-1.586l8.57-19.102h1.609l8.572,19.102H421.577z M418.903,130.216
			l-5.131-11.627l-5.131,11.627H418.903z"/>
		<path d="M440.247,133.629c-1.915,1.91-4.451,2.865-6.963,2.865c-6.437,0-9.794-4.504-9.824-9.661
			c-0.051-5.104,3.278-9.879,9.824-9.879c2.512,0,5.048,0.955,6.963,2.865l-1.013,0.873c-1.638-1.637-3.791-2.43-5.95-2.43
			c-5.563,0-8.429,3.932-8.401,8.517c0.055,4.474,2.89,8.351,8.401,8.351c2.159,0,4.342-0.82,5.98-2.43L440.247,133.629z"/>
		<path d="M448.843,118.509h-6.904v-1.309h15.282v1.309h-6.905v17.766h-1.473V118.509z"/>
		<path d="M475.205,117.173v11.869c0,9.991-14.627,10.016-14.627,0v-11.869h1.445v11.869c0,8.215,11.738,8.188,11.738,0v-11.869
			H475.205z"/>
		<path d="M494.472,136.275h-1.936l-6.602-7.233h-5.213v7.233h-1.476v-19.102c2.812,0,5.596,0,8.404,0
			c4.146,0,6.253,2.975,6.277,5.949c0.028,3.11-2.019,5.84-6.196,5.84L494.472,136.275z M480.722,127.651h6.763
			c3.329,0,4.806-1.88,4.834-4.556c0.027-2.238-1.505-4.555-4.668-4.555h-6.929V127.651z"/>
		<path d="M496.958,136.275v-19.102h1.449v19.102H496.958z"/>
		<path d="M503.266,117.173l12.849,15.799v-15.799h1.449v19.102h-0.571l-12.885-15.774v15.774h-1.474v-19.102H503.266z"/>
		<path d="M536.858,120.693c-1.665-1.637-3.984-2.455-6.142-2.455c-5.594,0-8.462,4.092-8.432,8.513c0,4.503,2.865,8.38,8.432,8.38
			c2.048,0,4.177-0.709,5.814-2.209v-5.352h-6.658v-1.281h8.05v7.147c-1.992,1.996-4.369,3.086-7.206,3.086
			c-6.495,0-9.848-4.532-9.848-9.742c-0.029-5.977,4.037-9.879,9.848-9.879c2.51,0,5.05,0.955,6.987,2.864L536.858,120.693z"/>
	</g>
	<rect x="74.828" y="123.728" width="78.112" height="5.756"/>
	<rect x="547.616" y="123.728" width="78.113" height="5.756"/>
</g>
<text transform="matrix(1 0 0 1 691.2842 49.7495)" font-family="'NexaBold'" font-size="5.7226">R</text>
<circle fill="none" stroke="#000000" stroke-miterlimit="10" cx="693.13" cy="47.761" r="4.727"/>
</svg>
