<?xml version="1.0" encoding="utf-8"?>
<!-- Generator: Adobe Illustrator 16.0.4, SVG Export Plug-In . SVG Version: 6.00 Build 0)  -->
<!DOCTYPE svg PUBLIC "-//W3C//DTD SVG 1.1//EN" "http://www.w3.org/Graphics/SVG/1.1/DTD/svg11.dtd">
<svg version="1.1" id="svg4472" xmlns:rdf="http://www.w3.org/1999/02/22-rdf-syntax-ns#" xmlns:svg="http://www.w3.org/2000/svg"
	 xmlns="http://www.w3.org/2000/svg" xmlns:xlink="http://www.w3.org/1999/xlink" x="0px" y="0px" width="774.369px" height="266px"
	 viewBox="0 0 774.369 266" enable-background="new 0 0 774.369 266" xml:space="preserve">
<rect fill="#660000" width="774.369" height="266"/>
<g id="g20028" transform="matrix(4.6758595,0,0,4.6758595,-11436.26,1545.7736)">
	<path id="path19671" fill="#FFFFFF" d="M2461.785-289.229c0,2.614-1.071,6.113-4.235,6.113c-1.588,0-2.527-0.815-2.527-2.439
		C2455.023-288.616,2459.519-289.229,2461.785-289.229 M2466.324-280.254v-14.498c0-4.703-3.086-6.327-7.406-6.327
		c-4.23,0-7.75,1.795-7.75,6.455h4.632c0-2.013,1.068-3.123,3.118-3.123c2.352,0,2.867,1.712,2.867,3.722v2.015
		c-4.622,0.13-11.38,0.773-11.38,6.89c0,3.463,2.741,5.345,5.986,5.345c2.23,0,4.279-0.729,5.313-2.824h0.081v2.346H2466.324"/>
	<path id="path19673" fill="#FFFFFF" d="M2480.403-293.633c0-2.098-0.599-4.114-3.079-4.114c-2.998,0-3.895,3.123-3.895,5.571
		c0,5.134,2.987,9.061,8.392,9.061c1.147,0,2.299-0.127,3.415-0.527v2.922c-1.929,0.607-3.934,0.944-5.949,0.944
		c-7.269,0-10.907-4.457-10.907-11.551c0-5.913,3.217-9.752,9.329-9.752c4.964,0,7.74,2.43,7.74,7.445H2480.403"/>
	<path id="path19675" fill="#FFFFFF" d="M2498.642-293.633c0-2.098-0.6-4.114-3.077-4.114c-2.992,0-3.899,3.123-3.899,5.571
		c0,5.134,3.007,9.061,8.392,9.061c1.152,0,2.307-0.127,3.417-0.527v2.922c-1.918,0.607-3.932,0.944-5.944,0.944
		c-7.273,0-10.905-4.457-10.905-11.551c0-5.913,3.212-9.752,9.321-9.752c4.969,0,7.748,2.43,7.748,7.445H2498.642"/>
	<path id="path19677" fill="#FFFFFF" d="M2517.255-294.537h-7.443c0.211-2.057,1.801-3.519,3.844-3.519
		C2515.844-298.056,2517.255-296.719,2517.255-294.537 M2521.746-291.663v-1.165c0-4.965-2.561-8.25-7.743-8.25
		c-6.073,0-8.73,3.805-8.73,9.582c0,6.714,3.036,11.721,10.264,11.721c1.927,0,3.855-0.217,5.689-0.817v-3.278
		c-1.192,0.415-2.609,0.756-3.885,0.756c-4.625,0-7.662-4.22-7.662-8.547H2521.746"/>
	<path id="path19679" fill="#FFFFFF" d="M2535.82-280.254v-11.626c0-0.984,0.084-3.599-0.724-4.369
		c-0.349-0.345-0.896-0.387-1.372-0.387c-3.423,0-4.793,4.836-4.793,7.584v8.798h-4.749v-20.359h4.749v3.807h0.086
		c1.072-2.607,3.118-4.272,6.034-4.272c3.894,0,5.521,3.208,5.521,6.715v14.11H2535.82"/>
	<path id="path19681" fill="#FFFFFF" d="M2550.453-297.32v9.63c0,2.403,0.249,4.574,3.213,4.574c0.721,0,1.456-0.162,2.182-0.341
		v3.343c-1.291,0.209-2.609,0.338-3.897,0.338c-4.162,0-6.237-1.374-6.237-5.602v-11.941h-3.984v-3.294h3.984v-4.825l4.739-1.931
		v6.756h6.034v3.294H2550.453"/>
	<path id="path19683" fill="#FFFFFF" d="M2570.232-280.254v-3.798h-0.083c-1.082,2.561-3.167,4.276-6.035,4.276
		c-3.893,0-5.523-3.205-5.523-6.71v-14.127h4.752v11.646c0,0.986-0.083,3.589,0.722,4.358c0.349,0.345,0.9,0.377,1.377,0.377
		c3.415,0,4.79-4.82,4.79-7.568v-8.813h4.756v20.359H2570.232"/>
	<path id="path19685" fill="#FFFFFF" d="M2582.723-289.18v8.925h-4.745v-20.359h4.745v3.76h0.083c1.59-2.809,3.17-4.225,6.594-4.225
		v4.958C2584.525-296.12,2582.723-293.983,2582.723-289.18"/>
	<path id="path19687" fill="#FFFFFF" d="M2602.33-294.537h-7.44c0.217-2.057,1.795-3.519,3.848-3.519
		C2600.922-298.056,2602.33-296.719,2602.33-294.537 M2606.824-291.663v-1.165c0-4.965-2.562-8.25-7.742-8.25
		c-6.073,0-8.734,3.805-8.734,9.582c0,6.714,3.042,11.721,10.264,11.721c1.936,0,3.857-0.217,5.696-0.817v-3.278
		c-1.191,0.415-2.608,0.756-3.886,0.756c-4.624,0-7.666-4.22-7.666-8.547H2606.824"/>
	<path id="path19689" fill="#FF9900" d="M2541.72-324.508v3.355c0,0,9.489,3.667,10.854,4.193
		c-1.365,0.525-10.854,4.184-10.854,4.184v3.342l14.77-5.991v-3.081L2541.72-324.508"/>
</g>
</svg>
