<?xml version="1.0" encoding="utf-8"?>
<!-- Generator: Adobe Illustrator 16.0.4, SVG Export Plug-In . SVG Version: 6.00 Build 0)  -->
<!DOCTYPE svg PUBLIC "-//W3C//DTD SVG 1.1//EN" "http://www.w3.org/Graphics/SVG/1.1/DTD/svg11.dtd">
<svg version="1.1" id="svg4472" xmlns:rdf="http://www.w3.org/1999/02/22-rdf-syntax-ns#" xmlns:svg="http://www.w3.org/2000/svg"
	 xmlns="http://www.w3.org/2000/svg" xmlns:xlink="http://www.w3.org/1999/xlink" x="0px" y="0px" width="774.369px" height="266px"
	 viewBox="-10.728 -3.685 774.369 266" enable-background="new -10.728 -3.685 774.369 266" xml:space="preserve">
<g>
	<g>
		<g>
			<path fill="#2CAAE1" d="M710.069,148.405c0.666,1.745,0.41,1.87-0.555,0.272l-26.741-44.272c-1.442-2.41-3.762-2.405-5.206,0.027
				l-26.162,44.521c-0.953,1.617-1.207,1.497-0.565-0.256l17.86-48.563c0.966-2.634-0.479-4.457-3.263-4.063l-51.042,7.241
				c-1.847,0.261-1.899,0-0.146-0.587l49.004-16.272c2.663-0.884,3.171-3.182,1.131-5.099l-37.471-35.505
				c-1.354-1.297-1.191-1.497,0.368-0.477l43.25,28.262c2.332,1.529,4.432,0.504,4.675-2.295l4.31-51.516
				c0.165-1.859,0.436-1.859,0.614,0l4.926,51.516c0.267,2.799,2.377,3.794,4.703,2.247l42.858-28.735
				c1.562-1.042,1.723-0.83,0.383,0.468l-37.103,35.991c-2.016,1.949-1.481,4.217,1.197,5.08l49.101,15.676
				c1.788,0.566,1.733,0.837-0.113,0.599l-51.194-6.653c-2.767-0.348-4.227,1.479-3.213,4.108L710.069,148.405z"/>
			<path fill="#020202" d="M274.634,210.757l0.669-7.96c0.119-1.356,1.234-2.41,2.603-2.41c0.193,0,0.374,0.015,0.564,0.055
				c12.962,3.336,19.227,2.755,28.898,2.755c8.898,0,18.856-6.073,18.856-15.591c0-9.519-10.79-11.955-18.856-15.604
				c-18.244-8.301-32.735-12.152-32.735-30.581c0-18.622,14.702-29.968,32.735-29.968c11.697,0,20.001,0.198,30.403,4.156
				c0.998,0.391,1.698,1.364,1.698,2.509l-0.655,7.496c0,1.476-1.179,2.672-2.636,2.672c-0.206,0-0.429-0.034-0.64-0.084
				c-12.814-3.349-18.675-2.779-28.171-2.779c-9.105,0-19.122,6.073-19.122,15.592c0,9.53,10.849,12.157,19.122,15.596
				c17.607,7.71,32.532,12.166,32.532,30.602c0,18.628-14.721,29.962-32.532,29.962c-11.963,0-20.699-0.203-31.161-4.205
				C275.348,212.586,274.72,211.753,274.634,210.757z"/>
			<path fill="#020202" d="M579.769,202.436v-34.758h-37.84c-9.106,0-16.364,8.13-16.364,17.28c0,9.337,7.258,17.478,16.364,17.478
				H579.769L579.769,202.436z M563.595,125.956c-8.571,0-18.836-0.362-28.116,1.556c-1.816,0.027-2.99-1.159-2.99-2.611
				l-0.653-7.552c0-1.152,0.744-2.137,1.79-2.484c8.154-2.413,17.479-2.413,27.225-2.413c17.846,0,32.562,12.724,32.562,30.999
				v69.954c-0.015,1.564-1.173,2.725-2.633,2.725l-46.102,0.017c-18.051,0-32.753-12.922-32.753-31.188
				c0-18.083,14.702-30.994,32.753-30.994h35.086v-10.513C579.769,134.103,572.505,125.956,563.595,125.956z"/>
			<path fill="#020202" d="M413.919,205.265l0.672,7.592c0,1.479-1.073,2.609-2.428,2.715l-6.93,0.585
				c-18.102,1.387-32.82-12.918-32.82-30.99V88.711c0.018-1.279,0.953-2.387,2.25-2.586l8.629-1.863
				c1.564,0.023,2.738,1.197,2.738,2.642l0.017,25.564h26.178c1.322,0.126,2.368,1.25,2.368,2.608l-0.673,8.194
				c0,1.444-1.025,2.561-2.332,2.709H386.05v59.187c0,9.337,7.276,17.478,16.433,17.478h8.956
				C412.836,202.714,413.919,203.857,413.919,205.265z"/>
			<path fill="#020202" d="M502.088,126.37c-16.932-0.211-24.765-0.196-24.765-0.196c-8.938-0.19-17.777,8.138-17.777,17.479v69.798
				c0,1.52-1.191,2.696-2.636,2.696h-8.495c-1.444,0-2.623-1.177-2.623-2.621v-69.873c0-18.071,14.098-31.781,32.83-31.184
				c0,0,7.324,0,24.372,0.974c1.361,0.116,2.399,1.245,2.399,2.621l-0.661,7.684C504.737,125.193,503.533,126.37,502.088,126.37z"/>
			<path fill="#020202" d="M121.833,86.173l8.783-1.831l0.386-0.035c1.46,0,2.621,1.176,2.621,2.628l0.027,126.48
				c-0.027,1.555-1.189,2.731-2.648,2.731h-8.635c-1.382,0-2.513-1.066-2.604-2.427V88.533
				C119.854,87.403,120.667,86.427,121.833,86.173z"/>
			<path fill="#020202" d="M69.761,202.436V167.69H31.92c-9.123,0-16.375,8.14-16.375,17.273c0,9.338,7.253,17.47,16.375,17.47
				L69.761,202.436L69.761,202.436z M53.601,125.982c-8.585,0-18.854-0.37-28.141,1.54c-1.8,0.021-2.974-1.152-2.974-2.604
				l-0.672-7.554c0-1.152,0.752-2.135,1.787-2.484c8.17-2.413,17.501-2.413,27.248-2.413c17.843,0,32.555,12.715,32.555,30.996
				v69.952c0,1.555-1.186,2.731-2.613,2.731l-46.116,0.012c-18.072,0-32.771-12.917-32.771-31.193
				c0-18.075,14.699-30.984,32.769-30.984h35.088v-10.518C69.761,134.13,62.502,125.982,53.601,125.982z"/>
			<path fill="#020202" d="M218.263,174.643c17.857,0,32.559-12.923,32.559-30.99c0-18.276-14.702-31.184-32.559-31.184h-16.172
				c-18.054,0-32.771,12.908-32.771,31.184v41.517c0,18.071,14.717,30.989,32.771,30.989c11.726,0,22.425-0.21,32.735-4.093
				c0.998-0.374,1.695-1.34,1.695-2.46l-0.652-7.304c0-1.435-1.176-2.621-2.62-2.621c-0.205,0-0.398,0.018-0.579,0.06
				c-12.872,3.267-23.897,2.693-33.362,2.693c-9.123,0-16.386-8.133-16.386-17.265v-10.526H218.263z M182.997,143.653
				c0-9.341,7.246-17.479,16.383-17.479h21.622c8.915-0.003,16.175,8.137,16.175,17.479c0,9.336-7.26,17.28-16.175,17.28h-38.005
				V143.653z"/>
		</g>
	</g>
</g>
</svg>
