<?xml version="1.0" encoding="utf-8"?>
<!-- Generator: Adobe Illustrator 16.0.4, SVG Export Plug-In . SVG Version: 6.00 Build 0)  -->
<!DOCTYPE svg PUBLIC "-//W3C//DTD SVG 1.1//EN" "http://www.w3.org/Graphics/SVG/1.1/DTD/svg11.dtd">
<svg version="1.1" id="Capa_1" xmlns="http://www.w3.org/2000/svg" xmlns:xlink="http://www.w3.org/1999/xlink" x="0px" y="0px"
	 width="867.213px" height="391.803px" viewBox="0 0 867.213 391.803" enable-background="new 0 0 867.213 391.803"
	 xml:space="preserve">
<g>
	<g>
		<path fill="#161516" d="M100.217,123.244c-0.168-3.931-1.538-7.007-3.76-9.229c-2.222-2.395-5.298-3.59-9.23-3.59
			c-13.333,0-15.555,13.845-15.555,24.444c0,13.502,5.128,22.392,15.555,22.392c9.23,0,12.822-6.324,13.847-13.333h35.895
			c-3.076,27.181-24.956,37.265-49.742,37.265c-28.886,0-51.109-16.239-51.109-46.497c0-30.597,21.537-48.204,51.109-48.204
			c23.932,0,46.494,10.258,49.06,36.751H100.217z"/>
		<path fill="#161516" d="M143.347,89.058h32.307v18.12h0.341c4.957-14.019,13.676-20.686,27.523-20.686
			c1.536,0,3.076,0.342,4.614,0.514v35.555c-2.391-0.341-4.957-1.025-7.348-1.025c-14.532,0-21.882,6.837-21.882,26.154v30.939
			h-35.555V89.058z"/>
		<path fill="#161516" d="M245.77,141.877c0,10.598,8.208,17.605,17.606,17.605c5.641,0,10.771-2.563,13.334-7.862h34.017
			c-6.154,22.223-28.717,29.572-49.571,29.572c-28.719,0-50.941-16.411-50.941-46.497c0-29.399,22.051-48.204,50.77-48.204
			c33.161,0,53.161,22.907,52.649,55.385H245.77z M278.079,123.758c0-8.206-7.354-15.555-15.729-15.555
			c-10.596,0-16.581,5.98-16.581,15.555H278.079z"/>
		<path fill="#161516" d="M382.834,178.629l-1.712-9.573c-10.083,9.401-20.342,12.137-33.673,12.137
			c-16.923,0-31.966-8.376-31.966-27.007c0-40.684,63.76-22.223,63.76-38.975c0-6.496-7.86-7.35-11.624-7.35
			c-4.957,0-11.623,1.025-12.479,8.717h-34.189c0-18.974,13.506-30.085,48.89-30.085c42.392,0,44.958,15.728,44.958,37.095v41.879
			c0,5.129,0.17,7.692,4.786,11.453v1.709H382.834z M379.242,138.97c-11.624,5.643-27.006,2.907-27.006,14.531
			c0,4.444,4.271,7.522,11.28,7.522C375.995,161.023,380.099,151.279,379.242,138.97z"/>
		<path fill="#161516" d="M482.891,178.629c-46.665,2.564-52.307-0.684-52.307-31.624v-37.436h-12.648V89.058h13.163V61.194h35.041
			v27.863h17.094v20.511H466.14v32.479c0,8.204,1.196,11.111,11.111,11.111h5.64V178.629z"/>
		<path fill="#161516" d="M520.551,141.877c0,10.598,8.205,17.605,17.606,17.605c5.639,0,10.77-2.563,13.331-7.862h34.016
			c-6.153,22.223-28.716,29.572-49.569,29.572c-28.72,0-50.939-16.411-50.939-46.497c0-29.399,22.051-48.204,50.767-48.204
			c33.162,0,53.165,22.907,52.65,55.385H520.551z M552.857,123.758c0-8.206-7.352-15.555-15.727-15.555
			c-10.598,0-16.58,5.98-16.58,15.555H552.857z"/>
		<path fill="#161516" d="M88.883,265.822l15.554-55.211h34.188l-28.72,83.588c-9.399,27.69-13.161,36.41-44.786,36.41
			c-6.493,0-12.989-0.684-15.723-0.684v-24.786c2.562,0,4.957,0.17,7.348,0.17c11.112,0,13.675-3.247,10.087-13.16L37.43,210.611
			h35.726L88.883,265.822z"/>
		<path fill="#161516" d="M184.815,208.045c31.623,0,51.109,18.632,51.109,46.495c0,32.82-22.223,48.204-50.938,48.204
			c-28.72,0-50.941-15.726-50.941-46.324C134.044,225.31,154.558,208.045,184.815,208.045z M169.602,254.541
			c0,16.924,6.322,24.273,15.384,24.273c9.57,0,15.384-7.35,15.384-24.273c0-13.163-5.814-23.076-15.041-22.562
			C173.189,231.978,169.602,244.457,169.602,254.541z"/>
		<path fill="#161516" d="M339.475,300.181h-32.993v-13.162c-8.887,12.309-17.606,15.726-32.307,15.726
			c-19.485,0-32.137-11.965-32.137-37.605v-54.528h35.555v48.373c0,12.309,4.275,16.241,12.823,16.241
			c10.256,0,13.504-7.693,13.504-21.539v-43.075h35.555V300.181z"/>
		<path fill="#161516" d="M348.594,210.611h32.307v18.118h0.343c4.957-14.018,13.675-20.684,27.521-20.684
			c1.538,0,3.078,0.342,4.616,0.514v35.554c-2.395-0.342-4.957-1.024-7.351-1.024c-14.528,0-21.88,6.837-21.88,26.153v30.939
			h-35.556V210.611z"/>
		<path fill="#161516" d="M493.31,208.045c31.624,0,51.112,18.632,51.112,46.495c0,32.82-22.223,48.204-50.942,48.204
			c-28.716,0-50.938-15.726-50.938-46.324C442.541,225.31,463.054,208.045,493.31,208.045z M478.096,254.541
			c0,16.924,6.325,24.273,15.384,24.273c9.574,0,15.387-7.35,15.387-24.273c0-13.163-5.812-23.076-15.044-22.562
			C481.686,231.978,478.096,244.457,478.096,254.541z"/>
		<path fill="#161516" d="M644.824,265.995h0.341l13.848-55.384h33.673l-28.547,89.57H629.44l-13.848-52.478h-0.341l-12.479,52.478
			h-34.701l-29.572-89.57H573.2l13.676,55.384h0.342l13.848-55.384h30.084L644.824,265.995z"/>
		<path fill="#161516" d="M696.955,210.611h32.478v14.017c8.034-10.771,16.753-16.582,30.255-16.582
			c23.593,0,34.702,13.847,34.702,38.462v53.674h-35.556v-47.35c0-8.89-2.394-16.751-12.479-16.751
			c-10.94,0-13.846,7.008-13.846,18.46v45.641h-35.555V210.611z"/>
	</g>
	<rect x="802.307" y="272.832" fill="#161516" width="28.789" height="27.35"/>
</g>
</svg>
