<?xml version="1.0" encoding="utf-8"?>
<!-- Generator: Adobe Illustrator 16.0.4, SVG Export Plug-In . SVG Version: 6.00 Build 0)  -->
<!DOCTYPE svg PUBLIC "-//W3C//DTD SVG 1.1//EN" "http://www.w3.org/Graphics/SVG/1.1/DTD/svg11.dtd">
<svg version="1.1" id="svg4472" xmlns:rdf="http://www.w3.org/1999/02/22-rdf-syntax-ns#" xmlns:svg="http://www.w3.org/2000/svg"
	 xmlns="http://www.w3.org/2000/svg" xmlns:xlink="http://www.w3.org/1999/xlink" x="0px" y="0px" width="774.369px" height="266px"
	 viewBox="0 0 774.369 266" enable-background="new 0 0 774.369 266" xml:space="preserve">
<g>
	<path fill="#100E0F" d="M155.033,118.295H91.57c-1.638,0-2.967,1.33-2.967,2.968v31.027c0,1.639,1.329,2.971,2.967,2.971h24.756
		v38.55c0,0-5.56,1.896-20.928,1.896c-18.132,0-43.461-6.625-43.461-62.322c0-55.709,26.374-63.039,51.138-63.039
		c21.434,0,30.668,3.772,36.543,5.592c1.847,0.564,3.555-1.274,3.555-2.911l7.079-29.979c0-0.769-0.259-1.69-1.133-2.316
		c-2.387-1.703-16.943-9.849-53.72-9.849c-42.367,0-85.824,18.023-85.824,104.675s49.757,99.562,91.684,99.562
		c34.717,0,55.778-14.836,55.778-14.836c0.869-0.479,0.96-1.689,0.96-2.249v-96.769C157.996,119.626,156.67,118.295,155.033,118.295
		z"/>
	<path fill="#100E0F" d="M482.095,41.262c0-1.652-1.307-2.983-2.943-2.983h-35.736c-1.631,0-2.959,1.332-2.959,2.983
		c0,0.008,0.01,69.057,0.01,69.057h-55.699V41.262c0-1.652-1.314-2.983-2.948-2.983h-35.732c-1.626,0-2.952,1.332-2.952,2.983
		v186.982c0,1.652,1.326,2.993,2.952,2.993h35.732c1.634,0,2.948-1.344,2.948-2.993v-79.979h55.699c0,0-0.098,79.974-0.098,79.979
		c0,1.652,1.326,2.993,2.961,2.993h35.818c1.637,0,2.945-1.344,2.947-2.993V41.262z"/>
	<g>
		<g>
			<path fill="#100E0F" d="M222.463,65.799c0-12.867-10.315-23.264-23.043-23.264c-12.714,0-23.036,10.397-23.036,23.264
				c0,12.854,10.322,23.279,23.036,23.279C212.146,89.077,222.463,78.651,222.463,65.799z"/>
			<path fill="#100E0F" d="M219.908,188.802c0-4.791,0-86.312,0-86.312c0-1.639-1.323-2.979-2.956-2.979h-35.621
				c-1.634,0-3.097,1.686-3.097,3.324c0,0,0,103.86,0,123.661c0,3.635,2.264,4.717,5.195,4.717c0,0,15.204,0,32.093,0
				c3.521,0,4.386-1.732,4.386-4.774C219.908,219.811,219.908,193.843,219.908,188.802z"/>
		</g>
	</g>
	<path fill="#100E0F" d="M617.896,99.793h-35.459c-1.625,0-2.947,1.341-2.947,2.989v91.684c0,0-9.014,6.592-21.797,6.592
		c-12.787,0-16.182-5.801-16.182-18.319c0-12.534,0-79.955,0-79.955c0-1.649-1.318-2.989-2.947-2.989h-35.988
		c-1.625,0-2.953,1.341-2.953,2.989c0,0,0,48.826,0,86.007c0,37.186,20.725,46.286,49.234,46.286
		c23.389,0,42.246-12.924,42.246-12.924s0.9,6.81,1.307,7.619c0.406,0.804,1.465,1.616,2.607,1.616l22.895-0.101
		c1.625,0,2.955-1.344,2.955-2.983l-0.01-125.52C620.856,101.133,619.53,99.793,617.896,99.793z"/>
	<path fill="#100E0F" d="M714.812,95.592c-20.139,0-33.838,8.986-33.838,8.986V41.262c0-1.652-1.32-2.983-2.947-2.983h-35.834
		c-1.629,0-2.953,1.332-2.953,2.983v186.982c0,1.652,1.324,2.993,2.959,2.993c0.002,0,24.854,0,24.857,0
		c1.123,0,1.971-0.578,2.598-1.59c0.617-1.004,1.508-8.62,1.508-8.62s14.65,13.888,42.393,13.888c32.566,0,51.24-16.52,51.24-74.154
		C764.794,103.124,734.968,95.592,714.812,95.592z M700.827,200.944c-12.301-0.374-20.645-5.955-20.645-5.955v-59.214
		c0,0,8.23-5.045,18.328-5.946c12.77-1.144,25.074,2.715,25.074,33.174C723.589,195.126,718.034,201.464,700.827,200.944z"/>
	<path fill="#100E0F" d="M322.608,99.493h-26.806c0,0-0.04-35.402-0.04-35.409c0-1.343-0.689-2.011-2.241-2.011h-36.526
		c-1.42,0-2.185,0.624-2.185,1.989v36.594c0,0-18.306,4.419-19.543,4.776c-1.231,0.357-2.139,1.494-2.139,2.849v22.995
		c0,1.655,1.321,2.989,2.955,2.989h18.728c0,0,0,24.05,0,55.319c0,41.09,28.823,45.127,48.271,45.127
		c8.886,0,19.517-2.854,21.271-3.5c1.062-0.393,1.678-1.492,1.678-2.684l0.029-25.296c0-1.651-1.394-2.985-2.963-2.985
		c-1.562,0-5.558,0.637-9.671,0.637c-13.166,0-17.627-6.125-17.627-14.049c0-7.916-0.001-52.571-0.001-52.571h26.807
		c1.634,0,2.958-1.334,2.958-2.989v-28.8C325.564,100.824,324.242,99.493,322.608,99.493z"/>
</g>
</svg>
