<?xml version="1.0" encoding="utf-8"?>
<!-- Generator: Adobe Illustrator 16.0.4, SVG Export Plug-In . SVG Version: 6.00 Build 0)  -->
<!DOCTYPE svg PUBLIC "-//W3C//DTD SVG 1.1//EN" "http://www.w3.org/Graphics/SVG/1.1/DTD/svg11.dtd">
<svg version="1.1" id="svg4472" xmlns:rdf="http://www.w3.org/1999/02/22-rdf-syntax-ns#" xmlns:svg="http://www.w3.org/2000/svg"
	 xmlns="http://www.w3.org/2000/svg" xmlns:xlink="http://www.w3.org/1999/xlink" x="0px" y="0px" width="774.369px" height="266px"
	 viewBox="0 0 774.369 266" enable-background="new 0 0 774.369 266" xml:space="preserve">
<g id="layer1" transform="translate(4636.4128,-2865.2086)">
	
		<linearGradient id="path4423_1_" gradientUnits="userSpaceOnUse" x1="-17579.25" y1="-496.6216" x2="-17579.25" y2="-634.7705" gradientTransform="matrix(1.3509 0 0 -1.3509 19216.1113 2198.52)">
		<stop  offset="0" style="stop-color:#196EEF"/>
		<stop  offset="0.5" style="stop-color:#186DEE"/>
		<stop  offset="1" style="stop-color:#1065E7"/>
	</linearGradient>
	<path id="path4423" fill="url(#path4423_1_)" d="M-4507.903,2994.591h32.21v45.241c-10.05,3.229-22.74,5-35.93,5
		c-53.46,0-84.88-45.781-84.88-90.491c0-43.85,28.42-74.61,68.07-74.61c25.09,0,39.69,8.5,52.75,20.34v14.76l24.49-24.49
		c-15.49-10.479-37.92-20.438-69.98-20.438c-70.38,0-102.55,50.35-102.55,91.729c0,58.9,42.9,94.38,96.81,94.38
		c26.14,0,49.35-3.989,76.16-11.448v-46.739c0-2.393,1.05-4.031,2.62-5.471l8.46-8.46h-57.45L-4507.903,2994.591z"/>
	
		<linearGradient id="path4425_1_" gradientUnits="userSpaceOnUse" x1="-17457.2109" y1="-543.5903" x2="-17457.2109" y2="-632.9194" gradientTransform="matrix(1.3509 0 0 -1.3509 19216.1113 2198.52)">
		<stop  offset="0" style="stop-color:#DE5744"/>
		<stop  offset="0.5" style="stop-color:#DB4632"/>
		<stop  offset="1" style="stop-color:#D13D29"/>
	</linearGradient>
	<path id="path4425" fill="url(#path4425_1_)" d="M-4363.613,2933.112c-40.51,0-65.61,29.6-65.61,61.02
		c0,27.121,20.22,59.32,61.19,59.32c39.41,0,63.59-29.66,63.59-61.629c0-29.78-23.63-58.7-59.17-58.7V2933.112z M-4370.333,2941.742
		c28.56,0,41.28,37.21,41.28,63.75c0,39.469-29.61,40.25-33.15,40.25c-13.55,0-23.02-8.191-30.11-18.931
		c-6.24-9.899-12.34-28.29-12.34-46.26c0-17.899,5.86-26.64,15.08-33.07c7.54-4.82,14.6-5.74,19.23-5.74L-4370.333,2941.742
		L-4370.333,2941.742z"/>
	
		<linearGradient id="path4429_1_" gradientUnits="userSpaceOnUse" x1="-17264.2754" y1="-543.5908" x2="-17264.2754" y2="-687.0203" gradientTransform="matrix(1.3509 0 0 -1.3509 19216.1113 2198.52)">
		<stop  offset="0" style="stop-color:#1A6FEF"/>
		<stop  offset="0.25" style="stop-color:#1E72EF"/>
		<stop  offset="0.5" style="stop-color:#166BEC"/>
		<stop  offset="0.75" style="stop-color:#1267E9"/>
		<stop  offset="1" style="stop-color:#1063E5;stop-opacity:0.87"/>
	</linearGradient>
	<path id="path4429" fill="url(#path4429_1_)" d="M-4098.803,2933.102c-35.38,0-54.521,22.4-54.521,47.41
		c0,19.04,13.641,40.521,41.778,40.521h7.12c0,0-1.938,4.711-1.95,9.26c0,6.711,2.41,10.479,7.528,16.281
		c-48.42,2.947-67.881,22.479-67.881,43.469c0,18.381,17.603,36.471,54.59,36.471c43.791,0,66.473-24.311,66.473-48.17
		c0-16.818-8.38-26.041-29.603-41.938c-6.239-4.854-7.45-7.941-7.45-11.57c0-5.201,3.11-8.641,4.25-9.939
		c2.013-2.121,5.49-4.541,6.791-5.699c7.129-6.039,17.199-14.98,17.199-32.82c0-12.24-5.09-22.77-16.688-32.63h14.158l10.642-10.64
		h-52.433L-4098.803,2933.102z M-4108.564,2941.062c6.42,0,11.779,2.27,17.439,6.98c6.277,5.66,16.311,20.87,16.311,39.69
		c0,20.31-15.779,25.87-24.318,25.87c-4.182,0-9.189-1.17-13.432-4.068c-9.42-6.109-18.771-22.37-18.771-41.72
		C-4131.333,2950.352-4120.933,2941.062-4108.564,2941.062z M-4094.553,3054.282c2.7,0,4.64,0.221,4.64,0.221
		s6.371,4.55,10.82,7.949c10.36,8.188,16.82,14.45,16.82,25.601c0,15.33-14.22,27.353-37.25,27.353
		c-25.279,0-44.6-11.771-44.6-30.99C-4144.123,3068.493-4130.882,3054.791-4094.553,3054.282L-4094.553,3054.282z"/>
	
		<linearGradient id="path4433_1_" gradientUnits="userSpaceOnUse" x1="-17195.4707" y1="-499.1309" x2="-17195.4707" y2="-630.4104" gradientTransform="matrix(1.3509 0 0 -1.3509 19216.1113 2198.52)">
		<stop  offset="0" style="stop-color:#0AA561"/>
		<stop  offset="0.5" style="stop-color:#009B58"/>
		<stop  offset="1" style="stop-color:#00914B"/>
	</linearGradient>
	<path id="path4433" fill="url(#path4433_1_)" d="M-4038.703,3049.942h48.569l7.4-7.4l-13.931-1.739
		c-3.75-0.459-5.979-3.698-5.979-6.841v-146.71c0-2.89,1.34-4.37,2.32-5.31l8.76-8.76h-41.42l-10.78,10.78h16.103v151.97
		c0,2.16-0.683,3.632-2.142,5.143L-4038.703,3049.942z"/>
	
		<linearGradient id="path4435_1_" gradientUnits="userSpaceOnUse" x1="-17131.9902" y1="-543.5903" x2="-17131.9902" y2="-632.6714" gradientTransform="matrix(1.3509 0 0 -1.3509 19216.1113 2198.52)">
		<stop  offset="0" style="stop-color:#DE5644"/>
		<stop  offset="0.5" style="stop-color:#DA4531"/>
		<stop  offset="1" style="stop-color:#CE3A28"/>
	</linearGradient>
	<path id="path4435" fill="url(#path4435_1_)" d="M-3924.324,2933.112c-27.117,0-55.93,20.67-55.93,57.78
		c0,30.649,20.67,62.56,59.29,62.56c9.63,0,17.562-1.24,24.99-4.649c7.97-3.67,15.64-9.629,21.24-17.118
		c-10.57,5.33-19.19,8.83-30.64,8.83c-21.763,0-42.74-15.699-50.08-44.562l76.867-31.07c-4.438-15.83-16.959-31.77-45.729-31.77
		L-3924.324,2933.112L-3924.324,2933.112z M-3929.343,2941.602c14.55,0,25.07,11.97,25.07,21.34c0,3.03-1.9,4.63-5.66,6.11
		l-47.25,19.11c0,0-1.28-5.95-1.28-12.38C-3958.463,2948.812-3938.963,2941.602-3929.343,2941.602L-3929.343,2941.602z"/>
	
		<linearGradient id="path4439_1_" gradientUnits="userSpaceOnUse" x1="-17355.457" y1="-543.7783" x2="-17355.457" y2="-632.7375" gradientTransform="matrix(1.3509 0 0 -1.3509 19216.1113 2198.52)">
		<stop  offset="0" style="stop-color:#FFC01A"/>
		<stop  offset="0.5" style="stop-color:#FFBA03"/>
		<stop  offset="1" style="stop-color:#FFB300"/>
	</linearGradient>
	<path id="path4439" fill="url(#path4439_1_)" d="M-4226.154,2933.112c-40.51,0-65.609,29.6-65.609,61.02
		c0,27.121,20.221,59.32,61.189,59.32c39.41,0,63.59-29.66,63.59-61.629c0-29.78-23.629-58.7-59.17-58.7V2933.112z
		 M-4232.873,2941.742c28.561,0,41.279,37.21,41.279,63.75c0,39.469-29.609,40.25-33.15,40.25c-13.549,0-23.02-8.191-30.107-18.931
		c-6.24-9.899-12.34-28.29-12.34-46.26c0-17.899,5.857-26.64,15.08-33.07c7.539-4.82,14.602-5.74,19.229-5.74L-4232.873,2941.742
		L-4232.873,2941.742z"/>
</g>
</svg>
