<?xml version="1.0" encoding="utf-8"?>
<!-- Generator: Adobe Illustrator 16.0.4, SVG Export Plug-In . SVG Version: 6.00 Build 0)  -->
<!DOCTYPE svg PUBLIC "-//W3C//DTD SVG 1.1//EN" "http://www.w3.org/Graphics/SVG/1.1/DTD/svg11.dtd">
<svg version="1.1" id="svg4472" xmlns:rdf="http://www.w3.org/1999/02/22-rdf-syntax-ns#" xmlns:svg="http://www.w3.org/2000/svg"
	 xmlns="http://www.w3.org/2000/svg" xmlns:xlink="http://www.w3.org/1999/xlink" x="0px" y="0px" width="622px" height="266px"
	 viewBox="74.685 0 622 266" enable-background="new 74.685 0 622 266" xml:space="preserve">
<g>
	<g>
		<g>
			<path fill="#162F51" d="M399.783,141.788c0-38.1,0.007-76.206-0.007-114.304c0-5.96-0.438-6.373-6.426-6.387
				c-9.278-0.024-18.561-0.018-27.842,0c-6.599,0.007-6.885,0.286-6.888,6.907c-0.011,25.397-0.004,50.796-0.004,76.197
				c0,25.727-0.007,51.458,0.004,77.181c0.003,6.266,0.447,6.73,6.614,6.724c11.516-0.007,23.039-0.028,34.555-0.049
				c0-14.979,0-29.965,0-44.942C399.783,142.706,399.783,142.269,399.783,141.788z"/>
			<path fill="#265A8F" d="M469.906,154.869c-0.015-6.075-0.396-6.477-6.35-6.484c-19.05-0.021-38.106-0.007-57.148-0.007
				c-6.124-0.007-6.575-0.021-6.618-5.263c0,14.978,0,29.964,0,44.942c21.209-0.028,42.41-0.05,63.611-0.085
				c5.242-0.015,6.477-1.298,6.498-6.73C469.941,172.451,469.935,163.66,469.906,154.869z"/>
		</g>
		<g>
			<path fill="#751B00" d="M285.157,61.302c-9.668,0-18.413,0-27.916,0c0,2.082,0,3.96,0,5.842c0,37.13,0,74.257-0.004,111.382
				c0,8.713-0.769,9.469-9.42,9.476c-6.68,0-13.353,0-20.032,0c-8.069-0.007-9.038-0.932-9.049-8.876
				c-0.014-17.257-0.003-34.521-0.003-51.778c0-20.03,0-40.065,0-60.095c0-1.776,0-3.558,0-5.747c-9.297,0-18.282,0-27.916,0
				c0,2.247,0,4.305,0,6.373c0,37.617,0.003,75.23-0.004,112.849c0,6.604-0.668,7.26-7.238,7.268
				c-8.955,0.014-17.914,0.027-26.869,0c-5.891-0.028-6.776-0.847-6.783-6.815c-0.044-25.725,0.035-51.456-0.044-77.182
				c-0.076-25.075-0.308-50.144-0.435-75.209c-0.035-6.921,0.741-7.673,7.428-7.673c46.896-0.003,93.797-0.014,140.693,0.003
				c16.895,0.007,28.451,11.575,28.428,28.491c-0.053,43.641-0.148,87.281-0.228,130.913c-0.014,6.477-0.967,7.457-7.235,7.464
				c-8.955,0.015-17.913,0.028-26.868,0c-5.343-0.021-6.494-1.192-6.498-6.667c-0.014-37.781-0.007-75.557-0.007-113.338
				C285.157,65.915,285.157,63.842,285.157,61.302z"/>
			<path fill="#C53C02" d="M325.976,64.322c-0.051,38.822-0.138,77.643-0.21,116.468c-0.014,6.308-0.967,7.26-7.238,7.274
				c-8.955,0.007-17.91,0.021-26.869-0.007c-5.342-0.015-6.494-1.157-6.497-6.491c-0.015-36.786-0.008-73.574-0.008-110.359
				c0-2.02,0-4.039,0-6.507"/>
			<path fill="#C53C02" d="M257.345,63.957c-0.055,38.935-0.134,77.875-0.206,116.812c-0.014,6.322-0.913,7.281-6.844,7.296
				c-8.472,0.007-16.939,0.021-25.413-0.007c-5.054-0.015-6.142-1.157-6.146-6.506c-0.014-36.898-0.007-73.791-0.007-110.692
				c0-2.023,0-4.049,0-6.528"/>
			<path fill="#C53C02" d="M191.15,64.322c-0.051,38.822-0.138,77.643-0.213,116.468c-0.015,6.308-0.979,7.26-7.308,7.274
				c-9.045,0.007-18.092,0.021-27.141-0.007c-5.397-0.015-6.56-1.157-6.56-6.491c-0.014-36.786-0.007-73.574-0.007-110.359
				c0-2.02,0-4.039,0-6.507"/>
			<rect x="149.919" y="61.508" fill="#C53C02" width="41.231" height="6.277"/>
			<rect x="218.733" y="61.508" fill="#C53C02" width="38.611" height="6.277"/>
			<rect x="285.157" y="61.188" fill="#C53C02" width="40.84" height="6.277"/>
		</g>
		<g>
			<path fill="#ECC700" d="M522.271,83.692c19.424,0,38.085,0,57.529,0c0-2.129,0-4.015,0-5.907c0-16.772-0.015-33.544,0.014-50.311
				c0.007-5.832,0.579-6.369,6.491-6.383c9.771-0.025,19.543,0.079,29.308-0.048c4.142-0.055,5.927,1.688,5.92,5.812
				c-0.043,51.779-0.043,103.558,0.007,155.333c0.007,4.487-2.145,5.997-6.357,5.947c-9.595-0.12-19.204-0.014-28.813-0.05
				c-5.482-0.014-6.54-1.051-6.555-6.61c-0.035-17.095-0.014-34.19-0.014-51.29c0-1.924,0-3.85,0-6.237c-19.205,0-37.972,0-57.529,0
				c0,1.91,0,3.796,0,5.685c0,17.426-0.134,34.846,0.085,52.265c0.063,4.713-1.531,6.379-6.194,6.272
				c-9.758-0.232-19.536-0.204-29.301-0.014c-4.297,0.084-5.666-1.658-5.659-5.807c0.085-51.941,0.085-103.882,0-155.823
				c-0.014-3.981,1.312-5.57,5.362-5.501c9.927,0.166,19.868,0.21,29.795-0.018c4.444-0.103,6.032,1.473,5.976,5.949
				c-0.176,16.772-0.07,33.539-0.07,50.312C522.271,79.201,522.271,81.127,522.271,83.692z"/>
			<rect x="522.271" y="83.692" fill="#FDEE00" width="57.529" height="40.263"/>
		</g>
	</g>
	<g enable-background="new    ">
		<path fill="#2D2D2D" d="M127.725,215.064c0.621,0.275,1.155,0.636,1.604,1.083c0.448,0.448,0.808,0.984,1.083,1.605
			s0.413,1.277,0.413,1.972v24.45c0,0.229-0.081,0.424-0.238,0.582c-0.16,0.163-0.354,0.24-0.586,0.24h-6.025
			c-0.232,0-0.419-0.077-0.564-0.24c-0.145-0.158-0.217-0.353-0.217-0.582v-22.153h-4.854v22.153c0,0.229-0.072,0.424-0.217,0.582
			c-0.145,0.163-0.334,0.24-0.564,0.24h-5.461c-0.231,0-0.427-0.077-0.586-0.24c-0.158-0.158-0.238-0.353-0.238-0.582v-22.153
			h-4.855v22.153c0,0.547-0.273,0.822-0.822,0.822h-5.982c-0.549,0-0.824-0.275-0.824-0.822v-28.697c0-0.55,0.275-0.825,0.824-0.825
			h26.138C126.446,214.652,127.103,214.79,127.725,215.064z"/>
		<path fill="#2D2D2D" d="M158.045,214.652c0.693,0,1.35,0.138,1.973,0.412c0.62,0.275,1.155,0.636,1.603,1.083
			c0.448,0.448,0.81,0.984,1.085,1.605c0.273,0.621,0.411,1.277,0.411,1.972v24.45c0,0.229-0.079,0.424-0.238,0.582
			c-0.158,0.163-0.354,0.24-0.586,0.24h-6.024c-0.231,0-0.427-0.077-0.586-0.24c-0.159-0.158-0.238-0.353-0.238-0.582v-7.761
			c0-0.229-0.072-0.427-0.217-0.585c-0.145-0.159-0.332-0.236-0.562-0.236h-8.583c-0.232,0-0.427,0.077-0.586,0.236
			c-0.158,0.158-0.237,0.355-0.237,0.585v7.761c0,0.547-0.275,0.822-0.824,0.822h-5.982c-0.549,0-0.822-0.275-0.822-0.822v-24.45
			c0-0.694,0.129-1.351,0.39-1.972c0.26-0.621,0.621-1.157,1.083-1.605c0.462-0.447,1.004-0.808,1.626-1.083
			c0.621-0.274,1.279-0.412,1.973-0.412H158.045z M155.443,229.087v-7.626h-10.186v7.626H155.443z"/>
		<path fill="#2D2D2D" d="M190.404,214.892c0.159,0.159,0.238,0.354,0.238,0.586v24.446c0,0.695-0.138,1.352-0.413,1.973
			c-0.275,0.624-0.635,1.164-1.083,1.626c-0.447,0.462-0.982,0.825-1.604,1.083c-0.622,0.261-1.278,0.392-1.974,0.392h-13.047
			c-0.693,0-1.351-0.131-1.972-0.392c-0.623-0.258-1.164-0.621-1.626-1.083c-0.463-0.462-0.824-1.002-1.083-1.626
			c-0.262-0.621-0.39-1.277-0.39-1.973v-9.273c0-0.551,0.272-0.826,0.823-0.826h5.981c0.548,0,0.823,0.275,0.823,0.826v6.198
			c0,0.232,0.079,0.419,0.238,0.564c0.159,0.145,0.354,0.215,0.586,0.215h6.286c0.229,0,0.425-0.07,0.584-0.215
			c0.158-0.146,0.237-0.332,0.237-0.564v-21.371c0-0.232,0.073-0.427,0.218-0.586c0.145-0.158,0.331-0.239,0.564-0.239h6.024
			C190.05,214.652,190.244,214.733,190.404,214.892z"/>
		<path fill="#2D2D2D" d="M217.823,214.652c0.691,0,1.348,0.138,1.968,0.412c0.621,0.275,1.157,0.636,1.609,1.083
			c0.444,0.448,0.804,0.984,1.079,1.605s0.416,1.277,0.416,1.972v20.199c0,0.695-0.141,1.352-0.416,1.973
			c-0.275,0.624-0.635,1.164-1.079,1.626c-0.452,0.462-0.988,0.825-1.609,1.083c-0.62,0.261-1.276,0.392-1.968,0.392h-15.348
			c-0.692,0-1.351-0.131-1.972-0.392c-0.621-0.258-1.164-0.621-1.624-1.083c-0.464-0.462-0.824-1.002-1.085-1.626
			c-0.26-0.621-0.39-1.277-0.39-1.973v-20.199c0-0.694,0.13-1.351,0.39-1.972c0.261-0.621,0.621-1.157,1.085-1.605
			c0.46-0.447,1.003-0.808,1.624-1.083c0.621-0.274,1.279-0.412,1.972-0.412H217.823z M215.22,222.021h-10.188v15.606h10.188
			V222.021z"/>
		<path fill="#2D2D2D" d="M255.707,244.302c0.112,0.205,0.13,0.371,0.042,0.501c-0.085,0.131-0.247,0.194-0.477,0.194h-6.893
			c-0.229,0-0.462-0.063-0.691-0.194c-0.233-0.13-0.406-0.296-0.522-0.501l-4.593-8.233c-0.061-0.116-0.162-0.173-0.304-0.173
			h-5.161c-0.145,0-0.215,0.07-0.215,0.216v8.063c0,0.547-0.275,0.822-0.825,0.822h-5.979c-0.551,0-0.825-0.275-0.825-0.822v-28.697
			c0-0.55,0.274-0.825,0.825-0.825h19.593c0.691,0,1.351,0.138,1.972,0.412c0.621,0.275,1.153,0.636,1.605,1.083
			c0.444,0.448,0.808,0.984,1.083,1.605c0.274,0.621,0.412,1.277,0.412,1.972v11.401c0,1.098-0.328,2.089-0.977,2.971
			c-0.649,0.882-1.482,1.479-2.494,1.799l-0.127,0.043c-0.205,0.056-0.247,0.145-0.131,0.261l0.042,0.085L255.707,244.302z
			 M247.081,221.718h-10.448v7.369h10.448V221.718z"/>
		<path fill="#2D2D2D" d="M296.585,237.628c0.229,0,0.42,0.081,0.564,0.24c0.145,0.158,0.215,0.353,0.215,0.585v5.722
			c0,0.229-0.07,0.424-0.215,0.582c-0.145,0.163-0.335,0.24-0.564,0.24H277.86c-0.551,0-0.825-0.275-0.825-0.822v-28.697
			c0-0.55,0.274-0.825,0.825-0.825h5.979c0.55,0,0.825,0.275,0.825,0.825v21.371c0,0.232,0.078,0.419,0.236,0.564
			c0.159,0.145,0.356,0.215,0.586,0.215H296.585z"/>
		<path fill="#2D2D2D" d="M309.111,221.937v4.724c0,0.116,0.071,0.173,0.216,0.173h12.354c0.233,0,0.427,0.081,0.586,0.24
			c0.158,0.158,0.239,0.353,0.239,0.585v4.336c0,0.547-0.274,0.822-0.825,0.822h-12.354c-0.145,0-0.216,0.074-0.216,0.219v4.681
			c0,0.145,0.071,0.216,0.216,0.216h14.523c0.229,0,0.427,0.081,0.585,0.239c0.159,0.159,0.236,0.353,0.236,0.586v5.418
			c0,0.229-0.077,0.424-0.236,0.582c-0.158,0.163-0.355,0.24-0.585,0.24h-17.297c-0.694,0-1.351-0.131-1.972-0.392
			c-0.621-0.258-1.164-0.621-1.626-1.083s-0.825-1.002-1.083-1.626c-0.261-0.621-0.392-1.277-0.392-1.973v-20.199
			c0-0.694,0.131-1.351,0.392-1.972c0.258-0.621,0.621-1.157,1.083-1.605c0.462-0.447,1.005-0.808,1.626-1.083
			c0.621-0.274,1.277-0.412,1.972-0.412h17.297c0.229,0,0.427,0.081,0.585,0.239c0.159,0.159,0.236,0.354,0.236,0.586v5.461
			c0,0.232-0.077,0.42-0.236,0.564c-0.158,0.145-0.355,0.215-0.585,0.215h-14.523C309.183,221.718,309.111,221.792,309.111,221.937z
			"/>
		<path fill="#2D2D2D" d="M351.938,214.652c0.695,0,1.352,0.138,1.976,0.412c0.621,0.275,1.153,0.636,1.602,1.083
			c0.448,0.448,0.808,0.984,1.083,1.605s0.413,1.277,0.413,1.972v24.45c0,0.229-0.082,0.424-0.237,0.582
			c-0.162,0.163-0.355,0.24-0.585,0.24h-6.025c-0.232,0-0.427-0.077-0.586-0.24c-0.158-0.158-0.239-0.353-0.239-0.582v-7.761
			c0-0.229-0.071-0.427-0.216-0.585c-0.145-0.159-0.335-0.236-0.564-0.236h-8.582c-0.233,0-0.427,0.077-0.586,0.236
			c-0.159,0.158-0.24,0.355-0.24,0.585v7.761c0,0.547-0.274,0.822-0.821,0.822h-5.983c-0.547,0-0.822-0.275-0.822-0.822v-24.45
			c0-0.694,0.131-1.351,0.389-1.972c0.261-0.621,0.621-1.157,1.086-1.605c0.459-0.447,1.002-0.808,1.623-1.083
			c0.621-0.274,1.28-0.412,1.972-0.412H351.938z M349.338,229.087v-7.626h-10.188v7.626H349.338z"/>
		<path fill="#2D2D2D" d="M389.021,228.678c0.159,0.159,0.24,0.354,0.24,0.582v10.664c0,0.695-0.138,1.352-0.413,1.973
			c-0.275,0.624-0.636,1.164-1.083,1.626c-0.448,0.462-0.984,0.825-1.605,1.083c-0.621,0.261-1.277,0.392-1.972,0.392h-15.346
			c-0.691,0-1.351-0.131-1.972-0.392c-0.621-0.258-1.164-0.621-1.626-1.083c-0.463-0.462-0.822-1.002-1.083-1.626
			c-0.262-0.621-0.392-1.277-0.392-1.973v-20.199c0-0.694,0.13-1.351,0.392-1.972c0.261-0.621,0.62-1.157,1.083-1.605
			c0.462-0.447,1.005-0.808,1.626-1.083c0.621-0.274,1.28-0.412,1.972-0.412h17.903c0.232,0,0.427,0.081,0.585,0.239
			c0.159,0.159,0.24,0.354,0.24,0.586v5.722c0,0.233-0.081,0.427-0.24,0.586c-0.158,0.158-0.353,0.236-0.585,0.236h-14.521
			c-0.232,0-0.427,0.074-0.585,0.219c-0.159,0.145-0.24,0.331-0.24,0.564v14.044c0,0.232,0.081,0.419,0.24,0.564
			c0.158,0.145,0.353,0.215,0.585,0.215h8.583c0.229,0,0.416-0.07,0.562-0.215c0.145-0.146,0.219-0.332,0.219-0.564v-7.589
			c0-0.229,0.077-0.423,0.236-0.582c0.158-0.158,0.355-0.239,0.585-0.239h6.025C388.667,228.438,388.861,228.52,389.021,228.678z"/>
		<path fill="#2D2D2D" d="M421.017,214.892c0.155,0.159,0.236,0.354,0.236,0.586v24.446c0,0.695-0.138,1.352-0.413,1.973
			c-0.275,0.624-0.635,1.164-1.083,1.626s-0.98,0.825-1.602,1.083c-0.624,0.261-1.28,0.392-1.976,0.392h-15.345
			c-0.691,0-1.352-0.131-1.973-0.392c-0.62-0.258-1.164-0.621-1.622-1.083c-0.466-0.462-0.826-1.002-1.087-1.626
			c-0.258-0.621-0.388-1.277-0.388-1.973v-24.446c0-0.55,0.274-0.825,0.821-0.825h5.983c0.547,0,0.822,0.275,0.822,0.825v21.371
			c0,0.232,0.081,0.419,0.239,0.564c0.159,0.145,0.353,0.215,0.586,0.215h8.583c0.229,0,0.419-0.07,0.564-0.215
			c0.145-0.146,0.215-0.332,0.215-0.564v-21.371c0-0.232,0.081-0.427,0.24-0.586c0.158-0.158,0.353-0.239,0.585-0.239h6.025
			C420.66,214.652,420.854,214.733,421.017,214.892z"/>
		<path fill="#2D2D2D" d="M435.6,221.937v4.724c0,0.116,0.07,0.173,0.215,0.173h12.354c0.232,0,0.427,0.081,0.585,0.24
			c0.159,0.158,0.24,0.353,0.24,0.585v4.336c0,0.547-0.275,0.822-0.825,0.822h-12.354c-0.145,0-0.215,0.074-0.215,0.219v4.681
			c0,0.145,0.07,0.216,0.215,0.216h14.523c0.229,0,0.427,0.081,0.586,0.239c0.158,0.159,0.236,0.353,0.236,0.586v5.418
			c0,0.229-0.078,0.424-0.236,0.582c-0.159,0.163-0.356,0.24-0.586,0.24h-17.296c-0.695,0-1.351-0.131-1.972-0.392
			c-0.621-0.258-1.164-0.621-1.626-1.083c-0.463-0.462-0.826-1.002-1.083-1.626c-0.262-0.621-0.392-1.277-0.392-1.973v-20.199
			c0-0.694,0.13-1.351,0.392-1.972c0.257-0.621,0.62-1.157,1.083-1.605c0.462-0.447,1.005-0.808,1.626-1.083
			c0.621-0.274,1.276-0.412,1.972-0.412h17.296c0.229,0,0.427,0.081,0.586,0.239c0.158,0.159,0.236,0.354,0.236,0.586v5.461
			c0,0.232-0.078,0.42-0.236,0.564c-0.159,0.145-0.356,0.215-0.586,0.215h-14.523C435.67,221.718,435.6,221.792,435.6,221.937z"/>
		<path fill="#2D2D2D" d="M497.457,214.652c0.229,0,0.427,0.081,0.586,0.239c0.158,0.159,0.236,0.354,0.236,0.586v28.697
			c0,0.229-0.078,0.424-0.236,0.582c-0.159,0.163-0.356,0.24-0.586,0.24h-6.025c-0.232,0-0.427-0.077-0.585-0.24
			c-0.159-0.158-0.24-0.353-0.24-0.582V234.16c0-0.229-0.07-0.42-0.215-0.564c-0.146-0.145-0.332-0.215-0.564-0.215h-8.583
			c-0.229,0-0.427,0.07-0.586,0.215c-0.158,0.145-0.236,0.335-0.236,0.564v10.015c0,0.547-0.275,0.822-0.825,0.822h-5.979
			c-0.551,0-0.825-0.275-0.825-0.822v-28.697c0-0.55,0.274-0.825,0.825-0.825h5.979c0.55,0,0.825,0.275,0.825,0.825v9.708
			c0,0.551,0.271,0.825,0.822,0.825h8.583c0.232,0,0.419-0.081,0.564-0.239c0.145-0.159,0.215-0.353,0.215-0.586v-9.708
			c0-0.232,0.081-0.427,0.24-0.586c0.158-0.158,0.353-0.239,0.585-0.239H497.457z"/>
		<path fill="#2D2D2D" d="M525.544,214.652c0.695,0,1.352,0.138,1.976,0.412c0.621,0.275,1.153,0.636,1.602,1.083
			c0.448,0.448,0.808,0.984,1.083,1.605s0.413,1.277,0.413,1.972v24.45c0,0.229-0.081,0.424-0.236,0.582
			c-0.162,0.163-0.356,0.24-0.586,0.24h-6.025c-0.232,0-0.427-0.077-0.585-0.24c-0.159-0.158-0.24-0.353-0.24-0.582v-7.761
			c0-0.229-0.07-0.427-0.215-0.585c-0.145-0.159-0.335-0.236-0.564-0.236h-8.583c-0.232,0-0.427,0.077-0.586,0.236
			c-0.158,0.158-0.239,0.355-0.239,0.585v7.761c0,0.547-0.275,0.822-0.822,0.822h-5.982c-0.547,0-0.822-0.275-0.822-0.822v-24.45
			c0-0.694,0.13-1.351,0.388-1.972c0.262-0.621,0.621-1.157,1.087-1.605c0.458-0.447,1.002-0.808,1.622-1.083
			c0.621-0.274,1.281-0.412,1.973-0.412H525.544z M522.944,229.087v-7.626h-10.188v7.626H522.944z"/>
		<path fill="#2D2D2D" d="M545.204,222.24c-0.159,0.145-0.236,0.331-0.236,0.564v14.044c0,0.232,0.077,0.419,0.236,0.564
			c0.158,0.145,0.356,0.215,0.585,0.215h13.917c0.229,0,0.427,0.081,0.586,0.24c0.158,0.158,0.236,0.353,0.236,0.585v5.722
			c0,0.229-0.078,0.424-0.236,0.582c-0.159,0.163-0.356,0.24-0.586,0.24h-9.059h-7.458h-0.779c-0.695,0-1.352-0.131-1.972-0.392
			c-0.621-0.258-1.165-0.621-1.627-1.083s-0.825-1.002-1.083-1.626c-0.261-0.621-0.392-1.277-0.392-1.973v-0.779v-3.164v-10.1
			v-2.818v-3.338c0-0.694,0.131-1.351,0.392-1.972c0.258-0.621,0.621-1.157,1.083-1.605c0.462-0.447,1.006-0.808,1.627-1.083
			c0.62-0.274,1.276-0.412,1.972-0.412h0.779h16.517c0.229,0,0.427,0.081,0.586,0.239c0.158,0.159,0.236,0.354,0.236,0.586v5.722
			c0,0.233-0.078,0.427-0.236,0.586c-0.159,0.158-0.356,0.236-0.586,0.236h-13.917C545.561,222.021,545.362,222.096,545.204,222.24z
			"/>
		<path fill="#2D2D2D" d="M584.671,227.439c-0.088,0.089-0.102,0.191-0.046,0.304l10.146,16.559c0.112,0.205,0.13,0.371,0.042,0.501
			c-0.088,0.131-0.247,0.194-0.477,0.194h-7.196c-0.232,0-0.462-0.063-0.695-0.194c-0.229-0.13-0.401-0.296-0.519-0.501
			l-6.543-11.831c-0.089-0.145-0.163-0.159-0.219-0.046l-3.599,3.947c-0.145,0.145-0.268,0.353-0.367,0.628
			c-0.102,0.275-0.151,0.525-0.151,0.759v6.416c0,0.547-0.275,0.822-0.825,0.822h-5.979c-0.551,0-0.825-0.275-0.825-0.822v-28.697
			c0-0.55,0.274-0.825,0.825-0.825h5.979c0.55,0,0.825,0.275,0.825,0.825v12.872l11.183-13.091c0.145-0.173,0.346-0.317,0.606-0.431
			c0.262-0.116,0.505-0.176,0.737-0.176h7.197c0.229,0,0.366,0.06,0.412,0.176c0.043,0.113-0.011,0.258-0.155,0.431L584.671,227.439
			z"/>
		<path fill="#2D2D2D" d="M608.038,244.175c0,0.547-0.274,0.822-0.825,0.822h-5.979c-0.55,0-0.825-0.275-0.825-0.822v-28.697
			c0-0.55,0.275-0.825,0.825-0.825h5.979c0.551,0,0.825,0.275,0.825,0.825V244.175z"/>
		<path fill="#2D2D2D" d="M637.229,215.064c0.621,0.275,1.154,0.636,1.602,1.083c0.448,0.448,0.812,0.984,1.087,1.605
			c0.271,0.621,0.409,1.277,0.409,1.972v24.45c0,0.229-0.077,0.424-0.236,0.582c-0.159,0.163-0.356,0.24-0.586,0.24h-6.024
			c-0.233,0-0.42-0.077-0.564-0.24c-0.146-0.158-0.216-0.353-0.216-0.582v-21.37c0-0.233-0.081-0.42-0.239-0.564
			c-0.159-0.145-0.354-0.219-0.586-0.219h-8.583c-0.229,0-0.427,0.074-0.586,0.219c-0.158,0.145-0.236,0.331-0.236,0.564v21.37
			c0,0.547-0.274,0.822-0.825,0.822h-5.979c-0.55,0-0.825-0.275-0.825-0.822v-28.697c0-0.55,0.275-0.825,0.825-0.825h19.593
			C635.949,214.652,636.609,214.79,637.229,215.064z"/>
		<path fill="#2D2D2D" d="M672.341,228.678c0.158,0.159,0.239,0.354,0.239,0.582v10.664c0,0.695-0.137,1.352-0.412,1.973
			c-0.275,0.624-0.635,1.164-1.083,1.626s-0.984,0.825-1.605,1.083c-0.621,0.261-1.276,0.392-1.972,0.392h-15.346
			c-0.691,0-1.351-0.131-1.972-0.392c-0.621-0.258-1.164-0.621-1.626-1.083s-0.822-1.002-1.083-1.626
			c-0.262-0.621-0.392-1.277-0.392-1.973v-20.199c0-0.694,0.13-1.351,0.392-1.972c0.261-0.621,0.621-1.157,1.083-1.605
			c0.462-0.447,1.005-0.808,1.626-1.083c0.621-0.274,1.28-0.412,1.972-0.412h17.903c0.232,0,0.427,0.081,0.585,0.239
			c0.159,0.159,0.24,0.354,0.24,0.586v5.722c0,0.233-0.081,0.427-0.24,0.586c-0.158,0.158-0.353,0.236-0.585,0.236h-14.52
			c-0.233,0-0.428,0.074-0.586,0.219c-0.159,0.145-0.24,0.331-0.24,0.564v14.044c0,0.232,0.081,0.419,0.24,0.564
			c0.158,0.145,0.353,0.215,0.586,0.215h8.582c0.229,0,0.417-0.07,0.562-0.215c0.145-0.146,0.219-0.332,0.219-0.564v-7.589
			c0-0.229,0.077-0.423,0.236-0.582c0.158-0.158,0.356-0.239,0.585-0.239h6.025C671.988,228.438,672.182,228.52,672.341,228.678z"/>
	</g>
</g>
</svg>
