<?xml version="1.0" encoding="utf-8"?>
<!-- Generator: Adobe Illustrator 16.0.4, SVG Export Plug-In . SVG Version: 6.00 Build 0)  -->
<!DOCTYPE svg PUBLIC "-//W3C//DTD SVG 1.1//EN" "http://www.w3.org/Graphics/SVG/1.1/DTD/svg11.dtd">
<svg version="1.1" id="svg4472" xmlns:rdf="http://www.w3.org/1999/02/22-rdf-syntax-ns#" xmlns:svg="http://www.w3.org/2000/svg"
	 xmlns="http://www.w3.org/2000/svg" xmlns:xlink="http://www.w3.org/1999/xlink" x="0px" y="0px" width="622px" height="266px"
	 viewBox="74.685 0 622 266" enable-background="new 74.685 0 622 266" xml:space="preserve">
<g>
	<g>
		<g>
			<path fill="#9C9B9B" d="M391.364,141.843c0-38.329,0.007-76.664-0.007-114.992c-0.008-5.998-0.44-6.412-6.468-6.425
				c-9.336-0.027-18.675-0.02-28.013,0c-6.638,0.007-6.925,0.286-6.929,6.947c-0.011,25.552-0.004,51.104-0.004,76.658
				c0,25.882-0.007,51.767,0.004,77.645c0.004,6.304,0.45,6.771,6.654,6.765c11.585-0.007,23.178-0.028,34.769-0.042
				c0-15.075,0-30.146,0-45.221C391.364,142.766,391.364,142.326,391.364,141.843z"/>
			<path fill="#D1D1D2" d="M461.909,155.002c-0.021-6.111-0.404-6.516-6.395-6.522c-19.165-0.021-38.329-0.008-57.492-0.008
				c-6.161-0.007-6.615-0.021-6.651-5.295c0,15.075,0,30.146,0,45.221c21.329-0.029,42.665-0.05,63.994-0.092
				c5.273-0.016,6.516-1.307,6.537-6.772C461.938,172.689,461.931,163.846,461.909,155.002z"/>
		</g>
		<g>
			<path fill="#75973D" d="M276.042,60.872c-9.726,0-18.523,0-28.084,0c0,2.094,0,3.983,0,5.877c0,37.354,0,74.704-0.006,112.051
				c0,8.766-0.773,9.525-9.478,9.533c-6.718,0-13.431,0-20.15,0c-8.118-0.008-9.093-0.938-9.103-8.93
				c-0.015-17.36-0.004-34.729-0.004-52.09c0-20.152,0-40.307,0-60.458c0-1.789,0-3.579,0-5.781c-9.354,0-18.393,0-28.084,0
				c0,2.261,0,4.332,0,6.409c0,37.846,0.003,75.685-0.004,113.53c0,6.644-0.673,7.304-7.282,7.311
				c-9.009,0.015-18.021,0.028-27.03,0c-5.929-0.028-6.817-0.852-6.826-6.855c-0.043-25.88,0.037-51.766-0.043-77.648
				c-0.076-25.224-0.309-50.444-0.437-75.661c-0.035-6.963,0.745-7.719,7.473-7.719c47.177-0.004,94.361-0.014,141.539,0.004
				c16.997,0.007,28.622,11.644,28.601,28.663c-0.055,43.904-0.149,87.808-0.229,131.708c-0.015,6.515-0.975,7.495-7.279,7.502
				c-9.009,0.021-18.021,0.035-27.03,0c-5.375-0.021-6.533-1.2-6.537-6.707c-0.016-38.01-0.007-76.011-0.007-114.02
				C276.042,65.508,276.042,63.424,276.042,60.872z"/>
			<path fill="#98CA3C" d="M317.11,63.91c-0.056,39.056-0.143,78.11-0.215,117.169c-0.015,6.346-0.975,7.305-7.282,7.318
				c-9.01,0.007-18.018,0.021-27.03-0.007c-5.375-0.014-6.534-1.164-6.537-6.53c-0.016-37.009-0.009-74.019-0.009-111.023
				c0-2.032,0-4.063,0-6.546"/>
			<path fill="#98CA3C" d="M248.066,63.539c-0.056,39.169-0.136,78.346-0.208,117.512c-0.014,6.359-0.919,7.333-6.887,7.347
				c-8.521,0.007-17.04,0.021-25.564-0.007c-5.086-0.014-6.179-1.164-6.183-6.544c-0.014-37.122-0.007-74.241-0.007-111.359
				c0-2.036,0-4.074,0-6.567"/>
			<path fill="#98CA3C" d="M181.467,63.906c-0.053,39.06-0.137,78.113-0.218,117.173c-0.015,6.339-0.985,7.305-7.352,7.318
				c-9.1,0.007-18.199,0.021-27.302-0.007c-5.43-0.014-6.6-1.164-6.6-6.53c-0.016-37.016-0.009-74.022-0.009-111.028
				c0-2.03,0-4.062,0-6.544"/>
			<rect x="139.987" y="61.076" fill="#98CA3C" width="41.479" height="6.315"/>
			<rect x="209.218" y="61.076" fill="#98CA3C" width="38.845" height="6.315"/>
			<rect x="276.042" y="60.751" fill="#98CA3C" width="41.086" height="6.317"/>
		</g>
		<g>
			<path fill="#CF4645" d="M514.583,83.395c19.546,0,38.32,0,57.882,0c0-2.14,0-4.037,0-5.94c0-16.874-0.021-33.747,0.007-50.617
				c0.015-5.865,0.589-6.406,6.537-6.42c9.83-0.026,19.661,0.08,29.484-0.048c4.167-0.055,5.955,1.696,5.948,5.847
				c-0.035,52.091-0.042,104.182,0.007,156.275c0.007,4.515-2.15,6.033-6.388,5.977c-9.66-0.114-19.327-0.015-28.995-0.05
				c-5.508-0.015-6.579-1.058-6.587-6.65c-0.035-17.192-0.014-34.396-0.014-51.599c0-1.936,0-3.874,0-6.276
				c-19.327,0-38.2,0-57.882,0c0,1.923,0,3.82,0,5.721c0,17.53-0.136,35.055,0.085,52.58c0.063,4.741-1.533,6.416-6.232,6.31
				c-9.816-0.234-19.654-0.206-29.478-0.015c-4.314,0.085-5.692-1.668-5.685-5.841c0.077-52.253,0.085-104.507-0.008-156.762
				c-0.007-4.005,1.32-5.604,5.395-5.534c9.993,0.167,19.988,0.211,29.975-0.018c4.478-0.103,6.067,1.481,6.019,5.985
				c-0.185,16.872-0.07,33.742-0.07,50.615C514.583,78.876,514.583,80.815,514.583,83.395z"/>
			<rect x="514.583" y="83.395" fill="#EF4749" width="57.882" height="40.508"/>
		</g>
	</g>
	<g enable-background="new    ">
		<path fill="#2D2D2D" d="M102.431,240.112c0.176,0,0.316,0.056,0.426,0.177c0.108,0.121,0.164,0.271,0.164,0.44v4.323
			c0,0.17-0.056,0.319-0.164,0.439c-0.109,0.12-0.25,0.178-0.426,0.178H88.303c-0.415,0-0.621-0.206-0.621-0.617v-21.656
			c0-0.412,0.206-0.618,0.621-0.618h4.513c0.415,0,0.623,0.206,0.623,0.618v16.127c0,0.177,0.059,0.319,0.179,0.425
			c0.119,0.107,0.267,0.164,0.442,0.164H102.431z"/>
		<path fill="#2D2D2D" d="M111.983,245.053c0,0.411-0.208,0.617-0.623,0.617h-4.513c-0.415,0-0.621-0.206-0.621-0.617v-21.656
			c0-0.412,0.206-0.618,0.621-0.618h4.513c0.415,0,0.623,0.206,0.623,0.618V245.053z"/>
		<path fill="#2D2D2D" d="M136.102,233.355c0.12,0.12,0.181,0.269,0.181,0.446v8.042c0,0.525-0.104,1.021-0.31,1.491
			c-0.208,0.468-0.481,0.873-0.818,1.228c-0.339,0.348-0.742,0.617-1.211,0.816c-0.47,0.191-0.965,0.291-1.488,0.291h-11.578
			c-0.523,0-1.019-0.1-1.487-0.291c-0.47-0.199-0.878-0.469-1.228-0.816c-0.349-0.354-0.621-0.76-0.816-1.228
			c-0.197-0.47-0.295-0.966-0.295-1.491v-15.239c0-0.524,0.098-1.021,0.295-1.49c0.195-0.469,0.468-0.873,0.816-1.206
			c0.35-0.342,0.758-0.611,1.228-0.823c0.469-0.206,0.964-0.307,1.487-0.307h13.509c0.174,0,0.321,0.058,0.439,0.179
			c0.121,0.12,0.182,0.27,0.182,0.439v4.315c0,0.178-0.061,0.327-0.182,0.447c-0.118,0.121-0.266,0.178-0.439,0.178h-10.957
			c-0.176,0-0.323,0.057-0.442,0.163c-0.121,0.106-0.179,0.248-0.179,0.426v10.598c0,0.177,0.058,0.319,0.179,0.425
			c0.119,0.107,0.267,0.164,0.442,0.164h6.475c0.176,0,0.315-0.057,0.426-0.164c0.108-0.105,0.163-0.248,0.163-0.425v-5.722
			c0-0.178,0.061-0.326,0.182-0.446c0.118-0.121,0.266-0.179,0.439-0.179h4.548C135.835,233.177,135.982,233.234,136.102,233.355z"
			/>
		<path fill="#2D2D2D" d="M156.595,222.778c0.523,0,1.019,0.101,1.486,0.307c0.469,0.212,0.873,0.481,1.211,0.823
			c0.339,0.333,0.61,0.737,0.817,1.206c0.208,0.469,0.312,0.966,0.312,1.49v18.448c0,0.17-0.061,0.319-0.18,0.439
			c-0.121,0.12-0.269,0.178-0.441,0.178h-4.547c-0.176,0-0.322-0.058-0.441-0.178c-0.121-0.12-0.18-0.27-0.18-0.439v-5.856
			c0-0.177-0.055-0.319-0.163-0.439c-0.11-0.121-0.252-0.186-0.426-0.186h-6.477c-0.175,0-0.321,0.064-0.44,0.186
			c-0.12,0.12-0.181,0.263-0.181,0.439v5.856c0,0.411-0.208,0.617-0.621,0.617h-4.515c-0.413,0-0.621-0.206-0.621-0.617v-18.448
			c0-0.524,0.098-1.021,0.295-1.49c0.196-0.469,0.469-0.873,0.817-1.206c0.349-0.342,0.758-0.611,1.227-0.823
			c0.469-0.206,0.966-0.307,1.489-0.307H156.595z M154.632,233.667v-5.756h-7.687v5.756H154.632z"/>
		<path fill="#2D2D2D" d="M198.537,223.085c0.469,0.212,0.873,0.481,1.214,0.823c0.334,0.333,0.61,0.737,0.816,1.206
			s0.312,0.966,0.312,1.49v18.448c0,0.17-0.064,0.319-0.185,0.439c-0.121,0.12-0.263,0.178-0.44,0.178h-4.542
			c-0.178,0-0.319-0.058-0.427-0.178c-0.113-0.12-0.162-0.27-0.162-0.439v-16.716h-3.667v16.716c0,0.17-0.053,0.319-0.163,0.439
			c-0.108,0.12-0.25,0.178-0.424,0.178h-4.122c-0.174,0-0.321-0.058-0.442-0.178c-0.118-0.12-0.179-0.27-0.179-0.439v-16.716h-3.662
			v16.716c0,0.411-0.208,0.617-0.623,0.617h-4.513c-0.415,0-0.621-0.206-0.621-0.617v-21.656c0-0.412,0.206-0.618,0.621-0.618
			h19.725C197.572,222.778,198.069,222.879,198.537,223.085z"/>
		<path fill="#2D2D2D" d="M223.362,222.957c0.12,0.12,0.181,0.27,0.181,0.439v1.867v0.979v1.277c0,0.171-0.061,0.312-0.181,0.426
			c-0.121,0.106-0.267,0.164-0.44,0.164h-2.324h-6.804h-1.831c-0.106,0-0.163,0.049-0.163,0.163v3.562
			c0,0.085,0.057,0.128,0.163,0.128h9.355c0.173,0,0.315,0.063,0.425,0.185c0.11,0.121,0.164,0.263,0.164,0.439v3.272
			c0,0.171-0.054,0.32-0.164,0.439c-0.109,0.121-0.252,0.179-0.425,0.179h-9.355c-0.106,0-0.163,0.056-0.163,0.163v1.604v0.035
			v1.896c0,0.113,0.057,0.164,0.163,0.164h1.373h7.393h2.193c0.174,0,0.319,0.063,0.44,0.177c0.12,0.121,0.181,0.27,0.181,0.447
			v1.306v1.704v1.079c0,0.17-0.061,0.319-0.181,0.439c-0.121,0.12-0.267,0.178-0.44,0.178h-1.867h-12.428h-1.963
			c-0.411,0-0.62-0.206-0.62-0.617v-1.115v-18.973v-1.568c0-0.17,0.06-0.319,0.181-0.439c0.12-0.121,0.266-0.179,0.439-0.179h2.389
			h12.822h1.047C223.096,222.778,223.241,222.836,223.362,222.957z"/>
		<path fill="#2D2D2D" d="M249.577,245.527c-0.066,0.092-0.184,0.143-0.361,0.143h-4.904c-0.174,0-0.348-0.051-0.522-0.143
			c-0.177-0.099-0.305-0.227-0.394-0.376l-4.773-6.842l-4.809,6.842c-0.089,0.149-0.22,0.277-0.394,0.376
			c-0.174,0.092-0.348,0.143-0.521,0.143h-4.908c-0.175,0-0.295-0.051-0.359-0.143c-0.063-0.099-0.042-0.227,0.064-0.376
			l7.034-10.768c0.085-0.148,0.131-0.326,0.131-0.518c0-0.199-0.046-0.369-0.131-0.525l-6.608-10.044
			c-0.109-0.149-0.131-0.276-0.063-0.376c0.063-0.092,0.185-0.143,0.358-0.143h4.908c0.173,0,0.348,0.051,0.521,0.143
			c0.174,0.1,0.305,0.227,0.394,0.376l4.383,6.154l4.348-6.154c0.089-0.149,0.22-0.276,0.395-0.376
			c0.173-0.092,0.347-0.143,0.521-0.143h4.908c0.174,0,0.294,0.051,0.358,0.143c0.063,0.1,0.042,0.227-0.064,0.376l-6.608,10.044
			c-0.088,0.156-0.131,0.326-0.131,0.525c0,0.191,0.043,0.369,0.131,0.518l7.031,10.768
			C249.62,245.301,249.642,245.429,249.577,245.527z"/>
		<path fill="#2D2D2D" d="M259.454,245.053c0,0.411-0.206,0.617-0.621,0.617h-4.514c-0.411,0-0.621-0.206-0.621-0.617v-21.656
			c0-0.412,0.21-0.618,0.621-0.618h4.514c0.415,0,0.621,0.206,0.621,0.618V245.053z"/>
		<path fill="#2D2D2D" d="M270.428,228.5c-0.121,0.106-0.178,0.248-0.178,0.426v10.598c0,0.177,0.057,0.319,0.178,0.425
			c0.121,0.107,0.27,0.164,0.443,0.164h10.498c0.174,0,0.322,0.056,0.443,0.177c0.117,0.121,0.178,0.271,0.178,0.44v4.323
			c0,0.17-0.061,0.319-0.178,0.439c-0.121,0.12-0.27,0.178-0.443,0.178h-6.835h-5.625h-0.59c-0.525,0-1.019-0.1-1.486-0.291
			c-0.473-0.199-0.88-0.469-1.229-0.816c-0.348-0.354-0.621-0.76-0.815-1.228c-0.199-0.47-0.295-0.966-0.295-1.491v-0.589v-2.385
			v-7.623v-2.122v-2.521c0-0.524,0.096-1.021,0.295-1.49c0.194-0.469,0.468-0.873,0.815-1.206c0.349-0.342,0.756-0.611,1.229-0.823
			c0.468-0.206,0.961-0.307,1.486-0.307h0.59h12.46c0.174,0,0.322,0.058,0.443,0.179c0.117,0.12,0.178,0.27,0.178,0.439v4.315
			c0,0.178-0.061,0.327-0.178,0.447c-0.121,0.121-0.27,0.178-0.443,0.178h-10.498C270.697,228.337,270.549,228.394,270.428,228.5z"
			/>
		<path fill="#2D2D2D" d="M302.563,222.778c0.521,0,1.019,0.101,1.486,0.307c0.469,0.212,0.873,0.481,1.21,0.823
			c0.337,0.333,0.611,0.737,0.82,1.206c0.206,0.469,0.309,0.966,0.309,1.49v18.448c0,0.17-0.06,0.319-0.181,0.439
			c-0.117,0.12-0.267,0.178-0.44,0.178h-4.546c-0.174,0-0.323-0.058-0.44-0.178c-0.12-0.12-0.181-0.27-0.181-0.439v-5.856
			c0-0.177-0.057-0.319-0.163-0.439c-0.11-0.121-0.252-0.186-0.426-0.186h-6.477c-0.175,0-0.323,0.064-0.44,0.186
			c-0.121,0.12-0.181,0.263-0.181,0.439v5.856c0,0.411-0.206,0.617-0.621,0.617h-4.515c-0.415,0-0.621-0.206-0.621-0.617v-18.448
			c0-0.524,0.1-1.021,0.295-1.49s0.469-0.873,0.815-1.206c0.352-0.342,0.76-0.611,1.229-0.823c0.469-0.206,0.965-0.307,1.487-0.307
			H302.563z M300.601,233.667v-5.756h-7.687v5.756H300.601z"/>
		<path fill="#2D2D2D" d="M330.61,222.957c0.117,0.12,0.177,0.27,0.177,0.439v21.656c0,0.17-0.06,0.319-0.177,0.439
			c-0.121,0.12-0.27,0.178-0.443,0.178h-4.316h-0.394c-0.174,0-0.348-0.051-0.521-0.143c-0.178-0.099-0.306-0.227-0.395-0.376
			l-7.229-13.352v13.253c0,0.411-0.206,0.617-0.621,0.617h-4.515c-0.411,0-0.621-0.206-0.621-0.617v-21.656
			c0-0.412,0.21-0.618,0.621-0.618h4.646c0.174,0,0.349,0.051,0.525,0.143c0.174,0.1,0.302,0.227,0.391,0.376l7.261,13.38v-13.28
			c0-0.17,0.061-0.319,0.182-0.439c0.117-0.121,0.266-0.179,0.439-0.179h4.547C330.341,222.778,330.489,222.836,330.61,222.957z"/>
		<path fill="#2D2D2D" d="M351.36,222.778c0.522,0,1.019,0.101,1.487,0.307c0.468,0.212,0.873,0.481,1.21,0.823
			c0.337,0.333,0.61,0.737,0.82,1.206c0.205,0.469,0.309,0.966,0.309,1.49v18.448c0,0.17-0.061,0.319-0.181,0.439
			c-0.118,0.12-0.267,0.178-0.44,0.178h-4.546c-0.174,0-0.323-0.058-0.44-0.178c-0.121-0.12-0.181-0.27-0.181-0.439v-5.856
			c0-0.177-0.058-0.319-0.164-0.439c-0.109-0.121-0.252-0.186-0.426-0.186h-6.477c-0.174,0-0.323,0.064-0.44,0.186
			c-0.12,0.12-0.181,0.263-0.181,0.439v5.856c0,0.411-0.205,0.617-0.621,0.617h-4.514c-0.415,0-0.621-0.206-0.621-0.617v-18.448
			c0-0.524,0.1-1.021,0.294-1.49c0.195-0.469,0.469-0.873,0.816-1.206c0.352-0.342,0.76-0.611,1.228-0.823
			c0.469-0.206,0.966-0.307,1.487-0.307H351.36z M349.398,233.667v-5.756h-7.688v5.756H349.398z"/>
		<path fill="#2D2D2D" d="M386.878,222.778c0.524,0,1.021,0.101,1.491,0.307c0.468,0.212,0.873,0.481,1.206,0.823
			c0.341,0.333,0.61,0.737,0.824,1.206c0.206,0.469,0.305,0.966,0.305,1.49v15.239c0,0.525-0.099,1.021-0.305,1.491
			c-0.214,0.468-0.483,0.873-0.824,1.228c-0.333,0.348-0.738,0.617-1.206,0.816c-0.471,0.191-0.967,0.291-1.491,0.291h-14.785
			c-0.411,0-0.621-0.206-0.621-0.617v-21.656c0-0.412,0.21-0.618,0.621-0.618H386.878z M377.229,240.112h7.688v-11.775h-7.688
			V240.112z"/>
		<path fill="#2D2D2D" d="M413.162,222.957c0.12,0.12,0.177,0.27,0.177,0.439v1.867v0.979v1.277c0,0.171-0.057,0.312-0.177,0.426
			c-0.121,0.106-0.271,0.164-0.44,0.164h-2.328h-6.8h-1.831c-0.106,0-0.163,0.049-0.163,0.163v3.562
			c0,0.085,0.057,0.128,0.163,0.128h9.355c0.17,0,0.312,0.063,0.425,0.185c0.106,0.121,0.164,0.263,0.164,0.439v3.272
			c0,0.171-0.058,0.32-0.164,0.439c-0.113,0.121-0.255,0.179-0.425,0.179h-9.355c-0.106,0-0.163,0.056-0.163,0.163v1.604v0.035
			v1.896c0,0.113,0.057,0.164,0.163,0.164h1.37h7.395h2.194c0.17,0,0.319,0.063,0.44,0.177c0.12,0.121,0.177,0.27,0.177,0.447v1.306
			v1.704v1.079c0,0.17-0.057,0.319-0.177,0.439c-0.121,0.12-0.271,0.178-0.44,0.178h-1.867h-12.428h-1.967
			c-0.412,0-0.617-0.206-0.617-0.617v-1.115v-18.973v-1.568c0-0.17,0.057-0.319,0.178-0.439c0.121-0.121,0.27-0.179,0.439-0.179
			h2.393h12.818h1.051C412.892,222.778,413.041,222.836,413.162,222.957z"/>
		<path fill="#2D2D2D" d="M448.268,222.778c0.178,0,0.326,0.058,0.446,0.179c0.114,0.12,0.179,0.27,0.179,0.439v21.656
			c0,0.17-0.064,0.319-0.179,0.439c-0.12,0.12-0.269,0.178-0.446,0.178h-4.543c-0.178,0-0.326-0.058-0.439-0.178
			c-0.121-0.12-0.186-0.27-0.186-0.439v-7.56c0-0.171-0.05-0.312-0.163-0.426c-0.106-0.107-0.248-0.163-0.426-0.163h-6.473
			c-0.178,0-0.319,0.056-0.44,0.163c-0.121,0.113-0.184,0.255-0.184,0.426v7.56c0,0.411-0.206,0.617-0.618,0.617h-4.515
			c-0.412,0-0.625-0.206-0.625-0.617v-21.656c0-0.412,0.213-0.618,0.625-0.618h4.515c0.412,0,0.618,0.206,0.618,0.618v7.325
			c0,0.418,0.212,0.624,0.624,0.624h6.473c0.178,0,0.319-0.057,0.426-0.177c0.113-0.121,0.163-0.27,0.163-0.447v-7.325
			c0-0.17,0.064-0.319,0.186-0.439c0.113-0.121,0.262-0.179,0.439-0.179H448.268z"/>
		<path fill="#2D2D2D" d="M469.469,222.778c0.519,0,1.016,0.101,1.483,0.307c0.468,0.212,0.873,0.481,1.214,0.823
			c0.333,0.333,0.61,0.737,0.816,1.206s0.312,0.966,0.312,1.49v18.448c0,0.17-0.063,0.319-0.184,0.439
			c-0.114,0.12-0.264,0.178-0.44,0.178h-4.543c-0.177,0-0.326-0.058-0.44-0.178c-0.121-0.12-0.184-0.27-0.184-0.439v-5.856
			c0-0.177-0.057-0.319-0.164-0.439c-0.106-0.121-0.248-0.186-0.426-0.186h-6.473c-0.178,0-0.327,0.064-0.44,0.186
			c-0.12,0.12-0.185,0.263-0.185,0.439v5.856c0,0.411-0.206,0.617-0.618,0.617h-4.514c-0.418,0-0.624-0.206-0.624-0.617v-18.448
			c0-0.524,0.099-1.021,0.298-1.49c0.192-0.469,0.468-0.873,0.816-1.206c0.348-0.342,0.76-0.611,1.228-0.823
			c0.468-0.206,0.965-0.307,1.483-0.307H469.469z M467.503,233.667v-5.756h-7.688v5.756H467.503z"/>
		<path fill="#2D2D2D" d="M484.296,228.5c-0.12,0.106-0.178,0.248-0.178,0.426v10.598c0,0.177,0.058,0.319,0.178,0.425
			c0.12,0.107,0.27,0.164,0.439,0.164h10.498c0.178,0,0.326,0.056,0.447,0.177c0.113,0.121,0.177,0.271,0.177,0.44v4.323
			c0,0.17-0.063,0.319-0.177,0.439c-0.121,0.12-0.27,0.178-0.447,0.178h-6.835h-5.621h-0.59c-0.525,0-1.022-0.1-1.49-0.291
			c-0.468-0.199-0.88-0.469-1.228-0.816c-0.349-0.354-0.617-0.76-0.816-1.228c-0.199-0.47-0.291-0.966-0.291-1.491v-0.589v-2.385
			v-7.623v-2.122v-2.521c0-0.524,0.092-1.021,0.291-1.49s0.468-0.873,0.816-1.206c0.348-0.342,0.76-0.611,1.228-0.823
			c0.468-0.206,0.965-0.307,1.49-0.307h0.59h12.456c0.178,0,0.326,0.058,0.447,0.179c0.113,0.12,0.177,0.27,0.177,0.439v4.315
			c0,0.178-0.063,0.327-0.177,0.447c-0.121,0.121-0.27,0.178-0.447,0.178h-10.498C484.565,228.337,484.416,228.394,484.296,228.5z"
			/>
		<path fill="#2D2D2D" d="M514.078,232.425c-0.063,0.064-0.077,0.143-0.035,0.228l7.659,12.499c0.085,0.149,0.092,0.277,0.027,0.376
			c-0.063,0.092-0.185,0.143-0.361,0.143h-5.424c-0.177,0-0.354-0.051-0.524-0.143c-0.178-0.099-0.306-0.227-0.391-0.376
			l-4.939-8.929c-0.071-0.113-0.121-0.121-0.163-0.035l-2.72,2.974c-0.105,0.113-0.198,0.27-0.275,0.476
			c-0.079,0.206-0.114,0.397-0.114,0.574v4.842c0,0.411-0.206,0.617-0.625,0.617h-4.515c-0.411,0-0.616-0.206-0.616-0.617v-21.656
			c0-0.412,0.205-0.618,0.616-0.618h4.515c0.419,0,0.625,0.206,0.625,0.618v9.717l8.439-9.88c0.105-0.128,0.263-0.241,0.454-0.326
			c0.198-0.086,0.383-0.129,0.561-0.129h5.431c0.17,0,0.275,0.043,0.305,0.129c0.035,0.085,0,0.198-0.114,0.326L514.078,232.425z"/>
		<path fill="#2D2D2D" d="M541.319,222.778c0.525,0,1.022,0.101,1.491,0.307c0.468,0.212,0.873,0.481,1.206,0.823
			c0.341,0.333,0.611,0.737,0.824,1.206c0.205,0.469,0.305,0.966,0.305,1.49v18.448c0,0.17-0.057,0.319-0.178,0.439
			c-0.12,0.12-0.27,0.178-0.44,0.178h-4.549c-0.171,0-0.32-0.058-0.44-0.178s-0.178-0.27-0.178-0.439v-5.856
			c0-0.177-0.057-0.319-0.163-0.439c-0.114-0.121-0.255-0.186-0.426-0.186h-6.48c-0.17,0-0.318,0.064-0.439,0.186
			c-0.121,0.12-0.178,0.263-0.178,0.439v5.856c0,0.411-0.206,0.617-0.625,0.617h-4.514c-0.412,0-0.618-0.206-0.618-0.617v-18.448
			c0-0.524,0.1-1.021,0.291-1.49c0.199-0.469,0.469-0.873,0.817-1.206c0.354-0.342,0.759-0.611,1.228-0.823
			c0.468-0.206,0.965-0.307,1.49-0.307H541.319z M539.36,233.667v-5.756h-7.687v5.756H539.36z"/>
		<path fill="#2D2D2D" d="M566.503,227.712c0,0.178-0.057,0.327-0.178,0.447c-0.121,0.121-0.27,0.178-0.439,0.178h-4.649
			c-0.17,0-0.319,0.057-0.44,0.163s-0.178,0.248-0.178,0.426v16.127c0,0.17-0.056,0.319-0.163,0.439
			c-0.113,0.12-0.248,0.178-0.426,0.178h-4.549c-0.172,0-0.32-0.058-0.44-0.178c-0.121-0.12-0.178-0.27-0.178-0.439v-16.127
			c0-0.178-0.057-0.319-0.163-0.426c-0.113-0.106-0.248-0.163-0.426-0.163h-4.643c-0.177,0-0.326-0.057-0.447-0.178
			c-0.12-0.12-0.177-0.27-0.177-0.447v-4.315c0-0.412,0.206-0.618,0.624-0.618h4.643h1.207h4.549h1.207h4.649
			c0.17,0,0.318,0.058,0.439,0.179c0.121,0.12,0.178,0.27,0.178,0.439V227.712z"/>
		<path fill="#2D2D2D" d="M589.038,222.778c0.178,0,0.327,0.058,0.447,0.179c0.114,0.12,0.178,0.27,0.178,0.439v21.656
			c0,0.17-0.063,0.319-0.178,0.439c-0.12,0.12-0.27,0.178-0.447,0.178h-4.542c-0.178,0-0.327-0.058-0.44-0.178
			c-0.12-0.12-0.185-0.27-0.185-0.439v-7.56c0-0.171-0.05-0.312-0.163-0.426c-0.106-0.107-0.249-0.163-0.426-0.163h-6.474
			c-0.177,0-0.318,0.056-0.439,0.163c-0.121,0.113-0.186,0.255-0.186,0.426v7.56c0,0.411-0.205,0.617-0.617,0.617h-4.514
			c-0.412,0-0.625-0.206-0.625-0.617v-21.656c0-0.412,0.213-0.618,0.625-0.618h4.514c0.412,0,0.617,0.206,0.617,0.618v7.325
			c0,0.418,0.213,0.624,0.625,0.624h6.474c0.177,0,0.319-0.057,0.426-0.177c0.113-0.121,0.163-0.27,0.163-0.447v-7.325
			c0-0.17,0.064-0.319,0.185-0.439c0.113-0.121,0.263-0.179,0.44-0.179H589.038z"/>
		<path fill="#2D2D2D" d="M610.204,222.778c0.518,0,1.015,0.101,1.483,0.307c0.469,0.212,0.873,0.481,1.214,0.823
			c0.334,0.333,0.609,0.737,0.815,1.206s0.313,0.966,0.313,1.49v15.239c0,0.525-0.107,1.021-0.313,1.491
			c-0.206,0.468-0.481,0.873-0.815,1.228c-0.341,0.348-0.745,0.617-1.214,0.816c-0.469,0.191-0.966,0.291-1.483,0.291h-11.583
			c-0.519,0-1.016-0.1-1.484-0.291c-0.468-0.199-0.88-0.469-1.228-0.816c-0.348-0.354-0.625-0.76-0.816-1.228
			c-0.198-0.47-0.298-0.966-0.298-1.491v-15.239c0-0.524,0.1-1.021,0.298-1.49c0.191-0.469,0.469-0.873,0.816-1.206
			c0.348-0.342,0.76-0.611,1.228-0.823c0.469-0.206,0.966-0.307,1.484-0.307H610.204z M608.238,228.337h-7.688v11.775h7.688V228.337
			z"/>
		<path fill="#2D2D2D" d="M638.212,222.957c0.121,0.12,0.177,0.27,0.177,0.439v21.656c0,0.17-0.056,0.319-0.177,0.439
			s-0.27,0.178-0.439,0.178h-4.315h-0.398c-0.17,0-0.348-0.051-0.518-0.143c-0.177-0.099-0.305-0.227-0.397-0.376l-7.226-13.352
			v13.253c0,0.411-0.206,0.617-0.624,0.617h-4.515c-0.412,0-0.618-0.206-0.618-0.617v-21.656c0-0.412,0.206-0.618,0.618-0.618h4.649
			c0.17,0,0.347,0.051,0.524,0.143c0.171,0.1,0.299,0.227,0.391,0.376l7.261,13.38v-13.28c0-0.17,0.058-0.319,0.178-0.439
			c0.121-0.121,0.27-0.179,0.439-0.179h4.551C637.942,222.778,638.091,222.836,638.212,222.957z"/>
		<path fill="#2D2D2D" d="M660.911,222.957c0.121,0.12,0.184,0.27,0.184,0.439v1.867v0.979v1.277c0,0.171-0.062,0.312-0.184,0.426
			c-0.121,0.106-0.263,0.164-0.44,0.164h-2.321h-6.807h-1.831c-0.106,0-0.163,0.049-0.163,0.163v3.562
			c0,0.085,0.057,0.128,0.163,0.128h9.355c0.177,0,0.318,0.063,0.426,0.185c0.113,0.121,0.163,0.263,0.163,0.439v3.272
			c0,0.171-0.05,0.32-0.163,0.439c-0.107,0.121-0.249,0.179-0.426,0.179h-9.355c-0.106,0-0.163,0.056-0.163,0.163v1.604v0.035v1.896
			c0,0.113,0.057,0.164,0.163,0.164h1.377h7.389h2.193c0.178,0,0.319,0.063,0.44,0.177c0.121,0.121,0.184,0.27,0.184,0.447v1.306
			v1.704v1.079c0,0.17-0.062,0.319-0.184,0.439s-0.263,0.178-0.44,0.178h-1.867h-12.428h-1.958c-0.412,0-0.626-0.206-0.626-0.617
			v-1.115v-18.973v-1.568c0-0.17,0.064-0.319,0.185-0.439c0.121-0.121,0.263-0.179,0.441-0.179h2.384h12.826h1.043
			C660.648,222.778,660.79,222.836,660.911,222.957z"/>
		<path fill="#2D2D2D" d="M681.353,232.198c0.468,0.19,0.873,0.468,1.207,0.815c0.34,0.349,0.61,0.753,0.823,1.207
			c0.206,0.462,0.305,0.951,0.305,1.477v6.146c0,0.525-0.099,1.021-0.305,1.491c-0.213,0.468-0.483,0.873-0.823,1.228
			c-0.334,0.348-0.739,0.617-1.207,0.816c-0.469,0.191-0.965,0.291-1.491,0.291h-13.045c-0.419,0-0.624-0.206-0.624-0.617v-3.961
			c0-0.17,0.056-0.319,0.177-0.44s0.27-0.177,0.447-0.177h11.115c0.177,0,0.326-0.058,0.447-0.164
			c0.113-0.113,0.177-0.255,0.177-0.426v-2.719c0-0.17-0.063-0.318-0.177-0.439c-0.121-0.121-0.271-0.178-0.447-0.178h-7.914
			c-0.525,0-1.016-0.1-1.483-0.298c-0.476-0.198-0.88-0.469-1.228-0.816c-0.349-0.348-0.626-0.752-0.816-1.214
			c-0.199-0.454-0.298-0.943-0.298-1.47v-6.146c0-0.524,0.099-1.021,0.298-1.49c0.19-0.469,0.468-0.873,0.816-1.206
			c0.348-0.342,0.752-0.611,1.228-0.823c0.468-0.206,0.958-0.307,1.483-0.307h12.329c0.418,0,0.624,0.206,0.624,0.618v4.024
			c0,0.178-0.063,0.32-0.177,0.426c-0.121,0.106-0.271,0.163-0.447,0.163h-10.435c-0.17,0-0.312,0.058-0.419,0.178
			c-0.113,0.12-0.163,0.27-0.163,0.44v2.654c0,0.171,0.05,0.32,0.163,0.439c0.107,0.121,0.249,0.179,0.419,0.179h7.949
			C680.388,231.9,680.884,231.999,681.353,232.198z"/>
	</g>
</g>
</svg>
