<?xml version="1.0" encoding="utf-8"?>
<!-- Generator: Adobe Illustrator 16.0.4, SVG Export Plug-In . SVG Version: 6.00 Build 0)  -->
<!DOCTYPE svg PUBLIC "-//W3C//DTD SVG 1.1//EN" "http://www.w3.org/Graphics/SVG/1.1/DTD/svg11.dtd">
<svg version="1.1" id="pebble" xmlns:rdf="http://www.w3.org/1999/02/22-rdf-syntax-ns#" xmlns:svg="http://www.w3.org/2000/svg"
	 xmlns="http://www.w3.org/2000/svg" xmlns:xlink="http://www.w3.org/1999/xlink" x="0px" y="0px" width="774.369px" height="266px"
	 viewBox="0 0 774.369 266" enable-background="new 0 0 774.369 266" xml:space="preserve">
<g>
	<path id="p" d="M12.303,76.441h12.496v28.279C35.98,88.278,51.765,73.152,77.414,73.152c30.913,0,61.822,24.991,61.822,66.425
		v0.661c0,41.434-31.568,67.079-61.822,67.079c-25.649,0-42.091-14.464-52.615-30.251v67.741H12.303V76.441L12.303,76.441z
		 M125.424,140.894L125.424,140.894c0-34.201-23.019-55.245-49.982-55.245c-26.308,0-51.96,22.36-51.96,54.59v0.655
		c0,32.885,25.652,54.587,51.96,54.587C103.063,194.825,125.424,175.095,125.424,140.894L125.424,140.894z"/>
	<path id="b2" d="M317.471,176.411v27.618h-12.496V21.192h12.496v83.528c11.182-16.442,26.966-31.568,52.615-31.568
		c30.913,0,61.825,24.991,61.825,66.425v0.661c0,41.434-31.574,67.079-61.825,67.079
		C344.437,206.663,327.994,192.192,317.471,176.411L317.471,176.411z M418.758,140.894L418.758,140.894
		c0-34.201-23.02-55.245-49.989-55.245c-26.308,0-51.957,22.36-51.957,54.59v0.655c0,32.885,25.649,54.587,51.957,54.587
		C396.394,194.825,418.758,175.095,418.758,140.894L418.758,140.894z"/>
	<path id="b" d="M468.739,176.411v27.618H456.24V21.192h12.499v83.528c11.183-16.442,26.963-31.568,52.615-31.568
		c30.913,0,61.825,24.991,61.825,66.425v0.661c0,41.434-31.574,67.079-61.825,67.079
		C495.702,206.663,479.26,192.192,468.739,176.411L468.739,176.411z M570.026,140.894L570.026,140.894
		c0-34.201-23.02-55.245-49.988-55.245c-26.308,0-51.954,22.36-51.954,54.59v0.655c0,32.885,25.646,54.587,51.954,54.587
		C547.662,194.825,570.026,175.095,570.026,140.894L570.026,140.894z"/>
	<path id="l" d="M607.51,21.192h12.498v182.182H607.51V21.192L607.51,21.192z"/>
	<path id="e2" d="M177.384,153.393c5.26,26.962,26.308,42.088,48.668,42.088c19.731,0,33.543-8.549,44.063-19.73l8.552,7.238
		c-13.154,13.809-28.283,24.329-52.615,24.329c-34.201-0.654-63.139-26.963-63.139-67.079v-0.661
		c0-36.828,26.308-66.425,60.509-66.425c28.938,0,49.327,19.072,55.903,46.693c0.655,1.976,0.655,3.289,1.313,5.264L177.384,153.393
		L177.384,153.393z M266.172,117.874c-5.921-18.414-19.73-33.543-42.75-33.543c-24.994,0-44.725,21.048-46.697,49.327v7.891
		L266.172,117.874L266.172,117.874z"/>
	<path id="e" d="M658.153,153.393c5.26,26.962,26.308,42.088,48.671,42.088c19.731,0,33.54-8.549,44.066-19.73l8.549,7.238
		c-13.153,13.809-28.279,24.329-52.615,24.329c-33.546,0-62.48-26.963-62.48-66.424v-0.655c0-36.835,26.308-66.431,60.509-66.431
		c28.935,0,49.327,19.075,55.904,46.696c0.654,1.976,0.654,3.289,1.31,5.264L658.153,153.393L658.153,153.393z M746.941,117.874
		c-5.916-18.414-19.731-33.543-42.75-33.543c-24.991,0-44.722,21.048-46.693,49.327v7.891L746.941,117.874L746.941,117.874z"/>
</g>
</svg>
