<?xml version="1.0" encoding="utf-8"?>
<!-- Generator: Adobe Illustrator 16.0.4, SVG Export Plug-In . SVG Version: 6.00 Build 0)  -->
<!DOCTYPE svg PUBLIC "-//W3C//DTD SVG 1.1//EN" "http://www.w3.org/Graphics/SVG/1.1/DTD/svg11.dtd">
<svg version="1.1" id="Layer_2" xmlns="http://www.w3.org/2000/svg" xmlns:xlink="http://www.w3.org/1999/xlink" x="0px" y="0px"
	 width="572.168px" height="610px" viewBox="125.167 37.286 572.168 610" enable-background="new 125.167 37.286 572.168 610"
	 xml:space="preserve">
<g>
	<g>
		<polygon fill="#1D567D" points="342.671,295.704 277.433,295.739 244.782,239.074 277.369,182.374 342.607,182.338 
			375.259,239.002 		"/>
		<polygon fill="#5BA3D9" points="339.743,410.702 274.504,410.739 241.854,354.073 274.441,297.374 339.677,297.338 
			372.33,354.001 		"/>
		<polygon fill="#1D567D" points="341.243,528.036 276.004,528.073 243.353,471.407 275.94,414.708 341.177,414.671 
			373.829,471.335 		"/>
		<polygon fill="#5BA3D9" points="441.838,469.39 376.601,469.427 343.949,412.761 376.536,356.06 441.774,356.024 474.424,412.688 
					"/>
		<polygon fill="#5BA3D9" points="544.172,412.688 478.934,412.726 446.282,356.06 478.87,299.36 544.106,299.324 576.758,355.987 
					"/>
		<polygon fill="#1D567D" points="542.338,296.704 477.1,296.739 444.448,240.074 477.036,183.374 542.272,183.338 574.924,240.002 
					"/>
		<polygon fill="#5BA3D9" points="544.077,180.523 478.838,180.559 446.186,123.894 478.774,67.194 544.012,67.157 576.663,123.822 
					"/>
		<polygon fill="#1D567D" points="442.577,237.224 377.338,237.26 344.686,180.595 377.274,123.895 442.51,123.859 475.163,180.523 
					"/>
		<polygon fill="#222B5E" points="319.424,376.358 294.782,376.372 282.449,355.038 294.757,333.691 319.401,333.677 
			331.734,355.011 		"/>
		<polygon fill="#222B5E" points="320.924,492.026 296.282,492.04 283.949,470.706 296.257,449.358 320.901,449.345 
			333.234,470.679 		"/>
		<polygon fill="#222B5E" points="422.756,435.024 398.115,435.038 385.782,413.704 398.091,392.356 422.733,392.343 
			435.067,413.677 		"/>
		<polygon fill="#222B5E" points="522.924,377.858 498.282,377.872 485.948,356.538 498.258,335.191 522.901,335.177 
			535.233,356.511 		"/>
		<polygon fill="#222B5E" points="523.09,261.193 498.448,261.206 486.114,239.872 498.424,218.525 523.067,218.511 
			535.399,239.845 		"/>
		<polygon fill="#222B5E" points="422.256,202.526 397.615,202.539 385.282,181.205 397.591,159.858 422.233,159.844 
			434.567,181.178 		"/>
		<polygon fill="#222B5E" points="523.758,145.193 499.116,145.206 486.782,123.872 499.092,102.525 523.735,102.511 
			536.067,123.845 		"/>
		<polygon fill="#222B5E" points="322.758,262.026 298.116,262.039 285.782,240.705 298.091,219.358 322.734,219.344 
			335.068,240.678 		"/>
		<ellipse fill="#222B5E" cx="382.674" cy="253.108" rx="4.083" ry="3.917"/>
		<ellipse fill="#222B5E" cx="435.84" cy="255.942" rx="4.084" ry="3.917"/>
		<ellipse fill="#222B5E" cx="450.674" cy="306.941" rx="4.084" ry="3.917"/>
		<ellipse fill="#222B5E" cx="431.756" cy="322.941" rx="4.084" ry="3.918"/>
		<ellipse fill="#222B5E" cx="444.448" cy="340.275" rx="4.082" ry="3.916"/>
		<ellipse fill="#222B5E" cx="390.841" cy="340.274" rx="4.083" ry="3.917"/>
		<ellipse fill="#222B5E" cx="385.395" cy="316.926" rx="4.083" ry="3.918"/>
		<ellipse fill="#222B5E" cx="372.33" cy="305.942" rx="4.083" ry="3.917"/>
		
			<line fill="none" stroke="#222B5E" stroke-width="3" stroke-miterlimit="10" x1="326.091" y1="249.192" x2="383.591" y2="286.358"/>
		
			<line fill="none" stroke="#222B5E" stroke-width="3" stroke-miterlimit="10" x1="384.425" y1="285.192" x2="372.33" y2="305.942"/>
		
			<line fill="none" stroke="#222B5E" stroke-width="3" stroke-miterlimit="10" x1="326.091" y1="345.252" x2="363.634" y2="322.942"/>
		
			<line fill="none" stroke="#222B5E" stroke-width="3" stroke-miterlimit="10" x1="362.474" y1="323.632" x2="352.508" y2="305.942"/>
		<line fill="none" stroke="#222B5E" stroke-width="3" stroke-miterlimit="10" x1="353.072" y1="306.941" x2="382.675" y2="253.9"/>
		
			<line fill="none" stroke="#222B5E" stroke-width="3" stroke-miterlimit="10" x1="408.258" y1="308.025" x2="408.258" y2="197.15"/>
		
			<line fill="none" stroke="#222B5E" stroke-width="3" stroke-miterlimit="10" x1="450.674" y1="306.941" x2="406.633" y2="306.941"/>
		
			<line fill="none" stroke="#222B5E" stroke-width="3" stroke-miterlimit="10" x1="435.84" y1="255.942" x2="408.258" y2="255.942"/>
		
			<line fill="none" stroke="#222B5E" stroke-width="3" stroke-miterlimit="10" x1="431.756" y1="322.942" x2="431.756" y2="283.025"/>
		<line fill="none" stroke="#222B5E" stroke-width="3" stroke-miterlimit="10" x1="431.756" y1="284.4" x2="503.633" y2="245.4"/>
		<line fill="none" stroke="#222B5E" stroke-width="3" stroke-miterlimit="10" x1="410.424" y1="392.349" x2="410.424" y2="316.4"/>
		
			<line fill="none" stroke="#222B5E" stroke-width="3" stroke-miterlimit="10" x1="410.424" y1="340.274" x2="390.841" y2="340.274"/>
		
			<line fill="none" stroke="#222B5E" stroke-width="3" stroke-miterlimit="10" x1="385.394" y1="316.926" x2="411.633" y2="316.926"/>
		
			<line fill="none" stroke="#222B5E" stroke-width="3" stroke-miterlimit="10" x1="444.448" y1="340.274" x2="454.133" y2="322.942"/>
		
			<line fill="none" stroke="#222B5E" stroke-width="3" stroke-miterlimit="10" x1="453.309" y1="324.415" x2="494.383" y2="348.149"/>
	</g>
	<g enable-background="new    ">
		<path fill="#222B5E" d="M212.487,617.415c-3.34,0-6.274-0.322-8.804-0.967s-4.878-1.445-7.046-2.402v-10.371h0.996
			c2.188,1.855,4.6,3.281,7.236,4.277s5.195,1.494,7.676,1.494c0.625,0,1.45-0.068,2.476-0.205s1.851-0.352,2.476-0.645
			c0.762-0.332,1.406-0.795,1.934-1.391s0.791-1.383,0.791-2.359c0-1.094-0.43-1.982-1.289-2.666s-1.885-1.182-3.076-1.494
			c-1.484-0.391-3.071-0.762-4.761-1.113s-3.267-0.781-4.731-1.289c-3.379-1.191-5.801-2.793-7.266-4.805s-2.197-4.531-2.197-7.559
			c0-4.082,1.729-7.387,5.186-9.916s7.773-3.795,12.949-3.795c2.598,0,5.181,0.264,7.749,0.791s4.868,1.24,6.899,2.139v9.961h-0.967
			c-1.621-1.387-3.599-2.559-5.933-3.516s-4.731-1.436-7.192-1.436c-0.957,0-1.816,0.068-2.578,0.205s-1.562,0.4-2.402,0.791
			c-0.684,0.312-1.274,0.777-1.772,1.393s-0.747,1.303-0.747,2.064c0,1.113,0.396,1.998,1.187,2.652s2.319,1.244,4.585,1.771
			c1.465,0.332,2.876,0.654,4.233,0.967s2.808,0.742,4.351,1.289c3.027,1.094,5.278,2.564,6.753,4.41s2.212,4.281,2.212,7.309
			c0,4.336-1.704,7.822-5.112,10.459S218.288,617.415,212.487,617.415z"/>
		<path fill="#222B5E" d="M232.321,616.624l14.736-43.623h11.953l14.736,43.623h-11.279l-2.725-8.906h-13.711l-2.725,8.906H232.321z
			 M257.34,599.808l-4.453-14.385l-4.453,14.385H257.34z"/>
		<path fill="#222B5E" d="M299.821,616.624h-23.496v-7.617h6.27v-28.389h-6.27v-7.617h23.496v7.617h-6.27v28.389h6.27V616.624z"/>
		<path fill="#222B5E" d="M320.563,617.415c-3.34,0-6.274-0.322-8.804-0.967s-4.878-1.445-7.046-2.402v-10.371h0.996
			c2.188,1.855,4.6,3.281,7.236,4.277s5.195,1.494,7.676,1.494c0.625,0,1.45-0.068,2.476-0.205s1.851-0.352,2.476-0.645
			c0.762-0.332,1.406-0.795,1.934-1.391s0.791-1.383,0.791-2.359c0-1.094-0.43-1.982-1.289-2.666s-1.885-1.182-3.076-1.494
			c-1.484-0.391-3.071-0.762-4.761-1.113s-3.267-0.781-4.731-1.289c-3.379-1.191-5.801-2.793-7.266-4.805s-2.197-4.531-2.197-7.559
			c0-4.082,1.729-7.387,5.186-9.916s7.773-3.795,12.949-3.795c2.598,0,5.181,0.264,7.749,0.791s4.868,1.24,6.899,2.139v9.961h-0.967
			c-1.621-1.387-3.599-2.559-5.933-3.516s-4.731-1.436-7.192-1.436c-0.957,0-1.816,0.068-2.578,0.205s-1.562,0.4-2.402,0.791
			c-0.684,0.312-1.274,0.777-1.772,1.393s-0.747,1.303-0.747,2.064c0,1.113,0.396,1.998,1.187,2.652s2.319,1.244,4.585,1.771
			c1.465,0.332,2.876,0.654,4.233,0.967s2.808,0.742,4.351,1.289c3.027,1.094,5.278,2.564,6.753,4.41s2.212,4.281,2.212,7.309
			c0,4.336-1.704,7.822-5.112,10.459S326.364,617.415,320.563,617.415z"/>
		<path fill="#222B5E" d="M384.049,594.856c0,4.062-0.889,7.701-2.666,10.914s-4.023,5.678-6.738,7.396
			c-2.266,1.465-4.731,2.408-7.397,2.828s-5.503,0.629-8.511,0.629h-13.652v-43.623h13.535c3.066,0,5.938,0.195,8.613,0.586
			s5.186,1.338,7.529,2.842c2.871,1.836,5.137,4.312,6.797,7.428S384.049,590.638,384.049,594.856z M372.799,594.769
			c0-2.871-0.493-5.326-1.479-7.367s-2.505-3.639-4.556-4.791c-1.484-0.82-3.042-1.27-4.673-1.348s-3.579-0.117-5.845-0.117h-0.205
			v27.305h0.205c2.461,0,4.536-0.043,6.226-0.131s3.296-0.611,4.819-1.568c1.797-1.133,3.164-2.695,4.102-4.688
			S372.799,597.64,372.799,594.769z"/>
		<path fill="#222B5E" d="M426.237,601.448h-19.424v-8.145h19.424V601.448z"/>
		<path fill="#222B5E" d="M465.026,617.415c-3.34,0-6.274-0.322-8.804-0.967s-4.878-1.445-7.046-2.402v-10.371h0.996
			c2.188,1.855,4.6,3.281,7.236,4.277s5.195,1.494,7.676,1.494c0.625,0,1.45-0.068,2.476-0.205s1.851-0.352,2.476-0.645
			c0.762-0.332,1.406-0.795,1.934-1.391s0.791-1.383,0.791-2.359c0-1.094-0.43-1.982-1.289-2.666s-1.885-1.182-3.076-1.494
			c-1.484-0.391-3.071-0.762-4.761-1.113s-3.267-0.781-4.731-1.289c-3.379-1.191-5.801-2.793-7.266-4.805s-2.197-4.531-2.197-7.559
			c0-4.082,1.729-7.387,5.186-9.916s7.773-3.795,12.949-3.795c2.598,0,5.181,0.264,7.749,0.791s4.868,1.24,6.899,2.139v9.961h-0.967
			c-1.621-1.387-3.599-2.559-5.933-3.516s-4.731-1.436-7.192-1.436c-0.957,0-1.816,0.068-2.578,0.205s-1.562,0.4-2.402,0.791
			c-0.684,0.312-1.274,0.777-1.772,1.393s-0.747,1.303-0.747,2.064c0,1.113,0.396,1.998,1.187,2.652s2.319,1.244,4.585,1.771
			c1.465,0.332,2.876,0.654,4.233,0.967s2.808,0.742,4.351,1.289c3.027,1.094,5.278,2.564,6.753,4.41s2.212,4.281,2.212,7.309
			c0,4.336-1.704,7.822-5.112,10.459S470.827,617.415,465.026,617.415z"/>
		<path fill="#222B5E" d="M484.86,616.624l14.736-43.623h11.953l14.736,43.623h-11.279l-2.725-8.906h-13.711l-2.725,8.906H484.86z
			 M509.879,599.808l-4.453-14.385l-4.453,14.385H509.879z"/>
		<path fill="#222B5E" d="M552.36,616.624h-23.496v-7.617h6.27v-28.389h-6.27v-7.617h23.496v7.617h-6.27v28.389h6.27V616.624z"/>
		<path fill="#222B5E" d="M568.004,616.624v-35.303h-12.891v-8.32h36.738v8.32h-12.891v35.303H568.004z"/>
		<path fill="#222B5E" d="M596.364,616.624v-43.623h29.502v8.32h-18.604v7.646h17.139v8.32h-17.139v11.016h18.604v8.32H596.364z"/>
	</g>
</g>
</svg>
