<?xml version="1.0" encoding="utf-8"?>
<!-- Generator: Adobe Illustrator 16.0.4, SVG Export Plug-In . SVG Version: 6.00 Build 0)  -->
<!DOCTYPE svg PUBLIC "-//W3C//DTD SVG 1.1//EN" "http://www.w3.org/Graphics/SVG/1.1/DTD/svg11.dtd">
<svg version="1.1" id="Layer_1" xmlns="http://www.w3.org/2000/svg" xmlns:xlink="http://www.w3.org/1999/xlink" x="0px" y="0px"
	 width="668px" height="215.148px" viewBox="0 0 668 215.148" enable-background="new 0 0 668 215.148" xml:space="preserve">
<g>
	<g>
		<path fill="#FF4338" d="M193.535,137.465c-8.257,0-14.632-1.809-19.127-5.424c-4.497-3.617-6.967-8.42-7.408-14.41h13.93
			c0.516,3.287,1.861,5.662,4.036,7.123c2.174,1.461,4.956,2.191,8.348,2.191c3.317,0,5.878-0.584,7.685-1.754
			c1.805-1.168,2.709-2.74,2.709-4.711c0-1.316-0.425-2.375-1.272-3.18c-0.849-0.803-1.953-1.461-3.316-1.973
			c-1.365-0.51-2.948-0.93-4.754-1.26c-1.808-0.328-3.668-0.674-5.583-1.041c-2.582-0.51-5.069-1.096-7.463-1.754
			c-2.397-0.656-4.534-1.605-6.414-2.85c-1.878-1.241-3.391-2.849-4.532-4.821c-1.145-1.973-1.714-4.494-1.714-7.562
			s0.589-5.715,1.769-7.945c1.178-2.228,2.819-4.09,4.92-5.588c2.102-1.496,4.55-2.613,7.354-3.344
			c2.8-0.729,5.821-1.095,9.064-1.095c7.52,0,13.306,1.681,17.359,5.041c4.053,3.36,6.375,7.89,6.965,13.589H202.49
			c-0.369-3.068-1.476-5.206-3.317-6.411c-1.843-1.206-4.386-1.81-7.628-1.81c-2.95,0-5.308,0.531-7.076,1.591
			s-2.653,2.612-2.653,4.657c0,1.244,0.441,2.211,1.326,2.904s2.046,1.279,3.483,1.754c1.437,0.475,3.095,0.857,4.975,1.148
			c1.88,0.295,3.815,0.658,5.806,1.098c2.357,0.512,4.733,1.096,7.131,1.754c2.394,0.656,4.55,1.627,6.468,2.902
			c1.915,1.279,3.464,2.96,4.645,5.042c1.178,2.082,1.768,4.768,1.768,8.055c0,2.85-0.59,5.389-1.768,7.617
			c-1.181,2.23-2.82,4.109-4.922,5.645c-2.101,1.533-4.606,2.721-7.518,3.561C200.296,137.043,197.073,137.465,193.535,137.465"/>
		<path fill="#FF4338" d="M249.366,137.465c-4.497,0-8.533-0.766-12.107-2.301c-3.575-1.535-6.615-3.633-9.121-6.301
			c-2.507-2.666-4.441-5.809-5.805-9.426c-1.365-3.615-2.045-7.506-2.045-11.671c0-4.164,0.663-8.055,1.99-11.672
			c1.327-3.615,3.223-6.756,5.692-9.424c2.471-2.666,5.437-4.768,8.902-6.301c3.463-1.535,7.369-2.302,11.719-2.302
			c3.686,0,7.002,0.512,9.951,1.534c2.947,1.023,5.508,2.43,7.685,4.219c2.173,1.791,3.941,3.945,5.307,6.466
			c1.362,2.521,2.303,5.315,2.819,8.384h-14.705c-0.517-2.484-1.679-4.549-3.483-6.191c-1.806-1.645-4.109-2.467-6.91-2.467
			c-4.57,0-7.999,1.59-10.281,4.768c-2.286,3.178-3.428,7.506-3.428,12.986c0,5.335,1.086,9.628,3.262,12.878
			c2.173,3.252,5.584,4.875,10.228,4.875c3.095,0,5.638-0.783,7.628-2.355c1.99-1.568,3.242-3.963,3.759-7.178h14.484
			c-0.222,2.998-0.978,5.791-2.268,8.383c-1.289,2.594-3.022,4.861-5.195,6.795c-2.175,1.938-4.792,3.471-7.851,4.604
			C256.533,136.899,253.124,137.465,249.366,137.465"/>
		<path fill="#FF4338" d="M294.809,86.946h0.331c2.063-2.996,4.349-5.224,6.855-6.687c2.505-1.459,5.711-2.19,9.619-2.19
			c2.946,0,5.62,0.53,8.016,1.589c2.394,1.059,4.439,2.52,6.137,4.383c1.694,1.864,3.021,4.074,3.979,6.63
			c0.957,2.56,1.438,5.37,1.438,8.438v36.714h-15.037v-34.521c0-3.07-0.849-5.553-2.543-7.453c-1.696-1.899-4.129-2.85-7.297-2.85
			c-3.317,0-6.064,1.189-8.237,3.562c-2.176,2.375-3.262,5.498-3.262,9.369v31.892h-15.036V57.465h15.036V86.946z"/>
		<path fill="#FF4338" d="M365.679,137.467c-4.423,0-8.44-0.77-12.052-2.303s-6.726-3.635-9.343-6.301
			c-2.617-2.668-4.642-5.809-6.081-9.426c-1.438-3.615-2.155-7.506-2.155-11.671c0-4.166,0.718-8.055,2.155-11.672
			c1.439-3.615,3.464-6.756,6.081-9.424c2.617-2.666,5.731-4.768,9.343-6.301c3.611-1.535,7.629-2.303,12.052-2.303
			c4.424,0,8.439,0.768,12.052,2.303c3.609,1.533,6.725,3.635,9.343,6.301c2.616,2.668,4.643,5.809,6.081,9.424
			c1.437,3.617,2.156,7.506,2.156,11.672c0,4.165-0.72,8.056-2.156,11.671c-1.438,3.617-3.465,6.758-6.081,9.426
			c-2.618,2.666-5.733,4.768-9.343,6.301C374.118,136.698,370.103,137.467,365.679,137.467 M365.679,126.069
			c4.645,0,8.198-1.68,10.669-5.041c2.47-3.359,3.704-7.781,3.704-13.261c0-5.479-1.234-9.918-3.704-13.314
			c-2.471-3.397-6.024-5.097-10.669-5.097c-4.644,0-8.199,1.699-10.67,5.097c-2.47,3.396-3.703,7.836-3.703,13.314
			c0,5.479,1.233,9.901,3.703,13.261C357.479,124.389,361.035,126.069,365.679,126.069"/>
		<path fill="#FF4338" d="M427.482,137.467c-4.423,0-8.441-0.77-12.052-2.303c-3.611-1.533-6.727-3.635-9.344-6.301
			c-2.616-2.668-4.642-5.809-6.081-9.426c-1.437-3.615-2.154-7.506-2.154-11.671c0-4.166,0.718-8.055,2.154-11.672
			c1.439-3.615,3.465-6.756,6.081-9.424c2.617-2.666,5.732-4.768,9.344-6.301c3.61-1.535,7.629-2.303,12.052-2.303
			s8.438,0.768,12.051,2.303c3.61,1.533,6.725,3.635,9.343,6.301c2.616,2.668,4.644,5.809,6.081,9.424
			c1.438,3.617,2.156,7.506,2.156,11.672c0,4.165-0.719,8.056-2.156,11.671c-1.438,3.617-3.465,6.758-6.081,9.426
			c-2.618,2.666-5.732,4.768-9.343,6.301C435.921,136.698,431.905,137.467,427.482,137.467 M427.482,126.069
			c4.644,0,8.198-1.68,10.669-5.041c2.469-3.359,3.704-7.781,3.704-13.261c0-5.479-1.235-9.918-3.704-13.314
			c-2.471-3.397-6.025-5.097-10.669-5.097c-4.645,0-8.2,1.699-10.67,5.097c-2.471,3.396-3.703,7.836-3.703,13.314
			c0,5.479,1.232,9.901,3.703,13.261C419.282,124.389,422.838,126.069,427.482,126.069"/>
		<rect x="462.64" y="57.465" fill="#FF4338" width="15.037" height="78.357"/>
		<path fill="#FF4338" d="M501.006,86.946h0.331c2.063-2.996,4.349-5.224,6.855-6.687c2.505-1.459,5.711-2.19,9.619-2.19
			c2.946,0,5.62,0.53,8.017,1.589c2.393,1.059,4.438,2.52,6.136,4.383c1.694,1.864,3.021,4.074,3.979,6.63
			c0.957,2.56,1.438,5.37,1.438,8.438v36.714h-15.037v-34.521c0-3.07-0.848-5.553-2.543-7.453c-1.696-1.899-4.129-2.85-7.297-2.85
			c-3.317,0-6.064,1.189-8.237,3.562c-2.176,2.375-3.262,5.498-3.262,9.369v31.892H485.97V57.465h15.036V86.946z"/>
		<path fill="#FF4338" d="M580.831,135.823v-6.576H580.5c-1.918,2.559-4.109,4.549-6.578,5.973
			c-2.472,1.426-5.694,2.139-9.675,2.139c-6.341,0-11.204-1.826-14.595-5.48c-3.39-3.652-5.086-8.584-5.086-14.795V79.603h14.926
			v34.958c0,3.289,0.755,5.809,2.268,7.562c1.51,1.752,3.887,2.631,7.131,2.631c3.539,0,6.32-1.188,8.348-3.562
			c2.026-2.373,3.04-5.424,3.04-9.15V79.603h15.037v56.22H580.831z"/>
		<path fill="#FF4338" d="M635.008,137.467c-3.98,0-7.371-0.787-10.172-2.357c-2.803-1.57-5.051-3.672-6.744-6.301h-0.221v7.014
			h-14.484V57.466h15.036v28.932h0.332c1.548-2.338,3.575-4.311,6.081-5.919c2.505-1.606,5.749-2.411,9.729-2.411
			c3.538,0,6.818,0.731,9.841,2.192c3.021,1.463,5.601,3.489,7.739,6.082c2.137,2.594,3.815,5.718,5.031,9.37
			c1.216,3.654,1.824,7.672,1.824,12.055c0,4.532-0.59,8.64-1.77,12.329c-1.179,3.691-2.818,6.812-4.92,9.371
			c-2.101,2.557-4.626,4.529-7.574,5.916C641.789,136.77,638.546,137.467,635.008,137.467 M631.69,124.973
			c3.906,0,6.892-1.496,8.955-4.494c2.063-2.994,3.097-7.23,3.097-12.712c0-5.262-1.051-9.516-3.151-12.768
			c-2.101-3.25-5.252-4.877-9.453-4.877c-2.36,0-4.367,0.457-6.026,1.371c-1.658,0.914-3.004,2.154-4.035,3.725
			c-1.032,1.572-1.787,3.453-2.267,5.645c-0.479,2.191-0.718,4.602-0.718,7.232c0,5.188,1.216,9.3,3.647,12.331
			C624.173,123.458,627.489,124.973,631.69,124.973"/>
	</g>
	<g>
		<path fill="#FF4338" d="M72.999,111.78c-8.261,0-15.751,3.369-21.168,8.805l-0.006-0.006c-3.319,3.299-7.889,5.342-12.927,5.342
			c-10.118,0-18.346-8.232-18.346-18.347c0-10.115,8.228-18.344,18.346-18.344V77.679C22.413,77.679,9,91.087,9,107.574
			c0,16.483,13.413,29.896,29.898,29.896c0.962,0,1.908-0.047,2.846-0.135v0.002c0.04-0.004,0.074-0.012,0.114-0.012
			c0.769,0,1.387,0.621,1.387,1.389c0,0.033-0.001,0.068-0.005,0.096c-0.088,0.945-0.137,1.898-0.137,2.867
			c0,16.484,13.413,29.898,29.896,29.898c16.487,0,29.898-13.414,29.898-29.898S89.486,111.78,72.999,111.78 M72.999,160.024
			c-10.114,0-18.344-8.23-18.344-18.348s8.229-18.348,18.344-18.348c10.117,0,18.348,8.23,18.348,18.348
			S83.116,160.024,72.999,160.024"/>
		<path fill="#FF4338" d="M107.104,77.677c-0.965,0-1.914,0.047-2.852,0.137v-0.006c-0.04,0.004-0.077,0.012-0.116,0.012
			c-0.762,0-1.376-0.612-1.386-1.372c0.096-0.979,0.146-1.974,0.146-2.976c0-16.486-13.411-29.898-29.898-29.898
			c-16.482,0-29.896,13.412-29.896,29.898c0,16.483,13.413,29.895,29.896,29.895c8.264,0,15.753-3.369,21.172-8.805l0.006,0.008
			c3.319-3.299,7.889-5.34,12.928-5.34c10.115,0,18.344,8.229,18.344,18.342c0,10.116-8.229,18.349-18.344,18.349v11.549
			c16.484,0,29.896-13.41,29.896-29.897C137,91.086,123.589,77.677,107.104,77.677 M72.999,91.816
			c-10.114,0-18.344-8.229-18.344-18.344c0-10.117,8.229-18.346,18.344-18.346c10.117,0,18.348,8.229,18.348,18.346
			C91.347,83.586,83.116,91.816,72.999,91.816"/>
	</g>
</g>
</svg>
