<?xml version="1.0" encoding="utf-8"?>
<!-- Generator: Adobe Illustrator 16.0.4, SVG Export Plug-In . SVG Version: 6.00 Build 0)  -->
<!DOCTYPE svg PUBLIC "-//W3C//DTD SVG 1.1//EN" "http://www.w3.org/Graphics/SVG/1.1/DTD/svg11.dtd">
<svg version="1.1" id="Layer_1" xmlns="http://www.w3.org/2000/svg" xmlns:xlink="http://www.w3.org/1999/xlink" x="0px" y="0px"
	 width="668px" height="215.148px" viewBox="0 0 668 215.148" enable-background="new 0 0 668 215.148" xml:space="preserve">
<g display="none">
	<g display="inline">
		<path fill="#FF4338" d="M193.535,137.465c-8.257,0-14.632-1.809-19.127-5.424c-4.497-3.617-6.967-8.42-7.408-14.41h13.93
			c0.516,3.287,1.861,5.662,4.036,7.123c2.174,1.461,4.956,2.191,8.348,2.191c3.317,0,5.878-0.584,7.685-1.754
			c1.805-1.168,2.709-2.74,2.709-4.711c0-1.316-0.425-2.375-1.272-3.18c-0.849-0.803-1.953-1.461-3.316-1.973
			c-1.365-0.51-2.948-0.93-4.754-1.26c-1.808-0.328-3.668-0.674-5.583-1.041c-2.582-0.51-5.069-1.096-7.463-1.754
			c-2.397-0.656-4.534-1.605-6.414-2.85c-1.878-1.241-3.391-2.849-4.532-4.821c-1.145-1.973-1.714-4.494-1.714-7.562
			s0.589-5.715,1.769-7.945c1.178-2.228,2.819-4.09,4.92-5.588c2.102-1.496,4.55-2.613,7.354-3.344
			c2.8-0.729,5.821-1.095,9.064-1.095c7.52,0,13.306,1.681,17.359,5.041c4.053,3.36,6.375,7.89,6.965,13.589H202.49
			c-0.369-3.068-1.476-5.206-3.317-6.411c-1.843-1.206-4.386-1.81-7.628-1.81c-2.95,0-5.308,0.531-7.076,1.591
			s-2.653,2.612-2.653,4.657c0,1.244,0.441,2.211,1.326,2.904s2.046,1.279,3.483,1.754c1.437,0.475,3.095,0.857,4.975,1.148
			c1.88,0.295,3.815,0.658,5.806,1.098c2.357,0.512,4.733,1.096,7.131,1.754c2.394,0.656,4.55,1.627,6.468,2.902
			c1.915,1.279,3.464,2.96,4.645,5.042c1.178,2.082,1.768,4.768,1.768,8.055c0,2.85-0.59,5.389-1.768,7.617
			c-1.181,2.23-2.82,4.109-4.922,5.645c-2.101,1.533-4.606,2.721-7.518,3.561C200.296,137.043,197.073,137.465,193.535,137.465"/>
		<path fill="#FF4338" d="M249.366,137.465c-4.497,0-8.533-0.766-12.107-2.301c-3.575-1.535-6.615-3.633-9.121-6.301
			c-2.507-2.666-4.441-5.809-5.805-9.426c-1.365-3.615-2.045-7.506-2.045-11.671c0-4.164,0.663-8.055,1.99-11.672
			c1.327-3.615,3.223-6.756,5.692-9.424c2.471-2.666,5.437-4.768,8.902-6.301c3.463-1.535,7.369-2.302,11.719-2.302
			c3.686,0,7.002,0.512,9.951,1.534c2.947,1.023,5.508,2.43,7.685,4.219c2.173,1.791,3.941,3.945,5.307,6.466
			c1.362,2.521,2.303,5.315,2.819,8.384h-14.705c-0.517-2.484-1.679-4.549-3.483-6.191c-1.806-1.645-4.109-2.467-6.91-2.467
			c-4.57,0-7.999,1.59-10.281,4.768c-2.286,3.178-3.428,7.506-3.428,12.986c0,5.335,1.086,9.628,3.262,12.878
			c2.173,3.252,5.584,4.875,10.228,4.875c3.095,0,5.638-0.783,7.628-2.355c1.99-1.568,3.242-3.963,3.759-7.178h14.484
			c-0.222,2.998-0.978,5.791-2.268,8.383c-1.289,2.594-3.022,4.861-5.195,6.795c-2.175,1.938-4.792,3.471-7.851,4.604
			C256.533,136.899,253.124,137.465,249.366,137.465"/>
		<path fill="#FF4338" d="M294.809,86.946h0.331c2.063-2.996,4.349-5.224,6.855-6.687c2.505-1.459,5.711-2.19,9.619-2.19
			c2.946,0,5.62,0.53,8.016,1.589c2.394,1.059,4.439,2.52,6.137,4.383c1.694,1.864,3.021,4.074,3.979,6.63
			c0.957,2.56,1.438,5.37,1.438,8.438v36.714h-15.037v-34.521c0-3.07-0.849-5.553-2.543-7.453c-1.696-1.899-4.129-2.85-7.297-2.85
			c-3.317,0-6.064,1.189-8.237,3.562c-2.176,2.375-3.262,5.498-3.262,9.369v31.892h-15.036V57.465h15.036V86.946z"/>
		<path fill="#FF4338" d="M365.679,137.467c-4.423,0-8.44-0.77-12.052-2.303s-6.726-3.635-9.343-6.301
			c-2.617-2.668-4.642-5.809-6.081-9.426c-1.438-3.615-2.155-7.506-2.155-11.671c0-4.166,0.718-8.055,2.155-11.672
			c1.439-3.615,3.464-6.756,6.081-9.424c2.617-2.666,5.731-4.768,9.343-6.301c3.611-1.535,7.629-2.303,12.052-2.303
			c4.424,0,8.439,0.768,12.052,2.303c3.609,1.533,6.725,3.635,9.343,6.301c2.616,2.668,4.643,5.809,6.081,9.424
			c1.437,3.617,2.156,7.506,2.156,11.672c0,4.165-0.72,8.056-2.156,11.671c-1.438,3.617-3.465,6.758-6.081,9.426
			c-2.618,2.666-5.733,4.768-9.343,6.301C374.118,136.698,370.103,137.467,365.679,137.467 M365.679,126.069
			c4.645,0,8.198-1.68,10.669-5.041c2.47-3.359,3.704-7.781,3.704-13.261c0-5.479-1.234-9.918-3.704-13.314
			c-2.471-3.397-6.024-5.097-10.669-5.097c-4.644,0-8.199,1.699-10.67,5.097c-2.47,3.396-3.703,7.836-3.703,13.314
			c0,5.479,1.233,9.901,3.703,13.261C357.479,124.389,361.035,126.069,365.679,126.069"/>
		<path fill="#FF4338" d="M427.482,137.467c-4.423,0-8.441-0.77-12.052-2.303c-3.611-1.533-6.727-3.635-9.344-6.301
			c-2.616-2.668-4.642-5.809-6.081-9.426c-1.437-3.615-2.154-7.506-2.154-11.671c0-4.166,0.718-8.055,2.154-11.672
			c1.439-3.615,3.465-6.756,6.081-9.424c2.617-2.666,5.732-4.768,9.344-6.301c3.61-1.535,7.629-2.303,12.052-2.303
			s8.438,0.768,12.051,2.303c3.61,1.533,6.725,3.635,9.343,6.301c2.616,2.668,4.644,5.809,6.081,9.424
			c1.438,3.617,2.156,7.506,2.156,11.672c0,4.165-0.719,8.056-2.156,11.671c-1.438,3.617-3.465,6.758-6.081,9.426
			c-2.618,2.666-5.732,4.768-9.343,6.301C435.921,136.698,431.905,137.467,427.482,137.467 M427.482,126.069
			c4.644,0,8.198-1.68,10.669-5.041c2.469-3.359,3.704-7.781,3.704-13.261c0-5.479-1.235-9.918-3.704-13.314
			c-2.471-3.397-6.025-5.097-10.669-5.097c-4.645,0-8.2,1.699-10.67,5.097c-2.471,3.396-3.703,7.836-3.703,13.314
			c0,5.479,1.232,9.901,3.703,13.261C419.282,124.389,422.838,126.069,427.482,126.069"/>
		<rect x="462.64" y="57.465" fill="#FF4338" width="15.037" height="78.357"/>
		<path fill="#FF4338" d="M501.006,86.946h0.331c2.063-2.996,4.349-5.224,6.855-6.687c2.505-1.459,5.711-2.19,9.619-2.19
			c2.946,0,5.62,0.53,8.017,1.589c2.393,1.059,4.438,2.52,6.136,4.383c1.694,1.864,3.021,4.074,3.979,6.63
			c0.957,2.56,1.438,5.37,1.438,8.438v36.714h-15.037v-34.521c0-3.07-0.848-5.553-2.543-7.453c-1.696-1.899-4.129-2.85-7.297-2.85
			c-3.317,0-6.064,1.189-8.237,3.562c-2.176,2.375-3.262,5.498-3.262,9.369v31.892H485.97V57.465h15.036V86.946z"/>
		<path fill="#FF4338" d="M580.831,135.823v-6.576H580.5c-1.918,2.559-4.109,4.549-6.578,5.973
			c-2.472,1.426-5.694,2.139-9.675,2.139c-6.341,0-11.204-1.826-14.595-5.48c-3.39-3.652-5.086-8.584-5.086-14.795V79.603h14.926
			v34.958c0,3.289,0.755,5.809,2.268,7.562c1.51,1.752,3.887,2.631,7.131,2.631c3.539,0,6.32-1.188,8.348-3.562
			c2.026-2.373,3.04-5.424,3.04-9.15V79.603h15.037v56.22H580.831z"/>
		<path fill="#FF4338" d="M635.008,137.467c-3.98,0-7.371-0.787-10.172-2.357c-2.803-1.57-5.051-3.672-6.744-6.301h-0.221v7.014
			h-14.484V57.466h15.036v28.932h0.332c1.548-2.338,3.575-4.311,6.081-5.919c2.505-1.606,5.749-2.411,9.729-2.411
			c3.538,0,6.818,0.731,9.841,2.192c3.021,1.463,5.601,3.489,7.739,6.082c2.137,2.594,3.815,5.718,5.031,9.37
			c1.216,3.654,1.824,7.672,1.824,12.055c0,4.532-0.59,8.64-1.77,12.329c-1.179,3.691-2.818,6.812-4.92,9.371
			c-2.101,2.557-4.626,4.529-7.574,5.916C641.789,136.77,638.546,137.467,635.008,137.467 M631.69,124.973
			c3.906,0,6.892-1.496,8.955-4.494c2.063-2.994,3.097-7.23,3.097-12.712c0-5.262-1.051-9.516-3.151-12.768
			c-2.101-3.25-5.252-4.877-9.453-4.877c-2.36,0-4.367,0.457-6.026,1.371c-1.658,0.914-3.004,2.154-4.035,3.725
			c-1.032,1.572-1.787,3.453-2.267,5.645c-0.479,2.191-0.718,4.602-0.718,7.232c0,5.188,1.216,9.3,3.647,12.331
			C624.173,123.458,627.489,124.973,631.69,124.973"/>
	</g>
	<g display="inline">
		<path fill="#FF4338" d="M72.999,111.78c-8.261,0-15.751,3.369-21.168,8.805l-0.006-0.006c-3.319,3.299-7.889,5.342-12.927,5.342
			c-10.118,0-18.346-8.232-18.346-18.347c0-10.115,8.228-18.344,18.346-18.344V77.679C22.413,77.679,9,91.087,9,107.574
			c0,16.483,13.413,29.896,29.898,29.896c0.962,0,1.908-0.047,2.846-0.135v0.002c0.04-0.004,0.074-0.012,0.114-0.012
			c0.769,0,1.387,0.621,1.387,1.389c0,0.033-0.001,0.068-0.005,0.096c-0.088,0.945-0.137,1.898-0.137,2.867
			c0,16.484,13.413,29.898,29.896,29.898c16.487,0,29.898-13.414,29.898-29.898S89.486,111.78,72.999,111.78 M72.999,160.024
			c-10.114,0-18.344-8.23-18.344-18.348s8.229-18.348,18.344-18.348c10.117,0,18.348,8.23,18.348,18.348
			S83.116,160.024,72.999,160.024"/>
		<path fill="#FF4338" d="M107.104,77.677c-0.965,0-1.914,0.047-2.852,0.137v-0.006c-0.04,0.004-0.077,0.012-0.116,0.012
			c-0.762,0-1.376-0.612-1.386-1.372c0.096-0.979,0.146-1.974,0.146-2.976c0-16.486-13.411-29.898-29.898-29.898
			c-16.482,0-29.896,13.412-29.896,29.898c0,16.483,13.413,29.895,29.896,29.895c8.264,0,15.753-3.369,21.172-8.805l0.006,0.008
			c3.319-3.299,7.889-5.34,12.928-5.34c10.115,0,18.344,8.229,18.344,18.342c0,10.116-8.229,18.349-18.344,18.349v11.549
			c16.484,0,29.896-13.41,29.896-29.897C137,91.086,123.589,77.677,107.104,77.677 M72.999,91.816
			c-10.114,0-18.344-8.229-18.344-18.344c0-10.117,8.229-18.346,18.344-18.346c10.117,0,18.348,8.229,18.348,18.346
			C91.347,83.586,83.116,91.816,72.999,91.816"/>
	</g>
</g>
<g>
	<path fill="#F16622" d="M568.815,110.043c0,1.779-0.56,3.235-1.679,4.362c-1.118,1.131-2.553,1.695-4.31,1.695
		c-1.736,0-3.159-0.57-4.263-1.711c-1.106-1.138-1.659-2.587-1.659-4.347c0-1.758,0.56-3.207,1.69-4.349
		c1.127-1.136,2.56-1.708,4.296-1.708c1.759,0,3.184,0.565,4.28,1.693C568.268,106.809,568.815,108.263,568.815,110.043z"/>
	<g>
		<g>
			<path fill="#2E3191" d="M572.609,115.531V93.218c0-2.22-0.042-4.564-0.126-7.032c-0.039-1.146,0.98-2.472,1.535-2.765
				c2.599-1.351,7.815-0.753,7.815-0.753l-0.288,4.567h0.203c2.326-3.539,5.706-5.311,10.144-5.311c2.131,0,4.013,0.506,5.648,1.514
				c1.633,1.008,2.821,2.43,3.564,4.267h0.131c2.755-3.851,6.361-5.78,10.817-5.78c3.472,0,6.234,1.256,8.281,3.765
				c2.051,2.51,3.073,6.07,3.073,10.687v19.155h-10.075V97.854c0-5.064-1.687-7.595-5.042-7.595c-1.504,0-2.748,0.577-3.748,1.728
				c-0.992,1.156-1.492,2.66-1.492,4.522v19.021h-10.077V97.382c0-2.285-0.43-4.045-1.284-5.271
				c-0.852-1.233-2.058-1.851-3.628-1.851c-1.453,0-2.718,0.583-3.778,1.748c-1.066,1.165-1.595,2.688-1.595,4.567v18.956H572.609z"
				/>
			<path fill="#2E3191" d="M625.137,82.668h11.627c3.134,4.93,5.192,8.354,6.181,10.28h0.204c0.623-1.389,2.506-4.815,5.644-10.28
				h11.359l-11.226,15.589l11.359,17.273h-11.83c-3.292-5.578-5.307-9.207-6.047-10.891h-0.204
				c-0.578,1.301-2.532,4.931-5.843,10.891h-11.493l11.558-16.805L625.137,82.668z"/>
		</g>
		<g>
			<path fill="#2E3191" d="M483.869,115.587v-22.37c0-2.079-0.039-4.261-0.106-6.557c-0.044-1.306,0.766-2.812,1.804-3.348
				c2.266-1.177,7.702-0.675,7.702-0.675l-0.173,4.648h0.276c2.441-3.589,5.925-5.386,10.439-5.386c3.706,0,6.653,1.252,8.841,3.758
				c2.188,2.501,3.283,6.032,3.283,10.591v19.338h-10.441V97.594c0-4.893-1.816-7.344-5.454-7.344c-1.486,0-2.808,0.561-3.977,1.688
				c-1.169,1.121-1.752,2.715-1.752,4.778v18.871H483.869z"/>
			<path fill="#2E3191" d="M146.496,113.971l1.887-7.417c1.213,0.699,2.698,1.288,4.46,1.77c1.763,0.483,3.33,0.725,4.699,0.725
				c3.01,0,4.518-0.897,4.518-2.694c0-0.897-0.369-1.596-1.098-2.088c-0.729-0.495-2.025-1.033-3.89-1.619
				c-6.469-1.999-9.703-5.275-9.703-9.835c0-3.165,1.264-5.774,3.792-7.831c2.527-2.056,5.844-3.081,9.952-3.081
				c3.595,0,6.781,0.652,9.564,1.955l-1.815,7.142c-2.606-1.26-5.076-1.891-7.412-1.891c-2.694,0-4.043,0.879-4.043,2.627
				c0,0.789,0.41,1.453,1.229,1.989c0.821,0.54,2.251,1.134,4.294,1.79c3.143,0.986,5.458,2.295,6.939,3.921
				c1.482,1.625,2.224,3.689,2.224,6.184c0,3.253-1.28,5.857-3.84,7.799c-2.562,1.941-6.13,2.915-10.712,2.915
				C153.322,116.33,149.639,115.543,146.496,113.971z"/>
			<path fill="#2E3191" d="M206.271,102.446h-21.896c0.18,1.954,1.163,3.477,2.951,4.563c1.783,1.093,4.013,1.635,6.685,1.635
				c3.413,0,6.555-0.473,9.431-1.414l1.347,6.94c-3.413,1.44-7.501,2.159-12.261,2.159c-5.635,0-10.056-1.506-13.253-4.515
				c-3.202-3.014-4.798-7.124-4.798-12.333c0-4.785,1.533-8.909,4.611-12.379c3.076-3.473,7.218-5.203,12.428-5.203
				c4.805,0,8.533,1.551,11.186,4.65c2.648,3.098,3.972,7.07,3.972,11.92C206.673,100.064,206.539,101.39,206.271,102.446z
				 M184.309,95.306h12.664c0-1.552-0.455-3.027-1.362-4.429c-0.91-1.405-2.457-2.108-4.631-2.108c-1.797,0-3.286,0.604-4.464,1.804
				C185.334,91.773,184.6,93.352,184.309,95.306z"/>
			<path fill="#2E3191" d="M243.431,92.407v18.258c0,6.429-1.495,11.211-4.48,14.354c-2.989,3.144-7.757,4.72-14.315,4.72
				c-4.918,0-9.003-0.877-12.26-2.631l2.088-7.881c3.077,1.706,6.377,2.56,9.902,2.56c2.763,0,4.924-0.745,6.484-2.237
				c1.559-1.498,2.341-3.647,2.341-6.454v-2.16h-0.134c-2.18,2.921-5.255,4.383-9.229,4.383c-4.156,0-7.585-1.495-10.291-4.483
				c-2.706-2.986-4.059-6.839-4.059-11.553c0-5.075,1.481-9.242,4.445-12.499c2.966-3.256,6.605-4.883,10.915-4.883
				c4.265,0,7.388,1.571,9.365,4.714h0.133c0,0-0.042-1.838,1.442-3.074c1.732-1.441,7.923-0.903,7.923-0.903
				C243.521,85.245,243.431,88.5,243.431,92.407z M232.988,100.625v-4.376c0-1.91-0.552-3.476-1.65-4.702
				c-1.098-1.221-2.55-1.835-4.343-1.835c-2,0-3.656,0.841-4.969,2.527c-1.314,1.684-1.974,3.939-1.974,6.769
				c0,2.493,0.619,4.564,1.855,6.217c1.236,1.65,2.93,2.475,5.087,2.475c1.435,0,2.793-0.522,4.075-1.566
				C232.348,105.09,232.988,103.254,232.988,100.625z"/>
			<path fill="#2E3191" d="M280.641,82.637v22.301c0,3.528,0.088,7.077,0.269,10.649h-9.025l-0.471-4.788h-0.268
				c-2.338,3.688-5.864,5.53-10.579,5.53c-3.773,0-6.703-1.231-8.792-3.69c-2.088-2.463-3.133-6.017-3.133-10.665V86.155
				c0,0,0.061-1.602,1.811-2.715c2.025-1.289,8.632-0.803,8.632-0.803v17.584c0,5.167,1.798,7.749,5.388,7.749
				c1.506,0,2.835-0.549,3.993-1.65c1.157-1.1,1.734-2.507,1.734-4.212V86.025c0,0,0.508-1.806,1.757-2.512
				C274.356,82.155,280.641,82.637,280.641,82.637z"/>
			<path fill="#2E3191" d="M347.739,68.248c2.526-1.298,8.198-0.628,8.198-0.628v38.128c0,3.593,0.091,6.873,0.271,9.84h-9.297
				l-0.406-4.99h-0.134c-2.291,3.824-5.887,5.732-10.784,5.732c-4.066,0-7.499-1.576-10.301-4.736
				c-2.793-3.156-4.196-7.216-4.196-12.18c0-5.276,1.48-9.518,4.435-12.712c2.958-3.202,6.556-4.802,10.806-4.802
				c4.224,0,7.235,1.259,9.028,3.771h0.138V72.03C345.498,72.03,345.43,69.432,347.739,68.248z M345.498,100.625V96.79
				c0-2.023-0.594-3.684-1.786-4.99c-1.192-1.303-2.731-1.954-4.617-1.954c-2.291,0-4.1,0.85-5.426,2.544
				c-1.326,1.694-1.989,3.924-1.989,6.687c0,2.74,0.663,4.918,1.989,6.538c1.326,1.615,3.111,2.421,5.36,2.421
				c1.613,0,3.096-0.588,4.445-1.767C344.824,105.09,345.498,103.206,345.498,100.625z"/>
			<path fill="#2E3191" d="M389.465,96.113v11.454c0,3.325,0.177,5.997,0.535,8.021h-9.36l-0.603-3.299h-0.267
				c-2.273,2.691-5.485,4.041-9.64,4.041c-3.229,0-5.859-0.981-7.879-2.949c-2.023-1.966-3.035-4.354-3.035-7.16
				c0-4.089,1.714-7.222,5.141-9.401c3.421-2.175,8.337-3.268,14.732-3.268v-0.402c0-2.742-2.064-4.112-6.195-4.112
				c-3.369,0-6.491,0.832-9.362,2.495l-1.954-6.604c3.66-2.02,8.036-3.029,13.137-3.029c4.847,0,8.519,1.221,11.01,3.669
				S389.465,91.532,389.465,96.113z M379.428,103.388v-3.368c-6.602,0-9.902,1.706-9.902,5.12c0,1.236,0.373,2.196,1.111,2.88
				c0.745,0.687,1.764,1.029,3.066,1.029c1.415,0,2.721-0.494,3.923-1.481C378.826,106.58,379.428,105.186,379.428,103.388z"/>
			<path fill="#2E3191" d="M394.822,115.587v-22.37c0-2.222-0.047-4.573-0.127-7.049c-0.038-1.151,0.981-2.478,1.544-2.773
				c2.603-1.355,7.829-0.759,7.829-0.759l-0.287,4.583h0.199c2.343-3.546,5.729-5.321,10.175-5.321c2.131,0,4.02,0.506,5.659,1.514
				c1.636,1.01,2.828,2.439,3.571,4.282h0.131c2.764-3.865,6.377-5.796,10.849-5.796c3.479,0,6.247,1.259,8.301,3.771
				c2.054,2.516,3.085,6.085,3.085,10.709v19.208h-10.106V97.862c0-5.072-1.685-7.612-5.055-7.612c-1.505,0-2.754,0.583-3.75,1.738
				c-1.001,1.156-1.503,2.665-1.503,4.528v19.071h-10.102V97.392c0-2.291-0.433-4.052-1.284-5.29
				c-0.854-1.231-2.064-1.853-3.636-1.853c-1.461,0-2.725,0.587-3.791,1.755c-1.065,1.167-1.598,2.691-1.598,4.577v19.005H394.822z"
				/>
			<path fill="#2E3191" d="M478.976,96.113v11.454c0,3.325,0.176,5.997,0.54,8.021h-9.366l-0.608-3.299h-0.268
				c-2.27,2.691-5.477,4.041-9.636,4.041c-3.23,0-5.858-0.981-7.878-2.949c-2.023-1.966-3.032-4.354-3.032-7.16
				c0-4.089,1.71-7.222,5.141-9.401c3.421-2.175,8.329-3.268,14.733-3.268v-0.402c0-2.742-2.069-4.112-6.2-4.112
				c-3.368,0-6.487,0.832-9.362,2.495l-1.953-6.604c3.655-2.02,8.038-3.029,13.135-3.029c4.852,0,8.523,1.221,11.014,3.669
				C477.726,88.018,478.976,91.532,478.976,96.113z M468.936,103.388v-3.368c-6.6,0-9.902,1.706-9.902,5.12
				c0,1.236,0.368,2.196,1.111,2.88c0.742,0.687,1.762,1.029,3.064,1.029c1.419,0,2.726-0.494,3.925-1.481
				C468.337,106.58,468.936,105.186,468.936,103.388z"/>
			<path fill="#2E3191" d="M555.235,98.74c0,5.388-1.698,9.671-5.086,12.837c-3.392,3.169-7.648,4.752-12.765,4.752
				c-5.166,0-9.396-1.556-12.7-4.668c-3.303-3.11-4.95-7.219-4.95-12.312c0-5.235,1.658-9.455,4.984-12.648
				c3.323-3.202,7.723-4.802,13.202-4.802c5.12,0,9.286,1.571,12.493,4.714C553.63,89.758,555.235,93.8,555.235,98.74z
				 M530.44,99.146c0,2.918,0.636,5.277,1.904,7.075c1.27,1.792,2.97,2.694,5.105,2.694c2.088,0,3.771-0.89,5.035-2.66
				c1.268-1.776,1.901-4.169,1.901-7.177c0-2.874-0.606-5.221-1.813-7.039c-1.215-1.818-2.901-2.729-5.059-2.729
				c-2.219,0-3.955,0.915-5.199,2.744C531.066,93.883,530.44,96.249,530.44,99.146z"/>
			<path fill="#2E3191" d="M285.832,115.587v-22.37c0-2.079-0.039-4.261-0.112-6.557c-0.04-1.306,0.769-2.812,1.807-3.348
				c2.267-1.177,7.707-0.675,7.707-0.675l-0.176,4.648h0.271c2.45-3.589,5.93-5.386,10.442-5.386c3.705,0,6.654,1.252,8.844,3.758
				c2.19,2.501,3.285,6.032,3.285,10.591v19.338h-10.444V97.594c0-4.893-1.82-7.344-5.458-7.344c-1.483,0-2.808,0.561-3.974,1.688
				c-1.167,1.121-1.751,2.715-1.751,4.778v18.871H285.832z"/>
		</g>
	</g>
	<g>
		<path fill="#F16622" d="M124.638,128.276c0.003,4.413-3.774,10.279-8.441,13.096l-33.385,23.55
			c-4.667,2.82-8.456,1.527-8.462-2.882l-6.012-56.052c-0.004-4.41,3.772-9.6,8.44-11.592l40.914-24.491
			c4.67-1.991,8.457-0.029,8.465,4.382L124.638,128.276z"/>
		<path fill="#1E979C" d="M24.435,144.727c2,5.198,3.8,7.599,8.798,10.001l28.187,12.393c4.998,2.2,7.607-1.159,6.902-5.706
			l-7.834-55.578c-0.998-5.198-4.399-7.997-9.211-9.21L12.785,84.25c-5.523-1.194-5.828,4.11-4.228,8.906L24.435,144.727z"/>
		<path fill="#2E3191" d="M74.376,89.382c-9.662,5.436-11.171,5.587-17.662,3.171c0,0-32.91-9.662-39.552-12.227
			c-5.784-2.236-5.929-5.756,1.509-10.417c4.489-2.813,34.269-19.172,34.269-19.172c7.754-3.703,9.371-4.301,18.353-2.188
			l41.126,9.132c15.7,3.021-2.817,10.919-7.448,13.739L74.376,89.382z"/>
		<g>
			<path fill="#FFFFFF" d="M88.278,134.858l20.779-14.835c0,0,0.065-10.161,3.332-17.048c1.251-2.637,2.223-5.273,2.265-9.607
				c0.055-5.845-5.902-8.44-15.519-1.575c-9.618,6.863-15.592,18.731-15.641,23.818c-0.041,4.438,1.484,5.656,2.288,6.357
				C88.822,124.612,88.278,134.858,88.278,134.858z"/>
			<path fill="#FFFFFF" d="M79.985,123.925c-1.809,1.288-2.749,4.435-2.779,7.522c-0.03,3.088,2.675,3.161,2.675,3.161l0.048,20.398
				l8.454-6.037l-0.029,3.245l3.852-2.747l0.032-3.252l12.478-8.644l-0.032,2.889l3.846-2.747l0.033-2.895l9.285-7.805l0.116-19.588
				c0,0,2.572-3.527,2.604-6.935c0.033-3.408-1.449-4.508-2.5-3.753c-1.056,0.757-7.315,5.648-7.501,25.031
				c0.771-0.554-24.167,17.253-24.167,17.253S87.316,118.689,79.985,123.925z"/>
		</g>
		<path fill="#FFFFFF" d="M58.142,152.173c0,0-5.715-36.081-6.727-41.424c-0.66-3.479-3.35-4.646-8.565-6.311
			c-3.715-1.186-15.312-4.809-19.921-6.124c-3.683-1.052-3.658,1.967-3.658,1.967s9.964,36.341,11,40.17
			c1.289,4.749,6.525,7.301,6.525,7.301s14.112,5.933,16.741,7.04C59.056,157.115,58.142,152.173,58.142,152.173z M52.162,140.689
			c0.229,0.845-0.274,1.246-1.122,0.895l-2.23-0.945c-0.847-0.35-1.723-1.332-1.952-2.183c-0.229-0.845,0.269-1.249,1.116-0.891
			l2.236,0.933C51.051,138.856,51.926,139.837,52.162,140.689z M50.727,135.407c0.229,0.851-0.269,1.253-1.115,0.896l-2.231-0.938
			c-0.853-0.358-1.722-1.334-1.951-2.184c-0.235-0.853,0.268-1.253,1.115-0.896l2.229,0.937
			C49.623,133.58,50.499,134.562,50.727,135.407z M44.551,143.645l-2.23-0.936c-0.848-0.353-1.723-1.333-1.953-2.184
			c-0.228-0.852,0.27-1.249,1.117-0.897l2.231,0.943c0.846,0.352,1.722,1.336,1.95,2.184
			C45.901,143.607,45.398,144.002,44.551,143.645z M26.873,117.743l-3.836-14.161c-0.473-1.744,0.552-2.573,2.298-1.842
			l18.174,6.343c2.69,1.329,4.203,2.085,4.53,4.398l2.128,14.704c0.471,1.75-1.063,2.54-2.805,1.808l-16.475-6.755
			C29.142,121.504,27.347,119.495,26.873,117.743z M30.075,126.691c-0.219-0.804,0.253-1.179,1.05-0.843l2.104,0.884
			c0.802,0.335,1.622,1.259,1.841,2.06c0.219,0.804-0.253,1.181-1.055,0.841l-2.104-0.887
			C31.116,128.413,30.296,127.493,30.075,126.691z M31.504,131.965c-0.214-0.797,0.258-1.175,1.054-0.838l2.105,0.88
			c0.796,0.341,1.623,1.26,1.84,2.058c0.215,0.806-0.258,1.181-1.054,0.847l-2.104-0.886
			C32.549,133.689,31.723,132.768,31.504,131.965z M36.927,140.361l-2.104-0.886c-0.803-0.331-1.623-1.253-1.841-2.054
			c-0.219-0.805,0.258-1.178,1.056-0.844l2.104,0.886c0.795,0.334,1.62,1.258,1.835,2.059
			C38.196,140.322,37.724,140.702,36.927,140.361z M37.461,129.795c-0.232-0.853,0.27-1.248,1.118-0.897l2.23,0.939
			c0.847,0.356,1.722,1.341,1.951,2.188c0.229,0.845-0.268,1.247-1.116,0.89l-2.23-0.936
			C38.567,131.627,37.691,130.644,37.461,129.795z M40.006,134.18l2.23,0.936c0.849,0.359,1.723,1.336,1.957,2.187
			c0.229,0.851-0.272,1.253-1.119,0.894l-2.231-0.938c-0.848-0.358-1.723-1.333-1.951-2.184
			C38.661,134.226,39.159,133.819,40.006,134.18z M48.811,149.959l-7.892-3.318c-0.58-0.238-1.179-0.914-1.338-1.494
			c-0.155-0.585,0.186-0.86,0.766-0.614l7.891,3.316c0.581,0.247,1.179,0.915,1.339,1.495
			C49.73,149.929,49.389,150.205,48.811,149.959z M52.518,147.033l-2.23-0.937c-0.848-0.358-1.722-1.336-1.951-2.185
			c-0.229-0.851,0.267-1.254,1.116-0.897l2.234,0.938c0.843,0.357,1.719,1.336,1.947,2.185
			C53.867,146.987,53.365,147.389,52.518,147.033z"/>
		<path fill="#FFFFFF" d="M41.999,77.315c1.104,0.602,3.616,2.805,6.707,3.666c3.093,0.86,8.329,1.897,8.329,1.897
			s5.998,1.833,7.597,2.322c1.599,0.488,3.433,0.724,5.997-0.763c2.565-1.487-0.175-2.611-0.175-2.611l-2.398-0.734l23.22-13.46
			c0,0,1.733,0.529,2.798,0.854c1.068,0.328,3.032,0.604,5.417-0.778c2.382-1.379,0.533-2.433,0.533-2.433l-8.581-2.46
			c0,0-4.506-2.105-7.439-3.004c-2.932-0.895-9.246-1.364-9.734-1.433c-0.493-0.069-1.389-0.153,0.518-1.304
			c1.835-1.107,0.609-1.453-0.513-1.762c-1.123-0.312-2.203-0.269-3.07-0.056c-0.861,0.211-3.633,2.046-3.776,2.248
			c-0.14,0.199,0.566,0.498-0.015,0.48c-0.585-0.016-8.788-0.334-10.495-0.29c-1.709,0.048-4.925,1.073-6.53,1.899
			c-1.607,0.826-12.911,7.247-15.117,8.762c-2.21,1.516-0.037,2.985-0.037,2.985l3.535,3.6l-1.498-0.016
			c0,0-2.708,1.452-3.307,1.919c-0.6,0.464-0.903,0.889,1.272,1.561c2.275,0.701,4.023-0.797,4.666-1.169
			C40.541,76.862,41.469,77.027,41.999,77.315z M68.795,59.542c0,0-5.514,4.659-11.917,8.369c-6.297,3.65-14.287,6.819-14.287,6.819
			s-3.439-3.079-4.081-4.005s0.826-1.775,1.333-2.187c0.507-0.413,11.409-6.733,14.108-8.18c2.7-1.445,4.624-1.263,4.624-1.263
			L68.795,59.542z M72.551,62.986c-0.713-1.046,0.688-2.833,1.356-2.908c0.67-0.078,1.624-0.234,4.698,0.462
			c3.074,0.695,2.663,1.637-0.374,3.791C75.427,66.315,73.262,64.034,72.551,62.986z M65.503,76.06
			c-0.551-0.169-0.69-0.481-0.312-0.702l12.042-6.979c0.378-0.219,1.129-0.261,1.681-0.092l0.449,0.138
			c0.552,0.168,0.568,1.15-0.405,1.716l-9.255,5.362c-1.046,0.609-3.2,0.862-3.749,0.695L65.503,76.06z M47.835,78.376
			c-2.525-1.016-2.467-1.447-2.499-1.738c-0.034-0.291,3.568-1.407,6.154-1.444c2.585-0.041,8.405,0.122,4.791,1.858
			C52.363,78.936,50.359,79.39,47.835,78.376z"/>
	</g>
</g>
</svg>
