<?xml version="1.0" encoding="utf-8"?>
<!-- Generator: Adobe Illustrator 16.0.4, SVG Export Plug-In . SVG Version: 6.00 Build 0)  -->
<!DOCTYPE svg PUBLIC "-//W3C//DTD SVG 1.1//EN" "http://www.w3.org/Graphics/SVG/1.1/DTD/svg11.dtd">
<svg version="1.1" id="Layer_1" xmlns="http://www.w3.org/2000/svg" xmlns:xlink="http://www.w3.org/1999/xlink" x="0px" y="0px"
	 width="668px" height="215.148px" viewBox="0 0 668 215.148" enable-background="new 0 0 668 215.148" xml:space="preserve">
<g>
	<path fill-rule="evenodd" clip-rule="evenodd" fill="#13167E" d="M98.002,184.49c0-3.747,0-7.481,0-11.398
		c1.111-0.21,2.252-0.426,3.394-0.644c7.011-1.331,13.764-3.39,19.952-7.05c4.346-2.571,8.134-5.791,11.301-9.731
		c0.302-0.376,0.581-0.771,0.854-1.168c0.05-0.072,0.022-0.198,0.04-0.418c-30.664,0-61.317,0-92.037,0
		c-0.068,0.664,0.453,1.032,0.793,1.458c4.774,5.982,10.842,10.198,17.893,13.071c4.9,1.997,10,3.259,15.201,4.154
		c0.574,0.099,1.144,0.219,1.734,0.332c0,3.854,0,7.593,0,11.342c-34.267-3.387-69.344-33.234-71.665-77.036
		C3.001,60.924,38.884,23.085,83.184,20.836c46.362-2.354,84.149,33.503,86.402,77.734C171.926,144.51,137.305,180.05,98.002,184.49
		z M110.137,30.182c-0.118,0.107-0.176,0.134-0.186,0.173c-0.081,0.311-0.182,0.619-0.223,0.935
		c-0.534,4.112-2.387,7.658-4.724,10.993c-2.476,3.531-5.315,6.759-8.382,9.78c-9.072,8.939-18.173,17.85-27.261,26.771
		c-4.026,3.952-8.122,7.837-12.054,11.881c-3.772,3.878-6.875,8.258-8.865,13.341c-2.93,7.478-2.341,14.618,2.154,21.351
		c0.296,0.442,0.494,1.052,1.179,1.173c0.1-1.203,0.144-2.331,0.295-3.443c0.538-3.955,2.117-7.532,4.112-10.938
		c3.093-5.279,7.027-9.893,11.4-14.139c7.363-7.15,14.793-14.231,22.119-21.42c6.29-6.173,12.48-12.448,18.699-18.694
		c2.445-2.457,4.473-5.219,5.854-8.423c3.016-7.001,1.423-13.472-3.533-18.908C110.556,30.433,110.321,30.316,110.137,30.182z
		 M87.047,24.479c0.205,3.055-0.188,5.791-1.175,8.44c-1.467,3.937-3.745,7.37-6.6,10.41c-2.168,2.31-4.442,4.521-6.697,6.748
		C62.6,59.929,52.6,69.758,42.638,79.622c-3.46,3.425-6.369,7.271-8.406,11.724c-2.475,5.406-3.168,11.014-1.711,16.812
		c1.465,5.83,4.648,10.69,8.688,15.044c0.129,0.138,0.327,0.212,0.701,0.448c-0.314-1.358-0.576-2.497-0.841-3.635
		c-2.208-9.468-0.497-18.14,5.431-25.875c1.726-2.252,3.621-4.401,5.633-6.402C64.241,75.689,76.413,63.703,88.55,51.682
		c2.464-2.44,4.474-5.2,5.759-8.462C96.94,36.543,94.208,29.351,87.047,24.479z M120.713,50.182
		c-0.181,0.246-0.315,0.357-0.361,0.499c-0.983,3.019-2.708,5.633-4.739,7.994c-3.151,3.662-6.339,7.313-9.764,10.715
		c-11.591,11.512-23.337,22.866-34.936,34.371c-6.998,6.941-11.596,15.188-12.463,25.17c-0.652,7.508,1.418,14.144,6.945,19.491
		c0.527,0.511,1.129,0.943,1.972,1.641c-0.2-0.881-0.311-1.394-0.433-1.902c-0.594-2.47-0.876-4.974-0.745-7.511
		c0.238-4.615,1.384-9.007,3.299-13.207c2.962-6.499,7.284-12.015,12.33-16.996c10.019-9.893,20.083-19.739,30.072-29.661
		c2.319-2.304,4.579-4.707,6.576-7.29c3.414-4.418,4.896-9.505,4.372-15.114C122.576,55.591,121.887,52.909,120.713,50.182z
		 M139.497,58.555c-1.312,2.114-2.351,4.198-3.767,5.981c-2.669,3.36-5.362,6.741-8.389,9.771
		c-10.289,10.302-20.739,20.439-31.1,30.669c-3.439,3.396-6.865,6.812-10.165,10.343c-2.542,2.719-4.599,5.813-6.024,9.282
		c-1.367,3.329-2.027,6.767-1.615,10.389c0.625,5.489,3.172,10.079,6.553,14.295c0.122,0.151,0.312,0.247,0.606,0.472
		c0.017-0.357,0.059-0.553,0.03-0.735c-0.374-2.424-0.157-4.818,0.338-7.201c0.956-4.597,3.027-8.703,5.569-12.595
		c3.099-4.748,6.81-8.99,10.849-12.946c9.249-9.062,18.534-18.085,27.777-27.151c2.836-2.781,5.738-5.51,7.985-8.832
		C142.845,73.347,142.589,66.103,139.497,58.555z M104.005,149.889c0.694-2.073,1.216-3.983,1.966-5.8
		c1.801-4.361,4.418-8.249,7.545-11.745c2.969-3.319,6.143-6.458,9.27-9.635c3.504-3.561,7.129-7.004,10.57-10.624
		c4.883-5.136,7.099-11.296,6.565-18.395c-0.126-1.679-0.286-3.361-0.854-4.993c-0.215,0.104-0.353,0.123-0.39,0.195
		c-1.413,2.716-3.533,4.857-5.703,6.944c-7.706,7.41-15.458,14.772-23.146,22.201c-4.258,4.114-7.241,9.041-8.829,14.761
		c-1.145,4.12-1.346,8.26,0.146,12.359C101.77,146.88,102.623,148.473,104.005,149.889z"/>
	<path fill-rule="evenodd" clip-rule="evenodd" fill="#13167E" d="M352.965,117.289c5.412,0,10.717,0,16.126,0
		c0.048,0.467,0.114,0.875,0.125,1.284c0.011,0.368-0.039,0.736-0.067,1.201c-0.621,0.106-1.19,0.205-1.762,0.3
		c-0.688,0.116-1.386,0.189-2.062,0.349c-2.216,0.521-3.117,1.502-3.255,3.786c-0.112,1.874-0.095,3.759-0.054,5.638
		c0.233,10.691,0.484,21.382,0.752,32.072c0.032,1.286,0.143,2.577,0.315,3.854c0.338,2.509,1.382,3.59,3.858,4.077
		c1.043,0.204,2.101,0.343,3.235,0.525c0,0.848,0,1.625,0,2.502c-8.027,0-15.959,0-24.03,0c0-0.819,0-1.632,0-2.521
		c0.917-0.153,1.812-0.285,2.699-0.454c2.773-0.527,3.776-1.604,3.959-4.44c0.12-1.876,0.132-3.76,0.125-5.64
		c-0.036-10.318-0.093-20.638-0.147-30.955c-0.003-0.613-0.045-1.226-0.067-1.8c-0.229-0.023-0.281-0.039-0.329-0.03
		c-0.051,0.01-0.111,0.03-0.145,0.066c-0.068,0.079-0.129,0.169-0.182,0.259c-0.055,0.093-0.101,0.19-0.144,0.289
		c-6.41,14.841-12.82,29.682-19.268,44.61c-0.679,0-1.354,0-2.178,0c-5.992-14.739-12.008-29.536-18.024-44.334
		c-0.132,0.021-0.264,0.039-0.396,0.06c-0.063,0.503-0.161,1.005-0.183,1.51c-0.438,9.716-0.898,19.431-1.272,29.149
		c-0.087,2.249,0.072,4.513,0.22,6.763c0.159,2.415,1.167,3.583,3.54,4.165c1.298,0.319,2.634,0.485,4.081,0.742
		c0,0.792,0,1.618,0,2.554c-6.653,0-13.29,0-20.047,0c0-0.85,0-1.671,0-2.571c0.807-0.154,1.59-0.297,2.37-0.455
		c2.676-0.542,4.284-2.124,4.639-4.863c0.443-3.409,0.963-6.812,1.25-10.234c0.685-8.191,1.269-16.391,1.854-24.59
		c0.119-1.658,0.154-3.335,0.065-4.993c-0.161-3.014-1.252-4.233-4.184-4.856c-1.037-0.22-2.094-0.348-3.206-0.527
		c0-0.839,0-1.574,0-2.298c1.22-0.325,13.117-0.44,16.283-0.149c5.762,12.93,11.562,25.948,17.363,38.966
		c0.122,0.008,0.245,0.016,0.368,0.023c2.071-4.263,3.938-8.625,5.921-12.93c1.979-4.293,3.91-8.606,5.863-12.911
		C348.95,126.129,350.928,121.776,352.965,117.289z"/>
	<path fill-rule="evenodd" clip-rule="evenodd" fill="#13167E" d="M475.458,96.964c-2.988-1.092-5.281-2.614-6.63-5.238
		c-0.567-1.104-0.992-2.256-0.818-3.643c2.975-1.311,5.831-2.856,8.1-5.468c-0.383-0.223-0.638-0.403-0.917-0.529
		c-8.591-3.875-8.778-14.898-3.362-20.241c3.093-3.052,6.893-4.485,11.143-4.835c3.111-0.257,6.117,0.274,8.94,1.611
		c1.021,0.484,2.025,0.615,3.117,0.502c2.831-0.292,5.666-0.562,8.499-0.829c0.626-0.059,1.257-0.067,2.069-0.109
		c-0.114,0.536-0.118,0.908-0.271,1.202c-0.347,0.666-0.768,1.292-1.157,1.935c-0.999,1.647-2.274,2.632-4.368,2.108
		c-0.735-0.184-1.555-0.029-2.53-0.029c0.243,0.44,0.385,0.711,0.538,0.976c3.015,5.204,1.78,11.903-2.911,15.723
		c-2.627,2.139-5.693,3.246-9.021,3.521c-1.753,0.145-3.539,0.001-5.302-0.126c-1.382-0.099-1.856,0.069-2.59,1.343
		c-0.637,1.105-0.591,2.057,0.181,2.984c0.725,0.87,1.705,1.369,2.798,1.433c2.14,0.125,4.287,0.177,6.43,0.158
		c2.9-0.025,5.804-0.209,8.668,0.431c0.418,0.094,0.836,0.197,1.247,0.319c5.146,1.531,7.373,5.482,6.855,10.762
		c-0.328,3.337-1.837,6.156-4.102,8.568c-3.985,4.247-8.979,6.544-14.679,7.394c-3.394,0.506-6.757,0.3-10.056-0.658
		c-2.355-0.683-4.479-1.803-6.227-3.565c-1.077-1.086-1.886-2.343-2.363-3.798c-0.794-2.42-0.347-4.587,1.506-6.356
		c1.007-0.962,2.119-1.818,3.227-2.666C472.66,98.929,473.9,98.083,475.458,96.964z M485.873,112.546
		c2.284,0.032,4.488-0.323,6.534-1.395c1.872-0.98,3.276-2.396,4.031-4.402c1.498-3.981-0.19-7.612-4.241-8.754
		c-3.983-1.121-8.086-1.195-12.11-0.37c-4.936,1.013-6.943,6.987-3.828,10.933c0.984,1.247,2.237,2.149,3.672,2.802
		C481.817,112.217,483.808,112.575,485.873,112.546z M477.623,69.727c0.175,2.473,0.419,4.889,1.542,7.081
		c0.55,1.072,1.289,2.146,2.199,2.914c2.248,1.896,5.393,1.444,7.055-0.973c0.654-0.95,1.135-2.082,1.436-3.201
		c0.87-3.227,0.773-6.486-0.061-9.714c-0.394-1.52-1.032-2.938-2.118-4.111c-2.505-2.711-6.055-2.446-8.05,0.642
		c-0.488,0.756-0.913,1.609-1.123,2.477C478.114,66.447,477.906,68.095,477.623,69.727z"/>
	<path fill-rule="evenodd" clip-rule="evenodd" fill="#13167E" d="M239.394,168.374c0,0.785,0,1.464,0,2.207
		c-5.075,1.064-10.144,2.128-15.402,3.231c-0.057-1.473-0.116-3.026-0.185-4.806c-0.671,0.364-1.136,0.593-1.577,0.861
		c-1.329,0.813-2.662,1.619-3.968,2.468c-2.761,1.793-5.679,1.996-8.798,1.097c-6.937-2-11.952-8.072-12.792-15.245
		c-1.438-12.282,7.512-21.433,17.915-23.477c2.765-0.543,5.537-0.702,8.318-0.093c0.246,0.054,0.513,0.007,0.85,0.007
		c0.051-0.349,0.135-0.656,0.134-0.963c-0.006-3.868-0.024-7.736-0.043-11.604c-0.001-0.321-0.032-0.644-0.064-0.964
		c-0.156-1.521-0.985-2.473-2.47-2.795c-1.045-0.228-2.107-0.371-3.343-0.582c-0.034-0.687-0.069-1.401-0.106-2.145
		c5.114-0.975,10.104-1.926,15.295-2.915c0.033,0.493,0.109,1.104,0.109,1.715c0.008,7.575,0.005,15.15,0.005,22.726
		c0,8.274-0.004,16.548,0.005,24.822c0.001,1.074,0.022,2.151,0.121,3.22c0.154,1.682,0.805,2.398,2.458,2.718
		C236.961,168.07,238.085,168.186,239.394,168.374z M223.899,154.008c0-3.601-0.02-7.202,0.014-10.803
		c0.009-0.913-0.251-1.66-0.801-2.375c-2.892-3.753-7.913-4.219-11.497-1.034c-1.915,1.701-3.021,3.894-3.674,6.32
		c-0.933,3.469-1.146,7.002-0.608,10.548c0.485,3.197,1.649,6.115,4.02,8.435c3.205,3.137,7.287,3.714,11.261,1.67
		c0.928-0.478,1.331-1.039,1.311-2.118C223.859,161.103,223.9,157.555,223.899,154.008z"/>
	<path fill-rule="evenodd" clip-rule="evenodd" fill="#13167E" d="M434.854,170.552c0,0.791,0,1.475,0,2.15
		c-1.173,0.337-17.688,0.416-19.691,0.088c0-0.705,0-1.429,0-2.226c1.034-0.209,2.035-0.367,3.014-0.616
		c1.859-0.473,2.499-1.229,2.682-3.133c0.072-0.748,0.084-1.504,0.084-2.256c0.006-6.396,0.006-12.793,0-19.19
		c0-0.752-0.034-1.504-0.082-2.255c-0.106-1.648-0.954-2.686-2.576-3.079c-0.622-0.15-1.236-0.337-1.965-0.537
		c0-0.677,0-1.337,0-1.937c4.67-1.092,9.248-2.163,14.016-3.278c0,1.958,0,3.915,0,6.133c0.616-0.35,0.982-0.526,1.316-0.752
		c1.916-1.289,3.797-2.635,5.743-3.876c1.812-1.154,3.825-1.68,5.989-1.556c4.741,0.272,8.06,2.804,9.583,7.315
		c0.696,2.062,0.914,4.194,0.916,6.354c0.007,5.376-0.004,10.751,0.009,16.126c0.003,1.074,0.043,2.151,0.137,3.221
		c0.134,1.51,0.947,2.476,2.456,2.802c0.779,0.168,1.562,0.322,2.416,0.497c0,0.797,0,1.518,0,2.334c-6.324,0-12.538,0-18.883,0
		c0-0.734,0-1.453,0-2.292c0.45-0.114,0.954-0.253,1.462-0.368c1.963-0.442,2.654-1.148,2.875-3.141
		c0.118-1.065,0.126-2.146,0.127-3.221c0.005-5.268,0.033-10.535-0.045-15.802c-0.02-1.267-0.27-2.575-0.666-3.781
		c-0.979-2.973-3.455-4.284-6.573-4.02c-2.388,0.203-4.366,1.4-6.245,2.794c-0.5,0.37-0.59,0.847-0.585,1.409
		c0.013,1.397,0.003,2.795,0.003,4.193c0,5.268-0.007,10.536,0.006,15.803c0.003,1.021,0.032,2.046,0.146,3.059
		c0.161,1.438,0.976,2.348,2.421,2.644C433.563,170.288,434.186,170.416,434.854,170.552z"/>
	<path fill-rule="evenodd" clip-rule="evenodd" fill="#13167E" d="M243.45,53.208c-0.952,0.055-1.734,0.099-2.59,0.147
		c-0.205-0.692-0.367-1.309-0.57-1.911c-0.513-1.524-0.986-3.065-1.582-4.558c-0.987-2.474-2.881-3.891-5.516-4.08
		c-2.993-0.216-6-0.238-9.159-0.35c-0.072,0.639-0.168,1.096-0.168,1.552c-0.007,13.704-0.008,27.408,0.004,41.111
		c0,1.02,0.074,2.042,0.176,3.057c0.258,2.554,1.309,3.748,3.846,4.268c1.414,0.289,2.856,0.438,4.375,0.663
		c0.041,0.453,0.1,0.866,0.108,1.28c0.007,0.363-0.042,0.728-0.072,1.193c-8.764,0-17.438,0-26.217,0
		c-0.042-0.463-0.105-0.874-0.111-1.286c-0.005-0.367,0.053-0.735,0.093-1.216c0.831-0.107,1.616-0.218,2.403-0.311
		c4.164-0.487,5.395-1.797,5.589-6.001c0.052-1.127,0.06-2.257,0.061-3.385c0.003-12.897,0.002-25.796,0.002-38.693
		c0-0.636,0-1.272,0-2.141c-1.639,0-3.132-0.055-4.619,0.014c-1.821,0.084-3.641,0.236-5.455,0.423
		c-2.117,0.218-3.602,1.437-4.448,3.302c-0.772,1.703-1.318,3.51-1.942,5.278c-0.195,0.551-0.316,1.128-0.493,1.773
		c-0.875,0-1.709,0-2.773,0c0.302-4.809,0.601-9.551,0.896-14.255c1.353-0.361,45.694-0.402,47.344-0.054
		C242.9,43.691,243.171,48.38,243.45,53.208z"/>
	<path fill-rule="evenodd" clip-rule="evenodd" fill="#13167E" d="M353.594,93.309c0,0.793,0,1.433,0,2.063
		c-1.108,0.384-16.776,0.503-19.028,0.134c-0.034-0.328-0.098-0.686-0.102-1.043c-0.005-0.365,0.048-0.731,0.079-1.159
		c0.627-0.137,1.191-0.274,1.762-0.381c1.597-0.298,2.434-1.306,2.597-2.865c0.128-1.227,0.207-2.465,0.213-3.698
		c0.024-4.729,0.043-9.459-0.011-14.188c-0.016-1.386-0.137-2.804-0.456-4.147c-0.909-3.821-3.74-5.626-7.597-4.926
		c-2.113,0.382-3.889,1.488-5.583,2.756c-0.648,0.485-0.519,1.13-0.521,1.755c-0.009,4.46-0.006,8.921-0.004,13.381
		c0.001,2.419,0,4.838,0.017,7.256c0.004,0.644,0.037,1.291,0.117,1.929c0.187,1.497,0.975,2.465,2.513,2.741
		c0.574,0.103,1.143,0.238,1.796,0.377c0,0.722,0,1.4,0,2.093c-1.05,0.372-16.918,0.517-19.642,0.152c0-0.696,0-1.413,0-2.244
		c0.927-0.171,1.872-0.316,2.803-0.522c1.995-0.441,2.708-1.246,2.889-3.307c0.104-1.177,0.164-2.36,0.167-3.54
		c0.018-5.482,0.018-10.964,0-16.446c-0.003-1.18-0.065-2.364-0.172-3.54c-0.173-1.901-0.816-2.647-2.652-3.184
		c-0.61-0.179-1.232-0.319-1.916-0.494c0-0.691,0-1.313,0-1.943c4.667-1.089,9.287-2.168,14.109-3.293c0,2.012,0,3.959,0,6.192
		c0.745-0.487,1.227-0.796,1.702-1.113c1.829-1.227,3.619-2.516,5.492-3.669c2.451-1.508,5.129-1.808,7.922-1.17
		c3.21,0.733,5.455,2.651,6.864,5.591c1.14,2.378,1.495,4.924,1.509,7.522c0.029,5.911,0.018,11.823,0.038,17.734
		c0.003,0.75,0.046,1.508,0.168,2.246c0.214,1.294,0.986,2.12,2.283,2.407C351.779,92.95,352.616,93.109,353.594,93.309z"/>
	<path fill-rule="evenodd" clip-rule="evenodd" fill="#13167E" d="M377.36,96.762c-6.704-0.134-11.728-1.949-15.568-6.372
		c-3.48-4.008-4.884-8.74-4.61-14.012c0.266-5.127,1.976-9.652,5.593-13.36c7.439-7.628,19.837-8.142,27.384-1.082
		c4.575,4.281,6.353,9.704,6.002,15.873c-0.175,3.085-0.833,6.077-2.321,8.812C390.086,93.52,384.077,96.585,377.36,96.762z
		 M385.618,79.775c-0.142-4.973-0.356-8.615-1.522-12.129c-0.702-2.115-1.654-4.085-3.319-5.629c-3.14-2.91-7.41-2.537-9.978,0.874
		c-1.15,1.527-1.816,3.276-2.279,5.115c-0.906,3.598-0.863,7.253-0.53,10.897c0.294,3.221,1.005,6.365,2.492,9.284
		c0.814,1.598,1.822,3.046,3.281,4.125c3.28,2.425,7.563,1.59,9.568-1.948c0.626-1.105,1.15-2.348,1.368-3.59
		C385.178,84.033,385.433,81.252,385.618,79.775z"/>
	<path fill-rule="evenodd" clip-rule="evenodd" fill="#13167E" d="M423.009,78.296c0.176-10.913,6.058-18.473,15.464-20.788
		c12.057-2.969,23.397,5.782,23.592,18.191c0.061,3.822-0.521,7.527-2.354,10.903c-3.733,6.885-9.71,10.089-17.428,10.123
		c-4.827,0.021-9.239-1.363-12.906-4.611C424.967,88.207,423.023,83.19,423.009,78.296z M433.716,74.978
		c0,0.807-0.051,1.616,0.009,2.417c0.275,3.72,0.919,7.357,2.6,10.736c0.847,1.703,1.926,3.232,3.523,4.329
		c3.253,2.232,7.361,1.371,9.323-2.042c0.606-1.057,1.065-2.243,1.355-3.428c1.19-4.868,1.211-9.811,0.447-14.728
		c-0.342-2.207-0.968-4.414-1.801-6.486c-0.562-1.398-1.553-2.718-2.629-3.797c-2.302-2.31-6.862-3.243-9.808,0.882
		c-0.889,1.243-1.54,2.711-2.042,4.164C433.812,69.587,433.595,72.274,433.716,74.978z"/>
	<path fill-rule="evenodd" clip-rule="evenodd" fill="#13167E" d="M605.977,76.533c0.007,3.379-0.582,6.65-2.123,9.665
		c-3.404,6.662-8.979,10.147-16.376,10.482c-7.789,0.354-14.076-2.503-18.097-9.459c-2.021-3.499-2.628-7.336-2.395-11.34
		c0.509-8.744,6.361-16.015,14.824-18.222C594.689,54.301,606.239,63.468,605.977,76.533z M595.369,78.621
		c-0.012-4.159-0.372-8.265-1.911-12.185c-0.676-1.722-1.592-3.295-2.993-4.53c-3.22-2.84-7.449-2.362-9.959,1.113
		c-1.217,1.687-1.896,3.605-2.326,5.616c-0.856,3.996-0.754,8.011-0.158,12.025c0.404,2.725,1.116,5.362,2.416,7.812
		c0.84,1.587,1.889,3.003,3.399,4.021c3.222,2.171,7.24,1.334,9.223-1.993c0.569-0.955,0.992-2.031,1.304-3.104
		C595.193,84.538,595.383,81.588,595.369,78.621z"/>
	<path fill-rule="evenodd" clip-rule="evenodd" fill="#13167E" d="M412.213,154.817c-0.023,1.771-0.388,4.372-1.365,6.849
		c-2.98,7.558-8.67,11.536-16.643,12.267c-4.09,0.375-8.071-0.336-11.643-2.459c-7.003-4.165-9.81-10.558-9.299-18.489
		c0.337-5.228,2.372-9.757,6.248-13.393c7.741-7.261,20.198-7.149,27.393,0.264C410.445,143.503,412.39,148.635,412.213,154.817z
		 M401.573,155.784c0-4.471-0.393-7.608-1.358-10.666c-0.671-2.123-1.605-4.103-3.224-5.691c-2.514-2.467-7.186-3.604-10.26,0.934
		c-0.915,1.351-1.581,2.943-2.034,4.52c-1.176,4.095-1.073,8.288-0.519,12.473c0.39,2.944,1.117,5.801,2.532,8.442
		c0.795,1.484,1.777,2.819,3.162,3.813c3.32,2.385,7.559,1.488,9.56-2.063c0.469-0.834,0.823-1.752,1.106-2.67
		C401.452,161.915,401.594,158.856,401.573,155.784z"/>
	<path fill-rule="evenodd" clip-rule="evenodd" fill="#13167E" d="M621.309,137.527c0-0.742,0-1.373,0-1.981
		c1.197-0.354,17.276-0.464,19.597-0.135c0,0.646,0,1.314,0,2.16c-0.352,0.106-0.794,0.247-1.238,0.379
		c-2.462,0.723-2.888,1.462-2.063,3.871c1.72,5.03,3.479,10.046,5.227,15.067c0.542,1.557,1.094,3.11,1.743,4.956
		c0.303-0.507,0.494-0.735,0.588-0.998c2.175-6.121,4.34-12.246,6.499-18.373c0.125-0.353,0.199-0.727,0.271-1.094
		c0.276-1.418-0.115-2.298-1.43-2.868c-0.925-0.4-1.919-0.642-2.966-0.98c0-0.688,0-1.363,0-2.16c5.033,0,10.004,0,15.12,0
		c0,0.724,0,1.433,0,2.217c-0.666,0.19-1.329,0.386-1.995,0.567c-1.467,0.402-2.617,1.247-3.396,2.545
		c-0.579,0.966-1.163,1.943-1.6,2.978c-6.31,14.937-12.934,29.748-18.273,45.078c-0.406,1.166-0.729,2.36-1.13,3.527
		c-0.574,1.678-1.383,2.25-3.14,2.122c-2.205-0.162-3.854-1.276-4.894-3.208c-0.826-1.534-0.496-3.072,0.838-4.195
		c0.531-0.446,1.134-0.816,1.734-1.166c4.249-2.474,6.5-6.434,8.098-10.873c0.421-1.169,0.233-2.354-0.19-3.476
		c-3.663-9.693-7.352-19.377-11.02-29.069c-1.001-2.645-2.805-4.265-5.661-4.624C621.824,137.768,621.633,137.651,621.309,137.527z"
		/>
	<path fill-rule="evenodd" clip-rule="evenodd" fill="#13167E" d="M246.88,74.782c0.19,5.023,1.282,9.496,5.31,12.616
		c3.935,3.047,8.269,2.943,12.618,0.907c1.295-0.606,2.453-1.509,3.808-2.359c0.406,0.56,0.837,1.152,1.247,1.717
		c-4.027,7.103-12.822,10.67-20.423,8.253c-5.816-1.849-9.3-5.97-10.904-11.741c-2.875-10.347,2.167-21.298,11.794-25.741
		c7.359-3.396,15.347-0.63,18.701,6.479c0.814,1.726,1.257,3.532,1.222,5.452c-0.037,2.095-0.653,2.854-2.705,3.026
		c-4.015,0.338-8.032,0.639-12.05,0.914C252.72,74.495,249.937,74.616,246.88,74.782z M247.348,70.698
		c0.281,0.119,0.378,0.196,0.474,0.195c3.812-0.053,7.623-0.111,11.435-0.176c0.212-0.004,0.423-0.067,0.634-0.108
		c0.673-0.13,1.04-0.557,1.07-1.223c0.135-2.9-0.491-5.573-2.597-7.697c-1.675-1.688-4.062-2.001-6.045-0.689
		c-1.001,0.663-1.91,1.586-2.602,2.573C248.238,65.678,247.613,68.121,247.348,70.698z"/>
	<path fill-rule="evenodd" clip-rule="evenodd" fill="#13167E" d="M252.232,152.134c0.104,3.606,0.786,6.876,2.732,9.782
		c3.05,4.554,8.468,6.252,13.798,4.23c1.387-0.526,2.64-1.411,3.939-2.156c0.408-0.234,0.768-0.552,1.216-0.88
		c0.453,0.632,0.857,1.193,1.312,1.828c-0.232,0.371-0.421,0.746-0.677,1.068c-2.918,3.673-6.477,6.459-11.104,7.59
		c-7.287,1.78-15.024-1.918-18.307-8.784c-4.925-10.3-1.081-24.477,11.669-29.571c8.346-3.336,17.123,1.713,18.679,10.55
		c0.102,0.579,0.142,1.175,0.143,1.763c0.005,2.103-0.715,2.944-2.828,3.136c-3.05,0.277-6.105,0.495-9.162,0.695
		c-3.378,0.222-6.759,0.392-10.139,0.593C253.139,151.999,252.775,152.065,252.232,152.134z M252.675,147.984
		c0.357,0.139,0.456,0.212,0.553,0.211c3.866-0.081,7.732-0.144,11.597-0.269c1.098-0.036,1.509-0.52,1.529-1.663
		c0.04-2.252-0.455-4.383-1.738-6.265c-2.011-2.953-5.437-3.398-8.057-0.977C253.969,141.417,253.107,144.593,252.675,147.984z"/>
	<path fill-rule="evenodd" clip-rule="evenodd" fill="#13167E" d="M399.149,40.309c0-0.715,0-1.381,0-1.991
		c4.928-0.987,9.741-1.952,14.772-2.961c0,0.716,0,1.342,0,1.968c0,16.337-0.002,32.675,0.006,49.013
		c0,1.127,0.006,2.263,0.133,3.38c0.21,1.853,0.971,2.665,2.778,3.075c0.932,0.212,1.883,0.341,2.887,0.519c0,0.749,0,1.429,0,2.102
		c-1.209,0.35-19.211,0.409-20.954,0.058c0-0.654,0-1.332,0-2.151c0.809-0.169,1.636-0.329,2.458-0.514
		c2.223-0.501,3.015-1.377,3.188-3.619c0.086-1.123,0.104-2.255,0.104-3.383c0.007-12.844,0.007-25.688,0.001-38.532
		c-0.001-1.021-0.016-2.043-0.079-3.062c-0.144-2.309-0.781-3.032-3.014-3.482C400.702,40.581,399.969,40.459,399.149,40.309z"/>
	<path fill-rule="evenodd" clip-rule="evenodd" fill="#13167E" d="M618.546,163.064c0.489,0.682,0.889,1.239,1.247,1.74
		c-0.019,0.201,0.01,0.332-0.043,0.407c-2.912,4.138-6.681,7.146-11.642,8.378c-7.443,1.846-15.319-2.086-18.511-9.211
		c-4.343-9.698-1.279-23.356,11.269-28.904c8.109-3.586,16.955,0.776,19.044,9.202c0.257,1.032,0.4,2.123,0.389,3.185
		c-0.019,1.768-0.744,2.554-2.496,2.786c-1.543,0.205-3.102,0.304-4.656,0.403c-4.933,0.314-9.866,0.606-14.8,0.913
		c-0.42,0.026-0.838,0.091-1.482,0.163c0.091,0.994,0.062,1.961,0.287,2.865c0.453,1.812,0.826,3.694,1.62,5.364
		c2.59,5.456,8.084,7.772,13.883,6.071C614.812,165.794,616.658,164.627,618.546,163.064z M597.359,148.02
		c0.301,0.101,0.45,0.196,0.597,0.193c3.854-0.084,7.708-0.155,11.561-0.286c1.018-0.034,1.489-0.496,1.497-1.526
		c0.022-2.75-0.564-5.338-2.558-7.387c-1.689-1.737-4.149-2.088-6.163-0.747c-0.996,0.662-1.895,1.589-2.582,2.575
		C598.244,142.944,597.612,145.373,597.359,148.02z"/>
	<path fill-rule="evenodd" clip-rule="evenodd" fill="#13167E" d="M495.912,152.085c0.226,4.65,1.187,8.823,4.627,11.983
		c3.21,2.948,7.044,3.577,11.12,2.32c1.61-0.497,3.075-1.478,4.586-2.276c0.46-0.243,0.852-0.615,1.385-1.011
		c0.468,0.663,0.888,1.26,1.281,1.818c-7.666,11.517-20.328,11.224-27.207,4.016c-3.439-3.605-4.854-8.077-4.868-12.964
		c-0.027-8.7,3.82-15.271,11.316-19.644c3.47-2.025,7.229-2.696,11.182-1.628c5.625,1.52,9.834,6.842,10.041,12.649
		c0.083,2.314-0.759,3.208-3.293,3.381c-6.11,0.418-12.223,0.809-18.334,1.212C497.218,151.977,496.689,152.024,495.912,152.085z
		 M496.411,147.994c0.304,0.127,0.4,0.205,0.497,0.203c3.867-0.079,7.735-0.144,11.602-0.266c1.1-0.034,1.564-0.515,1.567-1.638
		c0.009-2.53-0.544-4.923-2.221-6.912c-1.836-2.178-4.615-2.522-6.93-0.871c-0.604,0.432-1.171,0.962-1.626,1.547
		C497.498,142.376,496.704,145.069,496.411,147.994z"/>
	<path fill-rule="evenodd" clip-rule="evenodd" fill="#13167E" d="M465.108,139.061c-1.674,0-3.067,0.035-4.457-0.021
		c-0.431-0.018-1.052-0.174-1.217-0.472c-0.146-0.266,0.21-0.814,0.358-1.234c0.034-0.095,0.144-0.161,0.197-0.253
		c0.837-1.434,2.019-2.136,3.728-1.85c0.396,0.066,0.826-0.075,1.391-0.138c0-1.686,0.048-3.291-0.019-4.892
		c-0.037-0.906,0.277-1.483,1.002-2.019c2.115-1.563,4.178-3.201,6.264-4.807c0.256-0.196,0.502-0.428,0.79-0.552
		c0.605-0.258,1.21,0.075,1.316,0.729c0.068,0.42,0.043,0.856,0.044,1.286c0.002,2.795,0.001,5.588,0.001,8.382
		c0,0.582,0,1.164,0,1.876c0.602,0.059,1.06,0.141,1.521,0.144c2.041,0.016,4.082-0.003,6.125,0.012c1.4,0.01,1.79,0.38,1.798,1.628
		c0.006,1.302-0.661,2.139-1.834,2.167c-1.719,0.042-3.438,0.013-5.158,0.014c-0.743,0-1.485,0-2.368,0
		c-0.032,0.735-0.078,1.311-0.079,1.886c-0.005,6.394-0.03,12.787,0.018,19.181c0.011,1.438,0.128,2.911,0.465,4.305
		c0.717,2.97,2.535,4.18,5.577,3.807c1.155-0.143,2.28-0.528,3.6-0.848c0.213,0.736,0.429,1.484,0.664,2.299
		c-0.257,0.18-0.45,0.357-0.678,0.469c-1.926,0.95-3.854,1.896-5.789,2.829c-1.838,0.885-3.748,1.229-5.788,0.852
		c-4.159-0.771-6.569-3.179-7.175-7.367c-0.198-1.377-0.278-2.781-0.283-4.175c-0.027-7.038-0.013-14.077-0.013-21.115
		C465.108,140.552,465.108,139.918,465.108,139.061z"/>
	<path fill-rule="evenodd" clip-rule="evenodd" fill="#13167E" d="M522.155,172.8c0-0.772,0-1.456,0-2.241
		c0.724-0.13,1.399-0.248,2.074-0.372c2.365-0.43,3.199-1.353,3.389-3.775c0.046-0.589,0.055-1.181,0.056-1.771
		c0.003-6.5,0.003-12.998,0.002-19.498c0-0.215,0.001-0.43-0.003-0.645c-0.062-3.297-0.577-3.93-3.826-4.736
		c-0.308-0.076-0.603-0.204-0.957-0.326c0-0.648,0-1.274,0-1.789c4.719-1.102,9.345-2.182,14.186-3.311
		c0.016,2.786,0.031,5.63,0.049,8.473c0.112,0.026,0.225,0.052,0.336,0.078c0.318-0.465,0.646-0.922,0.952-1.394
		c1.353-2.079,2.816-4.062,4.773-5.626c1.632-1.306,3.434-1.968,5.547-1.471c2.457,0.577,4.087,2.706,3.948,5.172
		c-0.143,2.522-2.2,4.996-4.449,5.279c-0.397,0.051-0.839-0.093-1.236-0.221c-0.242-0.079-0.449-0.286-0.654-0.458
		c-3.037-2.545-5.855-1.805-7.963,1.455c-0.862,1.336-1.345,2.719-1.312,4.377c0.094,4.725,0.03,9.452,0.036,14.179
		c0,0.752,0.01,1.505,0.062,2.254c0.165,2.309,0.854,3.121,3.149,3.594c1.153,0.236,2.332,0.342,3.628,0.524
		c0,0.727,0,1.448,0,2.171C542.808,173.037,524.336,173.121,522.155,172.8z"/>
	<path fill-rule="evenodd" clip-rule="evenodd" fill="#13167E" d="M556.661,139.493c0-0.675,0-1.304,0-1.854
		c4.68-1.094,9.307-2.176,14.101-3.297c0,2.803,0,5.656,0,8.512c0.1,0.034,0.199,0.068,0.3,0.104
		c0.243-0.304,0.497-0.603,0.73-0.913c1.193-1.586,2.269-3.277,3.607-4.727c0.96-1.04,2.173-1.957,3.443-2.578
		c2.795-1.362,6.24,0.038,7.262,2.763c1.065,2.844-0.716,6.309-3.68,7.235c-0.803,0.251-1.462,0.12-2.111-0.366
		c-0.559-0.417-1.112-0.859-1.726-1.179c-1.69-0.876-3.371-0.795-4.787,0.51c-1.814,1.675-3.105,3.606-3.054,6.284
		c0.094,4.724,0.018,9.451,0.034,14.177c0.004,0.964,0.066,1.931,0.165,2.891c0.161,1.577,1.035,2.562,2.606,2.853
		c1.364,0.252,2.738,0.449,4.2,0.686c0,0.746,0,1.468,0,2.286c-7.286,0-14.511,0-21.862,0c0-0.759,0-1.478,0-2.346
		c0.766-0.128,1.552-0.233,2.326-0.393c1.996-0.407,2.729-1.159,3.045-3.199c0.132-0.845,0.189-1.709,0.191-2.564
		c0.016-6.337,0.017-12.675,0.001-19.012c-0.002-0.854-0.107-1.711-0.19-2.564c-0.141-1.468-1-2.318-2.381-2.7
		C558.163,139.901,557.442,139.707,556.661,139.493z"/>
	<path fill-rule="evenodd" clip-rule="evenodd" fill="#13167E" d="M306.013,85.858c0.497,0.639,0.944,1.215,1.457,1.874
		c-3.486,4.449-7.429,8.13-13.203,8.875c-9.201,1.187-17.715-5.36-19.188-14.551c-1.123-7.003,0.987-12.968,5.978-17.895
		c3.935-3.885,8.709-6.248,14.193-7.048c3.104-0.453,6.127-0.046,8.892,1.53c2.512,1.434,2.93,4.021,1.077,6.255
		c-0.238,0.287-0.51,0.557-0.802,0.789c-0.994,0.788-1.746,0.811-2.772,0.055c-0.604-0.446-1.116-1.031-1.753-1.416
		c-1.508-0.911-2.986-1.962-4.621-2.558c-3.652-1.331-6.963-0.042-9.035,3.256c-1.196,1.904-1.747,4.022-2.015,6.231
		c-0.421,3.468-0.247,6.889,1.112,10.139c1.919,4.592,5.238,7.578,10.289,8.232c2.927,0.38,5.648-0.42,8.087-2.101
		C304.45,87.015,305.17,86.47,306.013,85.858z"/>
	<path fill-rule="evenodd" clip-rule="evenodd" fill="#13167E" d="M562.896,85.868c0.496,0.636,0.95,1.216,1.448,1.854
		c-2.791,3.682-6.043,6.658-10.386,8.231c-6.263,2.27-14.342-0.287-18.56-6.003c-4.153-5.626-4.856-11.852-2.424-18.34
		c3.171-8.462,13.017-14.911,22.049-14.619c2.125,0.069,4.154,0.582,5.999,1.657c2.993,1.746,2.904,5.595-0.132,7.322
		c-0.799,0.454-1.545,0.404-2.256-0.132c-0.557-0.421-1.073-0.894-1.617-1.331c-1.604-1.289-3.321-2.376-5.33-2.927
		c-3.227-0.884-6.15,0.09-8.118,2.798c-0.594,0.815-1.133,1.727-1.454,2.676c-1.667,4.898-1.715,9.806,0.214,14.655
		c0.828,2.084,2.152,3.834,3.9,5.249c4.155,3.364,9.438,3.682,13.959,0.817C561.089,87.207,561.934,86.55,562.896,85.868z"/>
	<path fill-rule="evenodd" clip-rule="evenodd" fill="#13167E" d="M528.265,93.282c0,0.823,0,1.543,0,2.336
		c-6.875,0-13.632,0-20.526,0c0-0.755,0-1.472,0-2.313c0.827-0.153,1.718-0.283,2.593-0.486c1.82-0.422,2.547-1.222,2.76-3.082
		c0.108-0.959,0.15-1.93,0.152-2.896c0.013-6.18,0.012-12.359,0-18.539c-0.001-0.858-0.043-1.721-0.139-2.574
		c-0.194-1.721-0.851-2.466-2.53-2.916c-0.716-0.192-1.448-0.32-2.22-0.487c0-0.773,0-1.449,0-2.052
		c4.74-1.036,9.39-2.052,14.215-3.105c0.024,0.458,0.079,1.017,0.079,1.575c0.006,9.351,0.002,18.7,0.008,28.051
		c0.001,0.912-0.003,1.831,0.098,2.736c0.223,2.01,0.979,2.828,2.965,3.279C526.501,92.986,527.297,93.104,528.265,93.282z"/>
	<path fill-rule="evenodd" clip-rule="evenodd" fill="#13167E" d="M512.004,45.231c0.031-3.037,2.418-5.377,5.465-5.357
		c3.038,0.02,5.321,2.396,5.288,5.504c-0.033,2.924-2.426,5.295-5.362,5.313C514.432,50.709,511.973,48.219,512.004,45.231z"/>
	<path fill-rule="evenodd" clip-rule="evenodd" fill="#13167E" d="M441.874,53.415c-0.713-0.315-1.434-0.635-2.246-0.994
		c0.304-0.883,0.563-1.633,0.82-2.384c1.161-3.4,2.353-6.791,3.461-10.209c0.319-0.983,0.773-1.562,1.865-1.643
		c2.083-0.154,4.156-0.451,6.24-0.566c1.07-0.06,1.375,0.553,0.738,1.42c-3.496,4.755-7.026,9.484-10.547,14.22
		C442.178,53.296,442.111,53.304,441.874,53.415z"/>
</g>
</svg>
