<svg width="353" height="216" viewBox="0 0 353 216" fill="none" xmlns="http://www.w3.org/2000/svg">
<path d="M100.256 135.36C110.152 135.36 117.802 127.672 117.802 116.291V72H128.512V143.769H117.904V137.104C113.11 142.128 106.479 144.998 99.0328 144.998C83.7311 144.998 72 133.823 72 116.907V72H82.7104V116.291C82.7104 127.877 90.2601 135.36 100.256 135.36Z" fill="black"/>
<path d="M136.47 72H146.772V98.144C151.464 93.3259 157.993 90.3526 165.236 90.3526C180.538 90.3526 192.575 102.553 192.575 117.728C192.575 132.799 180.538 145 165.236 145C157.994 145 151.363 142.027 146.67 137.209V143.771H136.47V72ZM164.522 135.873C174.315 135.873 182.374 127.774 182.374 117.726C182.374 107.575 174.315 99.5785 164.522 99.5785C154.626 99.5785 146.568 107.575 146.568 117.726C146.568 127.774 154.524 135.873 164.522 135.873Z" fill="black"/>
<path d="M223.38 90.4552C238.375 90.4552 249.392 102.041 249.392 117.625V121.009H207.059C208.486 129.518 215.525 135.875 224.298 135.875C230.317 135.875 235.417 133.415 239.294 128.186L246.741 133.722C241.539 140.693 233.786 144.897 224.3 144.897C208.692 144.897 196.655 133.21 196.655 117.625C196.655 102.86 208.18 90.4552 223.38 90.4552ZM207.263 112.805H238.988C237.254 104.809 230.827 99.4776 223.175 99.4776C215.525 99.4776 209.099 104.809 207.263 112.805Z" fill="black"/>
<path d="M277.037 100.707C270.304 100.707 265.408 105.935 265.408 114.035V143.767H255.106V91.4793H265.306V97.9388C267.856 93.7345 272.039 91.069 277.751 91.069H281.322V100.707H277.037Z" fill="black"/>
</svg>
