<?xml version="1.0" encoding="utf-8"?>
<!-- Generator: Adobe Illustrator 21.1.0, SVG Export Plug-In . SVG Version: 6.00 Build 0)  -->
<svg version="1.1" id="Layer_1" xmlns="http://www.w3.org/2000/svg" xmlns:xlink="http://www.w3.org/1999/xlink" x="0px" y="0px"
	 viewBox="0 0 800 800" style="enable-background:new 0 0 800 800;" xml:space="preserve">
<style type="text/css">
	.st0{fill:#FFFFFF;}
</style>
<g>
	<g>
		<path d="M725.5,375.4c0,13.7,0,27.4,0,41.1c0,4.7-0.5,9.3-1.7,13.8c-3.6,13.7-12.5,21.8-26.4,24.4c-6.7,1.2-13.4,1.2-20.1-0.3
			c-13.2-2.8-21.5-10.9-25.1-23.9c-1.2-4.3-1.8-8.7-1.8-13.2c0-28.1,0-56.1,0-84.2c0-5.4,0.8-10.8,2.6-15.9
			c3.6-10.4,10.6-17.3,21.2-20.4c9.1-2.6,18.3-2.7,27.4,0c11.7,3.4,18.8,11.3,22,22.9c1.3,4.7,1.8,9.4,1.8,14.3
			C725.5,347.9,725.5,361.6,725.5,375.4z M700.9,375.4c0-13.9,0-27.8,0-41.7c0-2.9-0.1-5.8-1.1-8.5c-1.4-4.1-4.1-6.7-8.4-7.3
			c-2.4-0.3-4.9-0.2-7.3,0.2c-3.6,0.6-6.1,2.9-7.4,6.3c-1,2.5-1.4,5.1-1.4,7.8c0,28.9,0,57.7,0,86.6c0,2.1,0.3,4.3,0.9,6.3
			c1.4,5,5,7.8,10.1,8.2c0.9,0.1,1.8,0.1,2.7,0c6-0.2,9.9-3.4,11.1-9.2c0.5-2.3,0.7-4.7,0.7-7C700.9,403.1,700.9,389.3,700.9,375.4z
			"/>
		<path d="M593.4,391.3c-2.6,4.8-5,9.2-7.2,13.6c-0.4,0.8-0.4,1.9-0.4,2.8c0,14.4,0,28.7,0,43.1c0,0.9,0,1.8,0,2.6
			c-1.8,0.5-22.2,0.6-24.5,0.1c0-52.1,0-104.3,0-156.6c8.2,0,16.2,0,24.5,0c0,22.4,0,44.6,0,66.8c0.3,0.1,0.4,0.1,0.4,0.1
			c0.1,0,0.2,0,0.2,0c0.1-0.2,0.3-0.4,0.4-0.6c10.4-22,20.8-44,31.3-66c0-0.1,0.1-0.1,0.1-0.2c0.1-0.1,0.1-0.1,0.2-0.2
			c8,0,16,0,24.3,0c-0.3,0.8-0.5,1.4-0.8,2c-10.6,21.5-21.1,43-31.8,64.5c-1.2,2.4-1.3,4.3-0.3,6.8c10.8,26.9,21.4,53.9,32,80.9
			c0.3,0.7,0.6,1.5,0.9,2.5c-0.8,0.1-1.5,0.2-2.1,0.2c-7,0-14.1,0-21.1,0c-2,0-2,0-2.8-2c-7.4-19.3-14.8-38.5-22.2-57.8
			C594.2,393.3,593.9,392.5,593.4,391.3z"/>
		<path d="M549.7,453.7c-8.5,0-16.8,0-25.3,0c-7.9-20.6-15.8-41.2-23.9-62.2c-0.5,0.6-0.8,1-1.1,1.5c-2,3.6-3.9,7.3-5.9,11
			c-0.6,1.1-0.9,2.3-0.9,3.6c0,14.4,0,28.9,0,43.3c0,0.9,0,1.8,0,2.8c-8.2,0-16.3,0-24.5,0c0-52.2,0-104.4,0-156.7
			c8.1,0,16.1,0,24.4,0c0,22.4,0,44.8,0,67.1c0.2,0,0.4,0.1,0.5,0.1c10.6-22.4,21.2-44.8,31.9-67.3c8.2,0,16.2,0,24.6,0
			c-0.5,1-0.8,1.9-1.2,2.7c-9.2,18.7-18.4,37.4-27.6,56.2c-1.4,2.9-2.8,5.9-4.3,8.8c-0.9,1.6-0.9,2.9-0.2,4.6
			c7.7,19.2,15.3,38.5,22.9,57.8c3.3,8.3,6.5,16.5,9.8,24.8C549.2,452.2,549.4,452.8,549.7,453.7z"/>
		<path d="M377.6,296.9c8.3,0,16.3,0,24.5,0c0,1,0.1,1.9,0.1,2.9c0,24.3,0,48.6,0,72.9c0,15,0,30.1,0,45.1c0,2.2,0.2,4.5,0.7,6.6
			c1.2,5.5,4.9,8.5,10.5,8.8c1.8,0.1,3.7-0.1,5.5-0.4c3.6-0.7,6.2-2.9,7.4-6.3c0.7-2,1-4.1,1.3-6.3c0.2-1.3,0.1-2.7,0.1-4
			c0-38.7,0-77.5,0-116.2c0-0.9,0-1.9,0-3c7.8,0,15.4,0,23.2,0c0,0.8,0.1,1.5,0.1,2.2c0,39.5,0,78.9,0,118.4c0,5.8-0.8,11.5-2.8,17
			c-3.7,10.2-10.8,16.8-21.3,19.6c-8.4,2.2-16.9,2.3-25.3,0.1c-11.8-3.1-19-10.9-22.3-22.5c-1.3-4.7-1.9-9.4-1.9-14.3
			c0-39.4,0-78.8,0-118.2C377.6,298.6,377.6,297.9,377.6,296.9z"/>
		<path d="M673.6,477.6c1.2,0,2,0,3,0c0,14.2,0,28.3,0,42.4c-1.1,0.5-1.5-0.3-2-0.9c-2.7-3.3-5.3-6.5-8-9.8
			c-6-7.4-12.1-14.8-18.1-22.2c-0.4-0.5-0.9-1-1.6-1.8c-0.3,2.6-0.1,4.9-0.2,7.1c0,2.3,0,4.6,0,6.9c0,2.3,0,4.6,0,6.9
			c0,2.3,0,4.6,0,6.9c0,2.3,0,4.6,0,7c-1.1,0-2,0-2.9,0c-0.5-1.6-0.7-36.2-0.2-42.3c1-0.7,1.6,0,2.1,0.7c2.6,3.2,5.1,6.3,7.7,9.5
			c6.2,7.6,12.3,15.1,18.5,22.7c0.4,0.5,0.9,1,1.5,1.7c0.6-2,0.2-3.9,0.3-5.8c0.1-1.9,0-3.8,0-5.8c0-1.9,0-3.8,0-5.8
			c0-1.9,0-3.8,0-5.8c0-1.9,0-3.8,0-5.8C673.6,481.7,673.6,479.8,673.6,477.6z"/>
		<path d="M418.7,499.4c0-4,0.6-7.3,2-10.5c3.1-6.8,8.4-10.7,15.8-11.8c3-0.5,6.1-0.4,9,0.2c8.7,1.8,14.7,8.3,16,17.2
			c0.5,3.5,0.4,6.9-0.4,10.4c-2.3,9.7-9.9,15.9-19.9,16.2c-4,0.1-7.8-0.5-11.4-2.4c-6.5-3.4-9.8-9-10.9-16.1
			C418.8,501.3,418.8,500.1,418.7,499.4z M440.2,479.8c-8.8,0-15.3,4.8-17.5,12.9c-0.8,2.8-0.9,5.7-0.6,8.6
			c0.8,8.9,6.8,15.4,15.6,16.5c9.1,1.2,17.4-3.1,20.3-13c0.8-2.7,1-5.5,0.7-8.3C457.6,486.3,450.5,479.8,440.2,479.8z"/>
		<path d="M635.7,498.8c-0.5,2.6-0.7,5.3-1.5,7.8c-2.7,8.8-10.1,14.3-19.5,14.4c-2.7,0-5.5-0.3-8.1-1.1c-7.8-2.4-12.2-8-13.9-15.8
			c-1.1-5-0.7-9.9,1.2-14.6c3-7.2,8.4-11.2,16-12.4c3-0.5,6.1-0.4,9,0.3c8.6,1.9,13.7,7.4,15.8,15.9c0.2,0.8,0.3,1.6,0.4,2.4
			c0.1,1,0.1,2.1,0.2,3.1C635.6,498.7,635.6,498.8,635.7,498.8z M632.6,499.1c-0.1,0-0.2,0-0.3-0.1c0-0.7,0-1.3,0-2
			c-0.5-7.6-4.9-13.8-11.6-16.1c-2.6-0.9-5.3-1.2-8.1-1.1c-8.3,0.4-14.4,5.4-16.4,13.4c-0.8,3.2-0.9,6.4-0.3,9.7
			c1.5,8.1,7.1,13.7,15.3,14.8c8.4,1.1,16.9-2.4,20.1-12C631.9,503.6,632.1,501.3,632.6,499.1z"/>
		<path d="M412.2,484.2c-0.9,0.5-1.6,1-2.3,1.4c-0.3-0.1-0.4-0.1-0.5-0.2c-3.6-4.9-8.8-5.7-14.3-5.3c-2.3,0.2-4.7,0.9-6.8,1.7
			c-2.4,1-4.1,2.8-4.6,5.6c-0.5,2.7,0.3,5,2.7,6.3c1.9,1,3.9,1.7,6,2.2c3.4,0.9,7,1.4,10.4,2.3c1.9,0.5,3.7,1.1,5.4,2
			c7.3,3.6,6.6,13.6,1.4,17.3c-1.4,1-3,1.9-4.7,2.4c-6.1,1.9-12.3,1.8-18.2-0.9c-3.5-1.6-6.1-4-7.5-7.2c0.8-0.4,1.6-0.9,2.4-1.2
			c0.3,0.1,0.5,0.1,0.5,0.2c4.3,6.1,10.5,7.8,17.5,7.2c2.3-0.2,4.5-0.8,6.5-1.9c2.6-1.5,4-3.8,4.1-6.9c0-2.7-1.1-4.8-3.4-6
			c-2-1-4.1-1.8-6.2-2.3c-3.4-0.9-6.8-1.4-10.2-2.2c-1.6-0.4-3.1-1-4.6-1.6c-7.7-3.3-6.4-12.7-2-16.1c2.1-1.6,4.4-2.6,7-3.2
			c4.2-0.9,8.4-0.9,12.5,0.1C407.1,478.5,410,480.7,412.2,484.2z"/>
		<path d="M717.5,484.1c-0.8,0.5-1.6,1-2.3,1.4c-0.2-0.1-0.4-0.1-0.5-0.2c-3.7-5-8.9-5.7-14.5-5.3c-2.6,0.1-5.1,0.7-7.4,2.1
			c-2.4,1.5-3.9,3.5-3.9,6.5c0,2.2,0.9,4,2.8,4.9c1.8,0.9,3.8,1.7,5.8,2.2c2.9,0.8,6,1.1,8.9,1.9c2.4,0.6,4.7,1.3,6.9,2.3
			c7.5,3.4,6.9,13.8,1.5,17.6c-1,0.7-2.1,1.4-3.3,1.8c-6.5,2.4-13,2.4-19.4-0.4c-3.3-1.4-5.8-3.7-7.6-7.1c0.9-0.5,1.8-0.9,2.5-1.3
			c0.2,0.1,0.4,0.2,0.5,0.3c4.3,6.1,10.5,7.9,17.5,7.1c2.1-0.2,4.2-0.9,6.1-1.7c2.5-1.1,4-3.2,4.4-6c0.4-3-0.5-5.5-3.2-7
			c-2-1.1-4.2-1.8-6.4-2.4c-3.4-0.9-6.8-1.4-10.2-2.2c-1.6-0.4-3.1-1-4.6-1.6c-7.8-3.4-6.3-12.8-2-16.1c2.2-1.7,4.7-2.7,7.4-3.3
			c4-0.8,8.1-0.8,12.1,0.2C712.5,478.5,715.4,480.7,717.5,484.1z"/>
		<path d="M530.6,477.7c0.5-0.1,0.8-0.2,1-0.2c0.6,0,1.2,0,1.9,0c0.1,0.7,0.2,1.4,0.2,2c0,8.2,0,16.4,0,24.7
			c0,6.2-2.3,11.4-7.9,14.4c-5.7,3.2-11.7,3.1-17.4-0.2c-4.4-2.6-6.7-6.6-7.3-11.6c-0.1-1.1-0.1-2.2-0.1-3.3c0-7.8,0-15.6,0-23.3
			c0-0.8,0-1.6,0-2.5c1.1,0,2,0,3.2,0c0,0.9,0,1.7,0,2.5c0,7.8,0,15.6,0,23.3c0,1.8,0.2,3.6,0.7,5.3c2.1,7.1,8.5,9.6,13.6,9.1
			c6.8-0.6,11.5-5.5,12-12.1c0.1-1.1,0.1-2.2,0.1-3.3c0-7.4,0-14.8,0-22.2C530.6,479.4,530.6,478.6,530.6,477.7z"/>
		<path d="M573.6,477.7c0,0.9,0,1.7,0,2.7c-5.1,0-10,0-15.2,0c-0.2,2.8-0.1,5.5-0.1,8.1c0,2.6,0,5.2,0,7.8c0,2.7,0,5.3,0,8
			c0,2.6,0,5.2,0,7.8c0,2.7,0,5.3,0,8.1c-1.1,0-2.1,0-3.2,0c0-13.1,0-26.2,0-39.5c-5.2-0.4-10.3,0-15.5-0.2c0-1,0-1.7,0-2.7
			C550.9,477.7,562.1,477.7,573.6,477.7z"/>
		<path d="M469.9,477.6c1,0,2,0,3.2,0c0,13.2,0,26.2,0,39.5c8.1,0,16,0,24,0c0,1.1,0,2,0,3c-9,0-18,0-27,0
			C469.6,518.6,469.5,481.1,469.9,477.6z"/>
		<path d="M580.3,477.6c1,0,1.9,0,2.9,0c0,14.2,0,28.3,0,42.5c-1,0-1.8,0-2.9,0C580.3,506,580.3,491.9,580.3,477.6z"/>
		<path class="st0" d="M700.9,375.4c0,13.8,0,27.7,0,41.5c0,2.4-0.2,4.7-0.7,7c-1.2,5.8-5.2,9-11.1,9.2c-0.9,0-1.8,0-2.7,0
			c-5.2-0.4-8.7-3.1-10.1-8.2c-0.6-2-0.9-4.2-0.9-6.3c-0.1-28.9,0-57.7,0-86.6c0-2.7,0.4-5.3,1.4-7.8c1.4-3.4,3.8-5.7,7.4-6.3
			c2.4-0.4,4.9-0.5,7.3-0.2c4.2,0.6,7,3.3,8.4,7.3c1,2.8,1.1,5.7,1.1,8.5C700.9,347.6,700.9,361.5,700.9,375.4z"/>
	</g>
	<polygon points="316.2,521 316.2,443.4 350.2,409.4 315.5,374.7 315.5,299.3 138.5,299.3 138.5,521 	"/>
</g>
</svg>
