<?xml version="1.0" encoding="utf-8"?>
<!-- Generator: Adobe Illustrator 16.0.4, SVG Export Plug-In . SVG Version: 6.00 Build 0)  -->
<!DOCTYPE svg PUBLIC "-//W3C//DTD SVG 1.1//EN" "http://www.w3.org/Graphics/SVG/1.1/DTD/svg11.dtd">
<svg version="1.1" id="Layer_1" xmlns="http://www.w3.org/2000/svg" xmlns:xlink="http://www.w3.org/1999/xlink" x="0px" y="0px"
	 width="699px" height="325px" viewBox="0 0 699 325" enable-background="new 0 0 699 325" xml:space="preserve">
<g>
	<path fill-rule="evenodd" clip-rule="evenodd" d="M671.226,130.355c0,14.8-0.006,29.599,0.004,44.398
		c0.003,5.062-0.521,10.054-1.823,14.954c-3.934,14.798-13.5,23.585-28.483,26.387c-7.216,1.35-14.487,1.271-21.693-0.275
		c-14.282-3.065-23.219-11.791-27.102-25.785c-1.289-4.646-1.896-9.417-1.902-14.226c-0.039-30.319-0.048-60.638,0.004-90.958
		c0.01-5.86,0.86-11.633,2.793-17.206c3.891-11.22,11.446-18.723,22.869-22.043c9.821-2.854,19.771-2.874,29.594-0.026
		c12.606,3.655,20.298,12.227,23.784,24.726c1.403,5.035,1.966,10.19,1.961,15.416C671.218,100.597,671.227,115.476,671.226,130.355
		z M644.589,130.37c0-15.028,0.006-30.055-0.005-45.082c-0.002-3.122-0.157-6.229-1.191-9.226c-1.511-4.379-4.475-7.256-9.063-7.911
		c-2.559-0.365-5.275-0.249-7.836,0.167c-3.918,0.636-6.537,3.167-8.047,6.81c-1.116,2.695-1.53,5.531-1.53,8.435
		c0,31.174-0.021,62.347,0.043,93.521c0.005,2.285,0.378,4.636,0.993,6.84c1.513,5.416,5.368,8.402,10.962,8.807
		c0.955,0.069,1.919,0.066,2.876,0.033c6.432-0.221,10.7-3.637,12.043-9.943c0.528-2.478,0.713-5.068,0.724-7.608
		C644.621,160.265,644.589,145.316,644.589,130.37z"/>
	<path fill-rule="evenodd" clip-rule="evenodd" d="M528.512,147.541c-2.784,5.216-5.35,9.91-7.776,14.674
		c-0.439,0.862-0.426,2.015-0.427,3.033c-0.024,15.517-0.018,31.032-0.018,46.548c0,0.949,0,1.898,0,2.786
		c-1.928,0.582-24.005,0.67-26.487,0.146c0-56.32,0-112.659,0-169.125c8.823,0,17.495,0,26.428,0c0,24.167,0,48.206,0,72.173
		c0.333,0.09,0.404,0.123,0.478,0.126c0.068,0.002,0.17-0.002,0.202-0.045c0.144-0.19,0.295-0.383,0.396-0.598
		c11.264-23.76,22.523-47.521,33.786-71.282c0.033-0.07,0.098-0.126,0.152-0.184c0.054-0.057,0.113-0.107,0.196-0.185
		c8.652,0,17.329,0,26.261,0c-0.345,0.845-0.568,1.504-0.873,2.123c-11.418,23.243-22.801,46.503-34.325,69.693
		c-1.285,2.586-1.394,4.67-0.315,7.372c11.614,29.093,23.087,58.243,34.596,87.377c0.317,0.803,0.601,1.618,0.992,2.679
		c-0.894,0.079-1.574,0.19-2.256,0.191c-7.598,0.013-15.196,0.013-22.794,0.006c-2.199-0.003-2.207-0.015-3.038-2.176
		c-8-20.811-15.996-41.622-23.997-62.433C529.382,149.634,529.041,148.837,528.512,147.541z"/>
	<path fill-rule="evenodd" clip-rule="evenodd" d="M481.292,214.902c-9.23,0-18.148,0-27.304,0
		c-8.55-22.238-17.116-44.52-25.814-67.145c-0.491,0.691-0.874,1.127-1.141,1.624c-2.119,3.943-4.187,7.914-6.336,11.841
		c-0.676,1.235-0.953,2.476-0.951,3.882c0.032,15.596,0.021,31.191,0.02,46.788c0,0.949,0,1.899,0,3.005c-8.877,0-17.559,0-26.415,0
		c0-56.431,0-112.768,0-169.265c8.746,0,17.417,0,26.392,0c0,24.219,0,48.369,0,72.52c0.196,0.045,0.391,0.089,0.586,0.134
		c11.466-24.224,22.931-48.448,34.414-72.708c8.815,0,17.498,0,26.568,0c-0.508,1.108-0.903,2.028-1.345,2.925
		c-9.94,20.229-19.886,40.455-29.829,60.682c-1.551,3.156-2.98,6.379-4.68,9.453c-0.946,1.712-0.939,3.147-0.227,4.934
		c8.284,20.785,16.496,41.6,24.724,62.407c3.526,8.918,7.046,17.838,10.563,26.759C480.752,213.329,480.947,213.935,481.292,214.902
		z"/>
	<path fill-rule="evenodd" clip-rule="evenodd" d="M295.354,45.577c8.968,0,17.577,0,26.439,0c0.053,1.087,0.144,2.093,0.144,3.099
		c0.008,26.239,0.006,52.478,0.006,78.717c0,16.239-0.032,32.479,0.035,48.718c0.01,2.379,0.265,4.808,0.794,7.124
		c1.35,5.911,5.343,9.204,11.388,9.479c1.975,0.09,4.004-0.062,5.949-0.426c3.916-0.732,6.682-3.106,8.016-6.826
		c0.772-2.153,1.108-4.482,1.457-6.761c0.216-1.41,0.108-2.874,0.108-4.313c0.004-41.838,0.003-83.677,0.003-125.515
		c0-1.024,0-2.049,0-3.233c8.417,0,16.61,0,25.024,0c0.046,0.812,0.129,1.588,0.129,2.364c0.006,42.639,0.021,85.277-0.012,127.916
		c-0.005,6.269-0.871,12.432-3.031,18.367c-4.013,11.026-11.642,18.195-22.976,21.222c-9.059,2.418-18.227,2.437-27.286,0.056
		c-12.734-3.348-20.564-11.761-24.139-24.28c-1.435-5.024-2.051-10.177-2.051-15.404c0.004-42.559,0.002-85.117,0.002-127.675
		C295.354,47.41,295.354,46.618,295.354,45.577z"/>
	<path fill-rule="evenodd" clip-rule="evenodd" d="M615.165,240.803c1.276,0,2.205,0,3.274,0c0,15.356,0,30.586,0,45.78
		c-1.225,0.593-1.655-0.346-2.186-0.99c-2.896-3.518-5.774-7.05-8.658-10.577c-6.526-7.982-13.051-15.968-19.581-23.947
		c-0.444-0.543-0.931-1.05-1.764-1.985c-0.352,2.851-0.157,5.274-0.192,7.681c-0.035,2.478-0.008,4.956-0.008,7.435
		c0,2.478,0,4.956,0,7.434c0,2.479,0,4.957,0,7.435c0,2.47,0,4.938,0,7.592c-1.174,0-2.165,0-3.174,0
		c-0.518-1.729-0.746-39.133-0.26-45.667c1.08-0.713,1.681,0.006,2.305,0.777c2.767,3.417,5.549,6.82,8.325,10.229
		c6.661,8.183,13.322,16.366,19.987,24.545c0.451,0.555,0.937,1.083,1.595,1.84c0.658-2.197,0.244-4.233,0.318-6.224
		c0.078-2.076,0.018-4.156,0.018-6.235c0-2.078,0-4.156,0-6.235c0-2.078,0-4.156,0-6.235c0-2.078,0-4.156,0-6.235
		C615.165,245.153,615.165,243.088,615.165,240.803z"/>
	<path fill-rule="evenodd" clip-rule="evenodd" d="M339.779,264.263c0.041-4.295,0.613-7.904,2.147-11.316
		c3.325-7.396,9.081-11.52,17.045-12.74c3.288-0.504,6.548-0.415,9.775,0.26c9.386,1.961,15.889,8.991,17.338,18.53
		c0.572,3.769,0.467,7.482-0.417,11.184c-2.512,10.522-10.7,17.188-21.522,17.488c-4.299,0.119-8.472-0.533-12.307-2.557
		c-6.983-3.687-10.564-9.741-11.758-17.365C339.871,266.408,339.843,265.041,339.779,264.263z M363.027,243.169
		c-9.479,0.014-16.489,5.17-18.947,13.915c-0.857,3.05-0.962,6.158-0.685,9.276c0.853,9.563,7.386,16.62,16.835,17.849
		c9.792,1.273,18.835-3.355,21.916-13.998c0.849-2.933,1.072-5.937,0.75-9.016C381.741,250.167,374.062,243.152,363.027,243.169z"/>
	<path fill-rule="evenodd" clip-rule="evenodd" d="M574.208,263.631c-0.522,2.813-0.784,5.708-1.616,8.427
		c-2.905,9.496-10.936,15.465-21.013,15.553c-2.916,0.025-5.954-0.307-8.735-1.144c-8.471-2.548-13.167-8.688-15.012-17.106
		c-1.173-5.352-0.783-10.673,1.311-15.773c3.191-7.774,9.065-12.12,17.332-13.384c3.287-0.503,6.553-0.432,9.772,0.276
		c9.331,2.051,14.823,7.981,17.022,17.142c0.205,0.853,0.356,1.725,0.444,2.597c0.113,1.112,0.137,2.233,0.199,3.351
		C574.012,263.589,574.109,263.61,574.208,263.631z M570.781,263.978c-0.109-0.019-0.22-0.038-0.329-0.059
		c0-0.719,0.039-1.44-0.007-2.157c-0.52-8.227-5.336-14.911-12.553-17.418c-2.831-0.982-5.757-1.307-8.74-1.156
		c-8.996,0.456-15.514,5.804-17.729,14.513c-0.882,3.469-0.941,6.95-0.309,10.46c1.583,8.768,7.703,14.851,16.49,16.037
		c9.081,1.227,18.214-2.639,21.676-12.987C570.057,268.892,570.295,266.394,570.781,263.978z"/>
	<path fill-rule="evenodd" clip-rule="evenodd" d="M332.702,247.84c-0.937,0.558-1.739,1.036-2.474,1.474
		c-0.272-0.111-0.473-0.128-0.55-0.235c-3.86-5.341-9.498-6.137-15.415-5.735c-2.496,0.169-5.033,0.92-7.376,1.85
		c-2.628,1.042-4.428,3.074-4.938,6.035c-0.501,2.913,0.345,5.362,2.929,6.753c2.011,1.081,4.244,1.852,6.465,2.417
		c3.71,0.943,7.514,1.518,11.232,2.437c2,0.494,3.984,1.213,5.833,2.12c7.844,3.851,7.139,14.703,1.516,18.707
		c-1.537,1.095-3.29,2.039-5.085,2.593c-6.634,2.047-13.238,1.925-19.653-0.955c-3.83-1.721-6.562-4.35-8.113-7.758
		c0.867-0.455,1.752-0.919,2.546-1.336c0.297,0.125,0.497,0.144,0.571,0.25c4.661,6.622,11.3,8.457,18.937,7.761
		c2.473-0.226,4.891-0.812,7.072-2.094c2.839-1.668,4.346-4.066,4.38-7.451c0.03-2.958-1.182-5.195-3.708-6.487
		c-2.109-1.079-4.401-1.895-6.698-2.493c-3.627-0.945-7.343-1.546-10.989-2.425c-1.696-0.409-3.354-1.043-4.966-1.725
		c-8.331-3.521-6.93-13.737-2.113-17.436c2.271-1.744,4.795-2.841,7.567-3.432c4.522-0.963,9.06-0.989,13.548,0.101
		C327.269,241.757,330.361,244.127,332.702,247.84z"/>
	<path fill-rule="evenodd" clip-rule="evenodd" d="M662.566,247.811c-0.903,0.553-1.706,1.045-2.463,1.509
		c-0.236-0.101-0.436-0.12-0.515-0.227c-3.948-5.374-9.635-6.11-15.657-5.775c-2.805,0.156-5.547,0.785-7.998,2.268
		c-2.638,1.596-4.191,3.818-4.188,7.048c0.003,2.402,0.945,4.289,2.998,5.347c1.966,1.013,4.09,1.812,6.231,2.368
		c3.164,0.821,6.435,1.23,9.604,2.031c2.541,0.643,5.103,1.385,7.479,2.469c8.132,3.709,7.404,14.959,1.579,18.972
		c-1.11,0.765-2.295,1.504-3.552,1.96c-7.048,2.555-14.089,2.584-21.005-0.482c-3.511-1.558-6.299-3.975-8.259-7.66
		c1.018-0.544,1.898-1.015,2.715-1.45c0.268,0.14,0.458,0.177,0.539,0.291c4.674,6.605,11.327,8.487,18.944,7.696
		c2.258-0.234,4.539-0.967,6.635-1.876c2.717-1.18,4.368-3.41,4.77-6.443c0.429-3.25-0.577-5.973-3.472-7.538
		c-2.147-1.162-4.528-1.995-6.898-2.622c-3.623-0.959-7.342-1.549-10.988-2.429c-1.695-0.408-3.358-1.032-4.964-1.725
		c-8.454-3.643-6.859-13.776-2.12-17.432c2.403-1.853,5.093-2.963,8.034-3.534c4.372-0.847,8.752-0.862,13.079,0.195
		C657.146,241.76,660.235,244.141,662.566,247.811z"/>
	<path fill-rule="evenodd" clip-rule="evenodd" d="M460.605,240.914c0.535-0.108,0.833-0.208,1.134-0.221
		c0.631-0.026,1.264-0.008,2.101-0.008c0.066,0.803,0.174,1.49,0.175,2.178c0.011,8.879,0.02,17.759,0.003,26.638
		c-0.013,6.733-2.479,12.262-8.512,15.602c-6.201,3.434-12.594,3.34-18.75-0.234c-4.754-2.76-7.198-7.132-7.895-12.511
		c-0.153-1.186-0.157-2.395-0.159-3.593c-0.012-8.399-0.006-16.799-0.006-25.197c0-0.862,0-1.725,0-2.738c1.215,0,2.194,0,3.418,0
		c0,0.999,0,1.86,0,2.722c0,8.398-0.041,16.799,0.032,25.197c0.016,1.898,0.171,3.87,0.704,5.678
		c2.255,7.667,9.197,10.326,14.702,9.821c7.302-0.67,12.417-5.915,12.971-13.118c0.092-1.193,0.078-2.397,0.079-3.597
		c0.006-8,0.003-15.999,0.003-23.998C460.605,242.674,460.605,241.814,460.605,240.914z"/>
	<path fill-rule="evenodd" clip-rule="evenodd" d="M507.081,240.883c0,0.995,0,1.845,0,2.921c-5.459,0-10.792,0-16.434,0
		c-0.224,3.043-0.086,5.893-0.11,8.731c-0.025,2.798-0.006,5.597-0.006,8.396c0,2.878,0,5.757,0,8.635c0,2.799,0,5.597,0,8.396
		c0,2.866,0,5.732,0,8.739c-1.233,0-2.232,0-3.463,0c0-14.177,0-28.296,0-42.682c-5.658-0.398-11.135,0.028-16.701-0.26
		c0-1.046,0-1.886,0-2.876C482.567,240.883,494.685,240.883,507.081,240.883z"/>
	<path fill-rule="evenodd" clip-rule="evenodd" d="M395.096,240.799c1.128,0,2.139,0,3.412,0c0,14.226,0,28.33,0,42.705
		c8.767,0,17.273,0,25.916,0c0,1.19,0,2.11,0,3.188c-9.75,0-19.467,0-29.183,0C394.785,284.992,394.633,244.579,395.096,240.799z"/>
	<path fill-rule="evenodd" clip-rule="evenodd" d="M514.368,240.801c1.095,0,2.021,0,3.082,0c0,15.346,0,30.565,0,45.915
		c-1.056,0-1.98,0-3.082,0C514.368,271.466,514.368,256.245,514.368,240.801z"/>
	<path fill-rule="evenodd" clip-rule="evenodd" fill="#FFFFFF" d="M644.589,130.37c0,14.947,0.032,29.895-0.032,44.842
		c-0.011,2.54-0.195,5.131-0.724,7.608c-1.343,6.307-5.611,9.723-12.043,9.943c-0.957,0.033-1.921,0.036-2.876-0.033
		c-5.594-0.404-9.449-3.391-10.962-8.807c-0.615-2.204-0.988-4.555-0.993-6.84c-0.063-31.174-0.043-62.347-0.043-93.521
		c0-2.904,0.414-5.74,1.53-8.435c1.51-3.643,4.129-6.174,8.047-6.81c2.561-0.416,5.277-0.532,7.836-0.167
		c4.589,0.655,7.553,3.532,9.063,7.911c1.034,2.996,1.189,6.104,1.191,9.226C644.595,100.315,644.589,115.342,644.589,130.37z"/>
</g>
<polygon points="228.978,287.682 228.978,203.781 265.721,167.038 228.276,129.593 228.276,48.157 37,48.157 37,287.682 "/>
</svg>
