<?xml version="1.0" encoding="utf-8"?>
<!-- Generator: Adobe Illustrator 21.1.0, SVG Export Plug-In . SVG Version: 6.00 Build 0)  -->
<svg version="1.1" id="Layer_1" xmlns="http://www.w3.org/2000/svg" xmlns:xlink="http://www.w3.org/1999/xlink" x="0px" y="0px"
	 viewBox="0 0 305 211" style="enable-background:new 0 0 305 211;" xml:space="preserve">
<style type="text/css">
	.st0{fill:#662D91;}
	.st1{fill:#FFFFFF;}
</style>
<polygon id="Banner" class="st0" points="7,8 7,184.1 81.1,164.4 155.1,184.1 155.1,8 "/>
<polygon id="H" class="st1" points="78.2,132.4 69.7,132.4 69.7,52.6 58.3,52.6 58.3,132.4 49.7,132.4 49.7,33.6 58.3,33.6 
	58.3,46.9 69.7,46.9 69.7,33.6 78.2,33.6 "/>
<polygon id="M" class="st1" points="114.3,132.4 104.8,132.4 104.8,47.4 99.1,53.1 93.4,47.4 93.4,132.4 84.9,132.4 84.9,33.6 
	94.9,33.6 100.7,39.4 106.4,33.6 114.3,33.6 "/>
<g id="HackMTY">
	<polygon class="st1" points="200.1,93.5 200.1,68.4 191.1,68.4 191.1,93.5 183.7,93.5 183.7,38.3 191.1,38.3 191.1,61.8 
		200.1,61.8 200.1,38.3 207.5,38.3 207.5,93.5 	"/>
	<path class="st1" d="M221.4,93.5H214V47.8c0-6.3,2.9-9.4,8.8-9.4h5.5c5.9,0,8.8,3.1,8.8,9.4v45.7h-7.4V73.3h-8.4L221.4,93.5
		L221.4,93.5z M229.8,66.6V48.2c0-2.1-1.1-3.2-3.2-3.2h-2c-2.1,0-3.2,1.1-3.2,3.2v18.3L229.8,66.6L229.8,66.6z"/>
	<path class="st1" d="M265.8,80.6v3.5c0,6.2-2.9,9.4-8.8,9.4h-4.8c-5.9,0-8.8-3.1-8.8-9.4V47.7c0-6.2,2.9-9.4,8.8-9.4h4.8
		c5.9,0,8.8,3.1,8.8,9.4v6.2h-7.4v-5.7c0-2.2-1.1-3.2-3.3-3.2h-1.5c-1.9,0-2.9,1.1-2.9,3.2v35.3c0,2.1,1,3.2,2.9,3.2h1.8
		c1.9,0,2.9-1.1,2.9-3.2v-3C258.4,80.6,265.8,80.6,265.8,80.6z"/>
	<path class="st1" d="M278.9,93.5h-7.4V38.3h7.4V93.5z M295.8,93.5h-7.4l-9.2-26.9v-0.5l7.7-27.7h6.8l-7.8,27.4L295.8,93.5z"/>
	<polygon class="st1" points="198.7,130.9 205.5,98.5 213.6,98.5 213.6,153.6 206.3,153.6 207,117.5 201.5,143.6 195.8,143.6 
		190.3,117.5 191.1,153.6 183.7,153.6 183.7,98.5 191.8,98.5 	"/>
	<polygon class="st1" points="232.3,105.1 232.3,153.6 224.9,153.6 224.9,105.1 217.9,105.1 217.9,98.5 239.3,98.5 239.3,105.1 	"/>
	<polygon class="st1" points="257.3,153.6 249.9,153.6 249.9,133.3 240.9,98.5 248.2,98.5 253.7,122.4 253.9,122.4 258.9,98.5 
		266.2,98.5 257.3,133.3 	"/>
</g>
</svg>
