<?xml version="1.0" encoding="utf-8"?>
<!-- Generator: Adobe Illustrator 16.0.4, SVG Export Plug-In . SVG Version: 6.00 Build 0)  -->
<!DOCTYPE svg PUBLIC "-//W3C//DTD SVG 1.1//EN" "http://www.w3.org/Graphics/SVG/1.1/DTD/svg11.dtd">
<svg version="1.1" id="Layer_1" xmlns="http://www.w3.org/2000/svg" xmlns:xlink="http://www.w3.org/1999/xlink" x="0px" y="0px"
	 width="305px" height="211px" viewBox="0 0 305 211" enable-background="new 0 0 305 211" xml:space="preserve">
<polygon id="Banner" fill="#662D91" points="7,8 7,184.119 81.074,164.387 155.147,184.119 155.147,8 "/>
<polygon id="H" fill="#FFFFFF" points="78.225,132.405 69.678,132.405 69.678,52.634 58.282,52.634 58.282,132.405 49.735,132.405 
	49.735,33.641 58.282,33.641 58.282,46.936 69.678,46.936 69.678,33.641 78.225,33.641 "/>
<polygon id="M" fill="#FFFFFF" points="114.312,132.405 104.815,132.405 104.815,47.351 99.117,53.082 93.419,47.351 
	93.419,132.405 84.872,132.405 84.872,33.641 94.929,33.641 100.659,39.371 106.389,33.641 114.312,33.641 "/>
<g id="HackMTY">
	<polygon fill="#FFFFFF" points="200.118,93.464 200.118,68.438 191.06,68.438 191.06,93.464 183.69,93.464 183.69,38.345 
		191.06,38.345 191.06,61.758 200.118,61.758 200.118,38.345 207.488,38.345 207.488,93.464 	"/>
	<path fill="#FFFFFF" d="M221.383,93.464h-7.37V47.787c0-6.294,2.942-9.442,8.828-9.442h5.527c5.885,0,8.827,3.148,8.827,9.442
		v45.677h-7.369v-20.19h-8.445v20.19H221.383z M229.826,66.595V48.248c0-2.149-1.076-3.224-3.225-3.224h-1.995
		c-2.15,0-3.226,1.075-3.226,3.224v18.348H229.826z"/>
	<path fill="#FFFFFF" d="M265.752,80.567v3.531c0,6.245-2.944,9.366-8.827,9.366h-4.76c-5.886,0-8.829-3.121-8.829-9.366V47.711
		c0-6.244,2.943-9.365,8.829-9.365h4.76c5.883,0,8.827,3.122,8.827,9.365v6.217h-7.37v-5.68c0-2.15-1.102-3.225-3.301-3.225h-1.459
		c-1.946,0-2.917,1.075-2.917,3.225v35.313c0,2.149,0.971,3.224,2.917,3.224h1.843c1.944,0,2.917-1.075,2.917-3.224v-2.994H265.752z
		"/>
	<path fill="#FFFFFF" d="M278.878,93.464h-7.369V38.345h7.369V93.464z M295.845,93.464h-7.369l-9.213-26.946v-0.461l7.677-27.712
		h6.757l-7.754,27.406L295.845,93.464z"/>
	<polygon fill="#FFFFFF" points="198.66,130.86 205.492,98.464 213.63,98.464 213.63,153.584 206.261,153.584 207.028,117.504 
		201.501,143.604 195.819,143.604 190.293,117.504 191.061,153.584 183.691,153.584 183.691,98.464 191.828,98.464 	"/>
	<polygon fill="#FFFFFF" points="232.284,105.144 232.284,153.584 224.914,153.584 224.914,105.144 217.852,105.144 217.852,98.464 
		239.347,98.464 239.347,105.144 	"/>
	<polygon fill="#FFFFFF" points="257.309,153.584 249.939,153.584 249.939,133.317 240.88,98.465 248.174,98.465 253.701,122.416 
		253.931,122.416 258.921,98.465 266.215,98.465 257.309,133.317 	"/>
</g>
<g id="_x32_015">
	<path fill="#FFFFFF" d="M73.949,201.409v2.144h-6.435v-5.511c0-0.3,0.025-0.549,0.074-0.748c0.051-0.2,0.137-0.388,0.263-0.562
		c0.125-0.176,0.345-0.42,0.661-0.735l2.42-2.319c0.182-0.183,0.328-0.34,0.436-0.476c0.109-0.132,0.183-0.244,0.225-0.335
		c0.041-0.092,0.066-0.188,0.075-0.288c0.008-0.099,0.012-0.231,0.012-0.398v-3.316c0-0.698-0.341-1.048-1.022-1.048h-0.149
		c-0.682,0-1.023,0.349-1.023,1.048v1.844h-2.394v-1.994c0-2.046,0.956-3.068,2.868-3.068h1.247c1.912,0,2.869,1.022,2.869,3.068
		v4.288c0,0.335-0.046,0.624-0.138,0.876c-0.092,0.248-0.328,0.556-0.711,0.922l-2.644,2.544c-0.332,0.315-0.524,0.533-0.573,0.649
		c-0.051,0.115-0.08,0.23-0.088,0.349c-0.008,0.115-0.013,0.273-0.013,0.474v2.594H73.949z"/>
	<path fill="#FFFFFF" d="M79.359,203.553c-1.912,0-2.867-1.021-2.867-3.066v-11.771c0-2.045,0.956-3.067,2.867-3.067h1.671
		c1.912,0,2.868,1.022,2.868,3.067v11.771c0,2.045-0.957,3.066-2.868,3.066H79.359z M79.834,187.816
		c-0.632,0-0.948,0.35-0.948,1.049v11.471c0,0.699,0.357,1.047,1.073,1.047h0.598c0.631,0,0.949-0.348,0.949-1.047v-11.471
		c0-0.699-0.359-1.049-1.073-1.049H79.834z"/>
	<path fill="#FFFFFF" d="M85.945,189.611l-0.549-1.645c0.615-0.232,1.139-0.558,1.571-0.973s0.773-0.866,1.023-1.347h0.25
		l1.571,0.849v17.059h-2.37v-14.391L85.945,189.611z"/>
	<path fill="#FFFFFF" d="M92.055,199.363h2.394v0.973c0,0.699,0.315,1.048,0.948,1.048h0.274c0.715,0,1.072-0.349,1.072-1.048v-4.09
		c0-0.782-0.333-1.172-0.998-1.172h-3.616v-9.429h6.758v2.221h-4.514v5.038h1.896c1.913,0,2.868,1.055,2.868,3.167v4.314
		c0,2.113-0.956,3.167-2.868,3.167h-1.347c-1.912,0-2.868-1.012-2.868-3.042V199.363z"/>
</g>
</svg>
