<?xml version="1.0" encoding="utf-8"?>
<!-- Generator: Adobe Illustrator 21.0.2, SVG Export Plug-In . SVG Version: 6.00 Build 0)  -->
<svg version="1.1" id="Layer_1" xmlns="http://www.w3.org/2000/svg" xmlns:xlink="http://www.w3.org/1999/xlink" x="0px" y="0px"
	 viewBox="0 0 1280 1024" style="enable-background:new 0 0 1280 1024;" xml:space="preserve">
<style type="text/css">
	.st0{fill:#FFFFFF;}
	.st1{fill:#672F8F;}
	.st2{fill:none;}
	.st3{font-family:'BebasNeue';}
	.st4{font-size:81.4597px;}
</style>
<rect x="170" y="194" class="st0" width="328" height="443"/>
<g>
	<g>
		<g>
			<path class="st0" d="M808.7,443.1V332.7H766v110.4h-32.1V193.7H766v106.9h42.7V193.7h32.1V443h-32.1V443.1z"/>
			<path class="st0" d="M904.8,443.1h-35.6V238.2c0-28.5,13.9-44.4,40.6-44.4h25c26.6,0,41.3,15.9,41.3,44.4v204.9h-35.6v-89h-35.6
				v89H904.8z M940.5,322v-81.7c0-9.7-3.9-14.4-13.7-14.4h-9c-9.7,0-12.9,4.7-12.9,14.4V322H940.5z"/>
			<path class="st0" d="M1104.3,386.1v16.3c0,28.2-13.7,40.7-40.4,40.7h-21.5c-26.6,0-41.4-12.4-41.4-40.7V237.8
				c0-28.2,14.8-44.1,41.4-44.1h21.5c26.6,0,40.4,15.8,40.4,44.1V265h-32.1v-24.7c0-9.7-6.7-14.4-16.6-14.4h-6.6
				c-8.8,0-12.4,4.7-12.4,14.4V400c0,9.7,3.6,14.6,12.4,14.6h8.3c8.8,0,14.9-4.9,14.9-14.6v-13.9H1104.3z"/>
			<path class="st0" d="M1164.9,443.1h-35.6V193.7h35.6V443.1z M1240,443.1h-33.3l-41.8-120.2v-2.1l34.9-127.1h30.6l-35.1,124
				L1240,443.1z"/>
		</g>
		<g>
			<path class="st0" d="M800.4,614.5L831.3,468h37.9v249.3h-34.4l3.5-163.8l-25,117.5h-25.7l-25-117.5l3.5,163.8h-32.2V468h35.6
				L800.4,614.5z"/>
			<path class="st0" d="M951.1,496.5v220.8H919V496.5h-32V468h96.2v28.5H951.1z"/>
			<path class="st0" d="M1065.1,717.3H1033V625l-41.7-157h33l25,106.9h1L1073,468h33l-40.8,157L1065.1,717.3L1065.1,717.3z"/>
		</g>
	</g>
	<g>
		<path class="st1" d="M50,111.8v686.5l277.8-74l277.8,74V111.8H50z M313.6,610.5H278V304.2h-42.7v306.3h-32.1V229.4h32.1v49.9H278
			v-49.9h35.6V610.5z M452.5,610.5h-39.2V283.1l-21.4,22.1l-21.4-22.1v327.3h-32.1v-381h32.2l21.9,22.1l21.9-22.1h38v381.1H452.5z"
			/>
	</g>
	<rect x="271" y="798.3" class="st2" width="334.6" height="109.4"/>
	<text transform="matrix(1 0 0 1 270.9995 855.3691)" class="st1 st3 st4">2017</text>
</g>
</svg>
