<?xml version="1.0" encoding="utf-8"?>
<!-- Generator: Adobe Illustrator 16.0.4, SVG Export Plug-In . SVG Version: 6.00 Build 0)  -->
<!DOCTYPE svg PUBLIC "-//W3C//DTD SVG 1.1//EN" "http://www.w3.org/Graphics/SVG/1.1/DTD/svg11.dtd">
<svg version="1.1" id="Layer_1" xmlns="http://www.w3.org/2000/svg" xmlns:xlink="http://www.w3.org/1999/xlink" x="0px" y="0px"
	 width="34px" height="40.42px" viewBox="0 0 34 40.42" enable-background="new 0 0 34 40.42" xml:space="preserve">
<polygon id="Banner" fill="#673090" points="0,0 0,40.421 17,35.89 34,40.421 34,0 "/>
<polygon id="H" fill="#FFFFFF" points="16.346,28.552 14.385,28.552 14.385,10.244 11.77,10.244 11.77,28.552 9.809,28.552 
	9.809,5.885 11.77,5.885 11.77,8.936 14.385,8.936 14.385,5.885 16.346,5.885 "/>
<polygon id="M" fill="#FFFFFF" points="24.628,28.552 22.448,28.552 22.448,9.031 21.141,10.347 19.833,9.031 19.833,28.552 
	17.872,28.552 17.872,5.885 20.182,5.885 21.495,7.2 22.811,5.885 24.628,5.885 "/>
</svg>
